<svg xmlns="http://www.w3.org/2000/svg" xmlns:xlink="http://www.w3.org/1999/xlink" xml:lang="en" height="1383.0000000000002pt" width="906.878pt" viewBox="-58.330000000000005 -879.2 906.878 1383.0000000000002"><polygon points="181.79999999999998,-627.3000000000001 172.79999999999998,-614.6999999999999 163.79999999999998,-627.3000000000001 " style="stroke:black;fill:none;stroke-width:2.0;stroke-dasharray:-;stroke-linecap:round;stroke-linejoin:round;" /><circle cx="375.936" cy="-527.808" r="15.840000000000002" style="stroke:black;fill:none;stroke-width:2.0;stroke-dasharray:-;" /><polygon points="171.0,-254.70000000000002 180.0,-267.3 189.0,-254.70000000000002 " style="stroke:black;fill:none;stroke-width:2.0;stroke-dasharray:-;stroke-linecap:round;stroke-linejoin:round;" /><polygon points="379.8,-267.3 370.8,-254.70000000000002 361.8,-267.3 " style="stroke:black;fill:none;stroke-width:2.0;stroke-dasharray:-;stroke-linecap:round;stroke-linejoin:round;" /><circle cx="375.936" cy="-347.808" r="15.840000000000002" style="stroke:black;fill:none;stroke-width:2.0;stroke-dasharray:-;" /><polygon points="603.0,-114.3 594.0,-101.7 585.0,-114.3 " style="stroke:black;fill:none;stroke-width:2.0;stroke-dasharray:-;stroke-linecap:round;stroke-linejoin:round;" /><circle cx="411.936" cy="-113.80799999999999" r="15.840000000000002" style="stroke:black;fill:none;stroke-width:2.0;stroke-dasharray:-;" /><polygon points="414.59999999999997,-71.70000000000003 405.59999999999997,-59.10000000000003 396.59999999999997,-71.70000000000003 " style="stroke:black;fill:none;stroke-width:2.0;stroke-dasharray:-;stroke-linecap:round;stroke-linejoin:round;" /><path d="M 0.0,-684.0 L 18.0,-684.0 L 36.0,-684.0" style="stroke:black;fill:none;stroke-width:2.0;stroke-dasharray:-;stroke-linecap:round;stroke-linejoin:round;" /><path d="M 36.0,-684.0 L 81.0,-684.0 L 83.99999999999999,-693.0 L 90.0,-675.0 L 96.0,-693.0 L 101.99999999999999,-675.0 L 108.0,-693.0 L 114.0,-675.0 L 117.0,-684.0 L 162.0,-684.0" style="stroke:black;fill:none;stroke-width:2.0;stroke-dasharray:-;stroke-linecap:round;stroke-linejoin:round;" /><path d="M 162.0,-684.0 L 167.4,-684.0 L 172.79999999999998,-684.0" style="stroke:black;fill:none;stroke-width:2.0;stroke-dasharray:-;stroke-linecap:round;stroke-linejoin:round;" /><path d="M 172.79999999999998,-684.0 L 172.79999999999998,-627.3000000000001 M 181.79999999999998,-614.6999999999999 L 163.79999999999998,-614.6999999999999 M 172.79999999999998,-614.6999999999999 L 172.79999999999995,-558.0" style="stroke:black;fill:none;stroke-width:2.0;stroke-dasharray:-;stroke-linecap:round;stroke-linejoin:round;" /><path d="M 172.79999999999995,-558.0 L 172.79999999999995,-513.0 L 181.79999999999995,-510.0 L 163.79999999999995,-504.0 L 181.79999999999995,-498.0 L 163.79999999999995,-492.0 L 181.79999999999995,-486.0 L 163.79999999999995,-480.0 L 172.79999999999995,-477.0 L 172.79999999999993,-432.0" style="stroke:black;fill:none;stroke-width:2.0;stroke-dasharray:-;stroke-linecap:round;stroke-linejoin:round;" /><path d="M 172.79999999999993,-432.0 L 86.39999999999996,-432.0 L 0.0,-432.0" style="stroke:black;fill:none;stroke-width:2.0;stroke-dasharray:-;stroke-linecap:round;stroke-linejoin:round;" /><path d="M 396.0,-684.0 L 396.0,-639.0 L 405.0,-636.0 L 387.0,-630.0 L 405.0,-624.0 L 387.0,-618.0 L 405.0,-612.0 L 387.0,-606.0 L 396.0,-603.0 L 396.0,-558.0" style="stroke:black;fill:none;stroke-width:2.0;stroke-dasharray:-;stroke-linecap:round;stroke-linejoin:round;" /><path d="M 396.0,-558.0 L 396.0,-540.0 L 396.0,-522.0" style="stroke:black;fill:none;stroke-width:2.0;stroke-dasharray:-;stroke-linecap:round;stroke-linejoin:round;" /><path d="M 375.93600000000004,-543.648 L 375.93600000000004,-533.088" style="stroke:black;fill:none;stroke-width:2.0;stroke-dasharray:-;stroke-linecap:round;stroke-linejoin:round;" /><path d="M 386.49600000000004,-533.088 L 365.376,-533.088" style="stroke:black;fill:none;stroke-width:2.0;stroke-dasharray:-;stroke-linecap:round;stroke-linejoin:round;" /><path d="M 381.216,-533.088 L 390.72,-522.0 L 396.0,-522.0" style="stroke:black;fill:none;stroke-width:2.0;stroke-dasharray:-;stroke-linecap:round;stroke-linejoin:round;" /><path d="M 370.65599999999995,-533.088 L 361.152,-522.0 L 355.872,-522.0" style="stroke:black;fill:none;stroke-width:2.0;stroke-dasharray:-;stroke-linecap:round;stroke-linejoin:round;" /><path d="M 370.65599999999995,-533.088 L 367.0091223611037,-528.8333094212877" style="stroke:black;fill:none;stroke-width:2.0;stroke-dasharray:-;stroke-linecap:round;stroke-linejoin:round;" /><path d="M 362.45358274691193 -523.5185132047305 L 364.2757985925886 -531.1761583657291 L 369.74244612961877 -526.4904604768461 Z" style="stroke:black;fill:black;stroke-linecap:butt;stroke-linejoin:miter;" /><path d="M 396.0,-522.0 L 396.0,-507.59999999999997 L 387.0,-507.59999999999997 L 405.0,-507.59999999999997 M 389.7,-503.28000000000003 L 402.3,-503.28000000000003 M 394.2,-498.96 L 397.8,-498.96" style="stroke:black;fill:none;stroke-width:2.0;stroke-dasharray:-;stroke-linecap:round;stroke-linejoin:round;" /><path d="M 0.0,-324.0 L 18.0,-324.0 L 36.0,-324.0" style="stroke:black;fill:none;stroke-width:2.0;stroke-dasharray:-;stroke-linecap:round;stroke-linejoin:round;" /><path d="M 36.0,-324.0 L 81.0,-324.0 L 83.99999999999999,-333.0 L 90.0,-315.0 L 96.0,-333.0 L 101.99999999999999,-315.0 L 108.0,-333.0 L 114.0,-315.0 L 117.0,-324.0 L 162.0,-324.0" style="stroke:black;fill:none;stroke-width:2.0;stroke-dasharray:-;stroke-linecap:round;stroke-linejoin:round;" /><path d="M 162.0,-324.0 L 171.0,-324.0 L 180.0,-324.0" style="stroke:black;fill:none;stroke-width:2.0;stroke-dasharray:-;stroke-linecap:round;stroke-linejoin:round;" /><path d="M 180.0,-324.0 L 180.0,-267.3 M 171.0,-267.3 L 189.0,-267.3 M 180.0,-254.70000000000002 L 179.99999999999997,-198.0" style="stroke:black;fill:none;stroke-width:2.0;stroke-dasharray:-;stroke-linecap:round;stroke-linejoin:round;" /><path d="M 192.6,-270.90000000000003 L 189.0,-267.3" style="stroke:black;fill:none;stroke-width:2.0;stroke-dasharray:-;stroke-linecap:round;stroke-linejoin:round;" /><path d="M 167.39999999999998,-263.7 L 171.0,-267.3" style="stroke:black;fill:none;stroke-width:2.0;stroke-dasharray:-;stroke-linecap:round;stroke-linejoin:round;" /><path d="M 179.99999999999997,-198.0 L 179.99999999999994,-45.0 L 179.99999999999991,108.0" style="stroke:black;fill:none;stroke-width:2.0;stroke-dasharray:-;stroke-linecap:round;stroke-linejoin:round;" /><path d="M 179.99999999999991,108.0 L 89.99999999999996,107.99999999999999 L 0.0,107.99999999999999" style="stroke:black;fill:none;stroke-width:2.0;stroke-dasharray:-;stroke-linecap:round;stroke-linejoin:round;" /><path d="M 162.0,-324.0 L 162.0,-315.0 L 162.0,-306.0" style="stroke:black;fill:none;stroke-width:2.0;stroke-dasharray:-;stroke-linecap:round;stroke-linejoin:round;" /><path d="M 162.0,-306.0 L 162.0,-261.0 L 171.0,-258.0 L 153.0,-252.0 L 171.0,-246.00000000000003 L 153.0,-240.0 L 171.0,-234.0 L 153.0,-228.00000000000003 L 162.0,-225.0 L 161.99999999999997,-180.0" style="stroke:black;fill:none;stroke-width:2.0;stroke-dasharray:-;stroke-linecap:round;stroke-linejoin:round;" /><path d="M 161.99999999999997,-180.0 L 80.99999999999999,-180.0 L 0.0,-180.00000000000003" style="stroke:black;fill:none;stroke-width:2.0;stroke-dasharray:-;stroke-linecap:round;stroke-linejoin:round;" /><path d="M 162.0,-324.0 L 198.0,-324.0 L 234.0,-324.0" style="stroke:black;fill:none;stroke-width:2.0;stroke-dasharray:-;stroke-linecap:round;stroke-linejoin:round;" /><path d="M 234.0,-324.0 L 279.0,-324.0 L 282.0,-333.0 L 288.0,-315.0 L 294.0,-333.0 L 300.0,-315.0 L 306.0,-333.0 L 312.0,-315.0 L 315.0,-324.0 L 360.0,-324.0" style="stroke:black;fill:none;stroke-width:2.0;stroke-dasharray:-;stroke-linecap:round;stroke-linejoin:round;" /><path d="M 360.0,-324.0 L 365.40000000000003,-324.0 L 370.8,-324.0" style="stroke:black;fill:none;stroke-width:2.0;stroke-dasharray:-;stroke-linecap:round;stroke-linejoin:round;" /><path d="M 370.8,-324.0 L 370.8,-267.3 M 379.8,-254.70000000000002 L 361.8,-254.70000000000002 M 370.8,-254.70000000000002 L 370.8,-198.0" style="stroke:black;fill:none;stroke-width:2.0;stroke-dasharray:-;stroke-linecap:round;stroke-linejoin:round;" /><path d="M 370.8,-198.0 L 370.8,-45.0 L 370.79999999999995,108.0" style="stroke:black;fill:none;stroke-width:2.0;stroke-dasharray:-;stroke-linecap:round;stroke-linejoin:round;" /><path d="M 370.79999999999995,108.0 L 185.39999999999998,107.99999999999999 L 0.0,107.99999999999996" style="stroke:black;fill:none;stroke-width:2.0;stroke-dasharray:-;stroke-linecap:round;stroke-linejoin:round;" /><path d="M 396.0,-504.0 L 396.0,-459.0 L 405.0,-456.0 L 387.0,-450.0 L 405.0,-444.0 L 387.0,-438.0 L 405.0,-432.0 L 387.0,-426.0 L 396.0,-423.0 L 396.0,-378.0" style="stroke:black;fill:none;stroke-width:2.0;stroke-dasharray:-;stroke-linecap:round;stroke-linejoin:round;" /><path d="M 396.0,-378.0 L 396.0,-360.0 L 396.0,-342.0" style="stroke:black;fill:none;stroke-width:2.0;stroke-dasharray:-;stroke-linecap:round;stroke-linejoin:round;" /><path d="M 375.93600000000004,-363.64799999999997 L 375.93600000000004,-353.08799999999997" style="stroke:black;fill:none;stroke-width:2.0;stroke-dasharray:-;stroke-linecap:round;stroke-linejoin:round;" /><path d="M 386.49600000000004,-353.08799999999997 L 365.376,-353.08799999999997" style="stroke:black;fill:none;stroke-width:2.0;stroke-dasharray:-;stroke-linecap:round;stroke-linejoin:round;" /><path d="M 381.216,-353.08799999999997 L 390.72,-342.0 L 396.0,-342.0" style="stroke:black;fill:none;stroke-width:2.0;stroke-dasharray:-;stroke-linecap:round;stroke-linejoin:round;" /><path d="M 370.65599999999995,-353.08799999999997 L 361.152,-342.0 L 355.872,-342.0" style="stroke:black;fill:none;stroke-width:2.0;stroke-dasharray:-;stroke-linecap:round;stroke-linejoin:round;" /><path d="M 370.65599999999995,-353.08799999999997 L 367.0091223611037,-348.8333094212877" style="stroke:black;fill:none;stroke-width:2.0;stroke-dasharray:-;stroke-linecap:round;stroke-linejoin:round;" /><path d="M 362.45358274691193 -343.5185132047306 L 364.2757985925886 -351.1761583657292 L 369.74244612961877 -346.4904604768462 Z" style="stroke:black;fill:black;stroke-linecap:butt;stroke-linejoin:miter;" /><path d="M 396.0,-342.0 L 396.0,-327.59999999999997 L 387.0,-327.59999999999997 L 405.0,-327.59999999999997 M 389.7,-323.28000000000003 L 402.3,-323.28000000000003 M 394.2,-318.96 L 397.8,-318.96" style="stroke:black;fill:none;stroke-width:2.0;stroke-dasharray:-;stroke-linecap:round;stroke-linejoin:round;" /><path d="M 594.0,-216.0 L 594.0,-198.0 L 603.0,-195.0 L 585.0,-189.0 L 603.0,-183.0 L 585.0,-177.0 L 603.0,-171.0 L 585.0,-165.00000000000003 L 594.0,-162.0 L 594.0,-144.0" style="stroke:black;fill:none;stroke-width:2.0;stroke-dasharray:-;stroke-linecap:round;stroke-linejoin:round;" /><path d="M 594.0,-144.0 L 594.0,-114.3 M 603.0,-101.7 L 585.0,-101.7 M 594.0,-101.7 L 594.0,-72.0" style="stroke:black;fill:none;stroke-width:2.0;stroke-dasharray:-;stroke-linecap:round;stroke-linejoin:round;" /><path d="M 594.0,-72.0 L 621.0,-72.0 L 648.0,-72.0" style="stroke:black;fill:none;stroke-width:2.0;stroke-dasharray:-;stroke-linecap:round;stroke-linejoin:round;" /><path d="M 432.0,-144.0 L 432.0,-126.0 L 432.0,-108.0" style="stroke:black;fill:none;stroke-width:2.0;stroke-dasharray:-;stroke-linecap:round;stroke-linejoin:round;" /><path d="M 411.93600000000004,-129.648 L 411.93600000000004,-119.08800000000001" style="stroke:black;fill:none;stroke-width:2.0;stroke-dasharray:-;stroke-linecap:round;stroke-linejoin:round;" /><path d="M 422.49600000000004,-119.088 L 401.376,-119.08800000000001" style="stroke:black;fill:none;stroke-width:2.0;stroke-dasharray:-;stroke-linecap:round;stroke-linejoin:round;" /><path d="M 417.216,-119.088 L 426.72,-108.0 L 432.0,-108.0" style="stroke:black;fill:none;stroke-width:2.0;stroke-dasharray:-;stroke-linecap:round;stroke-linejoin:round;" /><path d="M 406.65599999999995,-119.08800000000001 L 397.152,-108.0 L 391.872,-108.0" style="stroke:black;fill:none;stroke-width:2.0;stroke-dasharray:-;stroke-linecap:round;stroke-linejoin:round;" /><path d="M 406.65599999999995,-119.08800000000001 L 403.0091223611037,-114.83330942128768" style="stroke:black;fill:none;stroke-width:2.0;stroke-dasharray:-;stroke-linecap:round;stroke-linejoin:round;" /><path d="M 398.45358274691193 -109.5185132047306 L 400.2757985925886 -117.17615836572917 L 405.74244612961877 -112.4904604768462 Z" style="stroke:black;fill:black;stroke-linecap:butt;stroke-linejoin:miter;" /><path d="M 432.0,-108.0 L 432.0,-63.0 L 441.0,-60.0 L 423.0,-54.0 L 441.0,-48.00000000000001 L 423.0,-42.0 L 441.0,-36.0 L 423.0,-30.000000000000007 L 432.0,-27.0 L 432.0,18.0" style="stroke:black;fill:none;stroke-width:2.0;stroke-dasharray:-;stroke-linecap:round;stroke-linejoin:round;" /><path d="M 432.0,-108.0 L 387.0,-108.0 L 342.0,-108.00000000000001" style="stroke:black;fill:none;stroke-width:2.0;stroke-dasharray:-;stroke-linecap:round;stroke-linejoin:round;" /><path d="M 315.6,-122.4 L 315.6,-110.40000000000002 L 327.59999999999997,-110.40000000000002 L 327.59999999999997,-86.4 L 315.59999999999997,-86.4 L 315.59999999999997,-74.40000000000002" style="stroke:black;fill:none;stroke-width:2.0;stroke-dasharray:-;stroke-linecap:round;stroke-linejoin:round;" /><path d="M 330.0,-108.00000000000001 L 330.0,-88.80000000000001" style="stroke:black;fill:none;stroke-width:2.0;stroke-dasharray:-;stroke-linecap:round;stroke-linejoin:round;" /><path d="M 342.0,-108.00000000000001 L 330.0,-108.00000000000001" style="stroke:black;fill:none;stroke-width:2.0;stroke-dasharray:-;stroke-linecap:round;stroke-linejoin:round;" /><path d="M 318.59999999999997,-98.40000000000002 L 315.6,-98.40000000000002" style="stroke:black;fill:none;stroke-width:2.0;stroke-dasharray:-;stroke-linecap:round;stroke-linejoin:round;" /><path d="M 325.59999999999997 -98.40000000000002 L 318.59999999999997 -93.90000000000002 L 318.59999999999997 -102.90000000000002 Z" style="stroke:black;fill:black;stroke-linecap:butt;stroke-linejoin:miter;" /><path d="M 315.59999999999997,-74.40000000000002 L 315.59999999999997,-101.40000000000002 L 315.59999999999997,-128.40000000000003" style="stroke:black;fill:none;stroke-width:2.0;stroke-dasharray:-;stroke-linecap:round;stroke-linejoin:round;" /><path d="M 315.59999999999997,-128.40000000000003 L 315.59999999999997,-173.40000000000003 L 306.59999999999997,-176.4 L 324.59999999999997,-182.40000000000003 L 306.59999999999997,-188.40000000000003 L 324.59999999999997,-194.4 L 306.59999999999997,-200.40000000000003 L 324.59999999999997,-206.40000000000003 L 315.59999999999997,-209.40000000000003 L 315.59999999999997,-254.40000000000003" style="stroke:black;fill:none;stroke-width:2.0;stroke-dasharray:-;stroke-linecap:round;stroke-linejoin:round;" /><path d="M 315.59999999999997,-254.40000000000003 L 315.59999999999997,-289.2 L 315.59999999999997,-324.0" style="stroke:black;fill:none;stroke-width:2.0;stroke-dasharray:-;stroke-linecap:round;stroke-linejoin:round;" /><path d="M 315.59999999999997,-324.0 L 184.79999999999998,-324.0 L 54.0,-324.00000000000006" style="stroke:black;fill:none;stroke-width:2.0;stroke-dasharray:-;stroke-linecap:round;stroke-linejoin:round;" /><path d="M 315.59999999999997,-128.40000000000003 L 360.59999999999997,-128.40000000000003 L 405.59999999999997,-128.40000000000003" style="stroke:black;fill:none;stroke-width:2.0;stroke-dasharray:-;stroke-linecap:round;stroke-linejoin:round;" /><path d="M 405.59999999999997,-128.40000000000003 L 405.59999999999997,-71.70000000000003 M 414.59999999999997,-59.10000000000003 L 396.59999999999997,-59.10000000000003 M 405.59999999999997,-59.10000000000003 L 405.59999999999997,-2.4000000000000234" style="stroke:black;fill:none;stroke-width:2.0;stroke-dasharray:-;stroke-linecap:round;stroke-linejoin:round;" /><path d="M 405.59999999999997,-2.4000000000000234 L 405.5999999999999,248.39999999999998 L 405.5999999999999,499.20000000000005" style="stroke:black;fill:none;stroke-width:2.0;stroke-dasharray:-;stroke-linecap:round;stroke-linejoin:round;" /><path d="M 405.5999999999999,499.20000000000005 L 202.79999999999995,499.20000000000005 L 0.0,499.19999999999993" style="stroke:black;fill:none;stroke-width:2.0;stroke-dasharray:-;stroke-linecap:round;stroke-linejoin:round;" /><path d="M 315.6,-122.4 L 315.59999999999997,68.39999999999998 L 315.59999999999997,259.2" style="stroke:black;fill:none;stroke-width:2.0;stroke-dasharray:-;stroke-linecap:round;stroke-linejoin:round;" /><path d="M 315.59999999999997,259.2 L 157.79999999999998,259.19999999999993 L 0.0,259.19999999999993" style="stroke:black;fill:none;stroke-width:2.0;stroke-dasharray:-;stroke-linecap:round;stroke-linejoin:round;" /><path d="M 792.0,-684.0 L 774.0,-684.0 L 756.0,-684.0" style="stroke:black;fill:none;stroke-width:2.0;stroke-dasharray:-;stroke-linecap:round;stroke-linejoin:round;" /><path d="M 756.0,-684.0 L 711.0,-684.0 L 708.0,-675.0 L 702.0,-693.0 L 696.0,-675.0 L 690.0,-693.0 L 684.0,-675.0 L 678.0,-693.0 L 675.0,-684.0 L 630.0,-684.0" style="stroke:black;fill:none;stroke-width:2.0;stroke-dasharray:-;stroke-linecap:round;stroke-linejoin:round;" /><path d="M 630.0,-684.0 L 630.0,-666.0 L 630.0,-648.0" style="stroke:black;fill:none;stroke-width:2.0;stroke-dasharray:-;stroke-linecap:round;stroke-linejoin:round;" /><path d="M 630.0,-648.0 L 630.0,-588.24 M 639.0,-588.24 L 621.0,-588.24 M 639.0,-581.76 L 621.0,-581.76 M 630.0,-581.76 L 630.0,-522.0" style="stroke:black;fill:none;stroke-width:2.0;stroke-dasharray:-;stroke-linecap:round;stroke-linejoin:round;" /><path d="M 630.0,-522.0 L 630.0,-507.59999999999997 L 621.0,-507.59999999999997 L 639.0,-507.59999999999997 M 623.6999999999999,-503.28000000000003 L 636.3000000000001,-503.28000000000003 M 628.1999999999999,-498.96 L 631.8000000000001,-498.96" style="stroke:black;fill:none;stroke-width:2.0;stroke-dasharray:-;stroke-linecap:round;stroke-linejoin:round;" /><path d="M 630.0,-684.0 L 594.0,-684.0 L 558.0,-684.0" style="stroke:black;fill:none;stroke-width:2.0;stroke-dasharray:-;stroke-linecap:round;stroke-linejoin:round;" /><path d="M 558.0,-684.0 L 558.0,-675.0 L 558.0,-666.0" style="stroke:black;fill:none;stroke-width:2.0;stroke-dasharray:-;stroke-linecap:round;stroke-linejoin:round;" /><path d="M 558.0,-666.0 L 558.0,-606.24 M 567.0,-606.24 L 549.0,-606.24 M 567.0,-599.76 L 549.0,-599.76 M 558.0,-599.76 L 558.0,-540.0" style="stroke:black;fill:none;stroke-width:2.0;stroke-dasharray:-;stroke-linecap:round;stroke-linejoin:round;" /><path d="M 558.0,-540.0 L 558.0,-525.6 L 549.0,-525.6 L 567.0,-525.6 M 551.6999999999999,-521.28 L 564.3000000000001,-521.28 M 556.1999999999999,-516.96 L 559.8000000000001,-516.96" style="stroke:black;fill:none;stroke-width:2.0;stroke-dasharray:-;stroke-linecap:round;stroke-linejoin:round;" /><path d="M 396.0,-558.0 L 432.0,-558.0 L 468.0,-558.0" style="stroke:black;fill:none;stroke-width:2.0;stroke-dasharray:-;stroke-linecap:round;stroke-linejoin:round;" /><path d="M 396.0,-378.0 L 486.0,-378.0 L 576.0,-378.0" style="stroke:black;fill:none;stroke-width:2.0;stroke-dasharray:-;stroke-linecap:round;stroke-linejoin:round;" /><path d="M 468.0,-792.0 L 467.99999999999994,-360.0 L 467.9999999999999,72.0" style="stroke:red;fill:none;stroke-width:1.5;stroke-dasharray:7.4,3.2;stroke-linecap:round;stroke-linejoin:round;" /><text x="3.6" y="-881.6" dominant-baseline="central" fill="black" font-size="14" font-family="sans" text-anchor="start"><tspan x="3.6" dy="14">EnviraCOM USB Interface - Complete Schematic</tspan></text><text x="3.6" y="-841.6" dominant-baseline="central" fill="black" font-size="10" font-family="sans" text-anchor="start"><tspan x="3.6" dy="10">Direct USB connection to computer (no MCU required)</tspan></text><text x="3.6" y="-818.0" dominant-baseline="central" fill="gray" font-size="8" font-family="sans" text-anchor="start"><tspan x="3.6" dy="8">Caveat: a UART bridge cannot zero-cross-synchronize the 120bps bit stream in hardware; the host must</tspan></text><text x="3.6" y="-800.0" dominant-baseline="central" fill="gray" font-size="8" font-family="sans" text-anchor="start"><tspan x="3.6" dy="8">bit-bang TX via break/status lines, with USB latency jitter. Prefer the MCU version for transmitting.</tspan></text><text x="3.6" y="-770.6" dominant-baseline="central" fill="black" font-size="11" font-family="sans" text-anchor="start"><tspan x="3.6" dy="11">HVAC Bus (J1)</tspan></text><text x="111.60000000000001" y="-751.6" dominant-baseline="central" fill="black" font-size="10" font-family="sans" text-anchor="middle"><tspan x="111.60000000000001" dy="10">Zero-Crossing</tspan></text><text x="99.0" y="-702.8000000000001" dominant-baseline="ideographic" fill="black" font-size="8" font-family="sans" text-anchor="middle"><tspan x="99.0" dy="8">R1</tspan></text><text x="99.0" y="-681.1999999999999" dominant-baseline="hanging" fill="black" font-size="8" font-family="sans" text-anchor="middle"><tspan x="99.0" dy="8">4.7k</tspan></text><text x="172.79999999999998" y="-699.1999999999999" dominant-baseline="ideographic" fill="black" font-size="8" font-family="sans" text-anchor="middle"><tspan x="172.79999999999998" dy="8">U1</tspan></text><text x="172.79999999999995" y="-567.8000000000001" dominant-baseline="ideographic" fill="black" font-size="8" font-family="sans" text-anchor="middle"><tspan x="172.79999999999995" dy="8">R2</tspan></text><text x="172.79999999999993" y="-438.2" dominant-baseline="hanging" fill="black" font-size="8" font-family="sans" text-anchor="middle"><tspan x="172.79999999999993" dy="8">4.7k</tspan></text><text x="396.0" y="-697.4" dominant-baseline="ideographic" fill="black" font-size="8" font-family="sans" text-anchor="middle"><tspan x="396.0" dy="8">R3</tspan></text><text x="396.0" y="-560.6" dominant-baseline="hanging" fill="black" font-size="8" font-family="sans" text-anchor="middle"><tspan x="396.0" dy="8">10k</tspan></text><text x="111.60000000000001" y="-564.4" dominant-baseline="central" fill="black" font-size="10" font-family="sans" text-anchor="middle"><tspan x="111.60000000000001" dy="10">Data Receive</tspan></text><text x="99.0" y="-342.8" dominant-baseline="ideographic" fill="black" font-size="8" font-family="sans" text-anchor="middle"><tspan x="99.0" dy="8">R4</tspan></text><text x="99.0" y="-321.2" dominant-baseline="hanging" fill="black" font-size="8" font-family="sans" text-anchor="middle"><tspan x="99.0" dy="8">4.7k</tspan></text><text x="180.0" y="-337.40000000000003" dominant-baseline="ideographic" fill="black" font-size="8" font-family="sans" text-anchor="middle"><tspan x="180.0" dy="8">D1</tspan></text><text x="162.0" y="-319.40000000000003" dominant-baseline="ideographic" fill="black" font-size="8" font-family="sans" text-anchor="middle"><tspan x="162.0" dy="8">R5</tspan></text><text x="161.99999999999997" y="-182.6" dominant-baseline="hanging" fill="black" font-size="8" font-family="sans" text-anchor="middle"><tspan x="161.99999999999997" dy="8">1.2k</tspan></text><text x="297.0" y="-342.8" dominant-baseline="ideographic" fill="black" font-size="8" font-family="sans" text-anchor="middle"><tspan x="297.0" dy="8">R6</tspan></text><text x="297.0" y="-321.2" dominant-baseline="hanging" fill="black" font-size="8" font-family="sans" text-anchor="middle"><tspan x="297.0" dy="8">220</tspan></text><text x="370.8" y="-339.2" dominant-baseline="ideographic" fill="black" font-size="8" font-family="sans" text-anchor="middle"><tspan x="370.8" dy="8">U2</tspan></text><text x="396.0" y="-517.4000000000001" dominant-baseline="ideographic" fill="black" font-size="8" font-family="sans" text-anchor="middle"><tspan x="396.0" dy="8">R7</tspan></text><text x="396.0" y="-380.59999999999997" dominant-baseline="hanging" fill="black" font-size="8" font-family="sans" text-anchor="middle"><tspan x="396.0" dy="8">22k</tspan></text><text x="111.60000000000001" y="-276.40000000000003" dominant-baseline="central" fill="black" font-size="10" font-family="sans" text-anchor="middle"><tspan x="111.60000000000001" dy="10">Data Transmit</tspan></text><text x="594.0" y="-227.6" dominant-baseline="ideographic" fill="black" font-size="8" font-family="sans" text-anchor="middle"><tspan x="594.0" dy="8">R8</tspan></text><text x="594.0" y="-148.4" dominant-baseline="hanging" fill="black" font-size="8" font-family="sans" text-anchor="middle"><tspan x="594.0" dy="8">330</tspan></text><text x="594.0" y="-159.20000000000002" dominant-baseline="ideographic" fill="black" font-size="8" font-family="sans" text-anchor="middle"><tspan x="594.0" dy="8">U3</tspan></text><text x="432.0" y="-123.2" dominant-baseline="ideographic" fill="black" font-size="8" font-family="sans" text-anchor="middle"><tspan x="432.0" dy="8">R9</tspan></text><text x="432.0" y="17.200000000000006" dominant-baseline="hanging" fill="black" font-size="8" font-family="sans" text-anchor="middle"><tspan x="432.0" dy="8">100k</tspan></text><text x="304.08000000000004" y="-106.40000000000002" dominant-baseline="central" fill="black" font-size="8" font-family="sans" text-anchor="end"><tspan x="304.08000000000004" dy="8">Q1</tspan></text><text x="315.59999999999997" y="-129.20000000000002" dominant-baseline="hanging" fill="black" font-size="8" font-family="sans" text-anchor="middle"><tspan x="315.59999999999997" dy="8">R10</tspan></text><text x="315.59999999999997" y="-269.6" dominant-baseline="ideographic" fill="black" font-size="8" font-family="sans" text-anchor="middle"><tspan x="315.59999999999997" dy="8">22Ω</tspan></text><text x="405.59999999999997" y="-145.40000000000003" dominant-baseline="ideographic" fill="black" font-size="8" font-family="sans" text-anchor="middle"><tspan x="405.59999999999997" dy="8">D2</tspan></text><text x="644.4" y="-763.4" dominant-baseline="central" fill="black" font-size="11" font-family="sans" text-anchor="start"><tspan x="644.4" dy="11">USB (J2)</tspan></text><text x="572.4" y="-654.4" dominant-baseline="central" fill="black" font-size="10" font-family="sans" text-anchor="middle"><tspan x="572.4" dy="10">U4: CH340G</tspan></text><text x="693.0" y="-702.8000000000001" dominant-baseline="ideographic" fill="black" font-size="8" font-family="sans" text-anchor="middle"><tspan x="693.0" dy="8">F1</tspan></text><text x="693.0" y="-681.1999999999999" dominant-baseline="hanging" fill="black" font-size="8" font-family="sans" text-anchor="middle"><tspan x="693.0" dy="8">500mA</tspan></text><text x="630.0" y="-663.1999999999999" dominant-baseline="ideographic" fill="black" font-size="8" font-family="sans" text-anchor="middle"><tspan x="630.0" dy="8">C1</tspan></text><text x="630.0" y="-522.8000000000001" dominant-baseline="hanging" fill="black" font-size="8" font-family="sans" text-anchor="middle"><tspan x="630.0" dy="8">10µF</tspan></text><text x="558.0" y="-679.4" dominant-baseline="ideographic" fill="black" font-size="8" font-family="sans" text-anchor="middle"><tspan x="558.0" dy="8">C2</tspan></text><text x="558.0" y="-542.6" dominant-baseline="hanging" fill="black" font-size="8" font-family="sans" text-anchor="middle"><tspan x="558.0" dy="8">100nF</tspan></text><text x="471.59999999999997" y="84.60000000000001" dominant-baseline="central" fill="red" font-size="9" font-family="sans" text-anchor="middle"><tspan x="471.59999999999997" dy="9">ISOLATION BARRIER</tspan></text><circle cx="0.0" cy="-684.0" r="2.6999999999999997" style="stroke:black;fill:black;stroke-width:2.0;stroke-dasharray:-;" /><text x="-8.1" y="-693.0" dominant-baseline="central" fill="black" font-size="9" font-family="sans" text-anchor="end"><tspan x="-8.1" dy="9">1:R (24V)</tspan></text><circle cx="0.0" cy="-504.0" r="2.6999999999999997" style="stroke:black;fill:black;stroke-width:2.0;stroke-dasharray:-;" /><text x="-8.1" y="-513.0" dominant-baseline="central" fill="black" font-size="9" font-family="sans" text-anchor="end"><tspan x="-8.1" dy="9">2:C (COM)</tspan></text><circle cx="0.0" cy="-324.0" r="2.6999999999999997" style="stroke:black;fill:black;stroke-width:2.0;stroke-dasharray:-;" /><text x="-8.1" y="-333.0" dominant-baseline="central" fill="black" font-size="9" font-family="sans" text-anchor="end"><tspan x="-8.1" dy="9">3:D (DATA)</tspan></text><circle cx="396.0" cy="-684.0" r="2.6999999999999997" style="stroke:black;fill:black;stroke-width:2.0;stroke-dasharray:-;" /><text x="396.0" y="-699.3000000000001" dominant-baseline="ideographic" fill="black" font-size="9" font-family="sans" text-anchor="middle"><tspan x="396.0" dy="9">VCC</tspan></text><circle cx="396.0" cy="-558.0" r="2.6999999999999997" style="stroke:black;fill:black;stroke-width:2.0;stroke-dasharray:-;" /><circle cx="162.0" cy="-324.0" r="2.6999999999999997" style="stroke:black;fill:black;stroke-width:2.0;stroke-dasharray:-;" /><circle cx="396.0" cy="-504.0" r="2.6999999999999997" style="stroke:black;fill:black;stroke-width:2.0;stroke-dasharray:-;" /><text x="396.0" y="-519.3" dominant-baseline="ideographic" fill="black" font-size="9" font-family="sans" text-anchor="middle"><tspan x="396.0" dy="9">VCC</tspan></text><circle cx="396.0" cy="-378.0" r="2.6999999999999997" style="stroke:black;fill:black;stroke-width:2.0;stroke-dasharray:-;" /><circle cx="594.0" cy="-216.0" r="2.6999999999999997" style="stroke:black;fill:black;stroke-width:2.0;stroke-dasharray:-;" /><text x="594.0" y="-231.29999999999998" dominant-baseline="ideographic" fill="black" font-size="9" font-family="sans" text-anchor="middle"><tspan x="594.0" dy="9">VCC</tspan></text><circle cx="648.0" cy="-72.0" r="2.6999999999999997" style="stroke:black;fill:black;stroke-width:2.0;stroke-dasharray:-;" /><text x="656.1" y="-81.0" dominant-baseline="central" fill="black" font-size="9" font-family="sans" text-anchor="start"><tspan x="656.1" dy="9">CH340_TX</tspan></text><circle cx="432.0" cy="-144.0" r="2.6999999999999997" style="stroke:black;fill:black;stroke-width:2.0;stroke-dasharray:-;" /><text x="432.0" y="-159.29999999999998" dominant-baseline="ideographic" fill="black" font-size="9" font-family="sans" text-anchor="middle"><tspan x="432.0" dy="9">V_AC</tspan></text><circle cx="432.0" cy="18.0" r="2.6999999999999997" style="stroke:black;fill:black;stroke-width:2.0;stroke-dasharray:-;" /><text x="432.0" y="17.099999999999998" dominant-baseline="hanging" fill="black" font-size="9" font-family="sans" text-anchor="middle"><tspan x="432.0" dy="9">AC_COM</tspan></text><circle cx="792.0" cy="-684.0" r="2.6999999999999997" style="stroke:black;fill:black;stroke-width:2.0;stroke-dasharray:-;" /><text x="800.1" y="-693.0" dominant-baseline="central" fill="black" font-size="9" font-family="sans" text-anchor="start"><tspan x="800.1" dy="9">VBUS (5V)</tspan></text><circle cx="792.0" cy="-612.0" r="2.6999999999999997" style="stroke:black;fill:black;stroke-width:2.0;stroke-dasharray:-;" /><text x="800.1" y="-621.0" dominant-baseline="central" fill="black" font-size="9" font-family="sans" text-anchor="start"><tspan x="800.1" dy="9">D-</tspan></text><circle cx="792.0" cy="-540.0" r="2.6999999999999997" style="stroke:black;fill:black;stroke-width:2.0;stroke-dasharray:-;" /><text x="800.1" y="-549.0" dominant-baseline="central" fill="black" font-size="9" font-family="sans" text-anchor="start"><tspan x="800.1" dy="9">D+</tspan></text><circle cx="792.0" cy="-468.0" r="2.6999999999999997" style="stroke:black;fill:black;stroke-width:2.0;stroke-dasharray:-;" /><text x="800.1" y="-477.0" dominant-baseline="central" fill="black" font-size="9" font-family="sans" text-anchor="start"><tspan x="800.1" dy="9">GND</tspan></text><circle cx="630.0" cy="-684.0" r="2.6999999999999997" style="stroke:black;fill:black;stroke-width:2.0;stroke-dasharray:-;" /><circle cx="558.0" cy="-684.0" r="2.6999999999999997" style="stroke:black;fill:black;stroke-width:2.0;stroke-dasharray:-;" /><text x="558.0" y="-699.3000000000001" dominant-baseline="ideographic" fill="black" font-size="9" font-family="sans" text-anchor="middle"><tspan x="558.0" dy="9">VCC</tspan></text><circle cx="468.0" cy="-558.0" r="2.6999999999999997" style="stroke:black;fill:black;stroke-width:2.0;stroke-dasharray:-;" /><text x="468.0" y="-572.3000000000001" dominant-baseline="ideographic" fill="black" font-size="8" font-family="sans" text-anchor="middle"><tspan x="468.0" dy="8">CH340_CTS</tspan></text><circle cx="576.0" cy="-378.0" r="2.6999999999999997" style="stroke:black;fill:black;stroke-width:2.0;stroke-dasharray:-;" /><text x="584.1" y="-387.0" dominant-baseline="central" fill="black" font-size="9" font-family="sans" text-anchor="start"><tspan x="584.1" dy="9">CH340_RX</tspan></text></svg>