<?xml version="1.0" encoding="utf-8" standalone="no"?>
<!DOCTYPE svg PUBLIC "-//W3C//DTD SVG 1.1//EN"
  "http://www.w3.org/Graphics/SVG/1.1/DTD/svg11.dtd">
<svg xmlns:xlink="http://www.w3.org/1999/xlink" width="688.956pt" height="999.56pt" viewBox="0 0 688.956 999.56" xmlns="http://www.w3.org/2000/svg" version="1.1">
 <metadata>
  <rdf:RDF xmlns:dc="http://purl.org/dc/elements/1.1/" xmlns:cc="http://creativecommons.org/ns#" xmlns:rdf="http://www.w3.org/1999/02/22-rdf-syntax-ns#">
   <cc:Work>
    <dc:type rdf:resource="http://purl.org/dc/dcmitype/StillImage"/>
    <dc:date>2026-07-05T10:23:18.694849</dc:date>
    <dc:format>image/svg+xml</dc:format>
    <dc:creator>
     <cc:Agent>
      <dc:title>Matplotlib v3.11.0, https://matplotlib.org/</dc:title>
     </cc:Agent>
    </dc:creator>
   </cc:Work>
  </rdf:RDF>
 </metadata>
 <defs>
  <style type="text/css">*{stroke-linejoin: round; stroke-linecap: butt}</style>
 </defs>
 <g id="figure_1">
  <g id="patch_1">
   <path d="M 0 999.56 
L 688.956 999.56 
L 688.956 0 
L 0 0 
L 0 999.56 
z
" style="fill: none"/>
  </g>
  <g id="axes_1">
   <g id="patch_2">
    <path d="M 240.21 233.98 
L 231.21 246.58 
L 222.21 233.98 
L 240.21 233.98 
z
" clip-path="url(#pfe3d09bc4b)" style="fill: none; stroke: #000000; stroke-width: 2; stroke-linecap: round"/>
   </g>
   <g id="patch_3">
    <path d="M 452.346 367.312 
C 456.546817 367.312 460.576145 365.642998 463.546571 362.672571 
C 466.516998 359.702145 468.186 355.672817 468.186 351.472 
C 468.186 347.271183 466.516998 343.241855 463.546571 340.271429 
C 460.576145 337.301002 456.546817 335.632 452.346 335.632 
C 448.145183 335.632 444.115855 337.301002 441.145429 340.271429 
C 438.175002 343.241855 436.506 347.271183 436.506 351.472 
C 436.506 355.672817 438.175002 359.702145 441.145429 362.672571 
C 444.115855 365.642998 448.145183 367.312 452.346 367.312 
L 452.346 367.312 
z
" clip-path="url(#pfe3d09bc4b)" style="fill: none; stroke: #000000; stroke-width: 2; stroke-linejoin: miter"/>
   </g>
   <g id="patch_4">
    <path d="M 229.41 624.58 
L 238.41 611.98 
L 247.41 624.58 
L 229.41 624.58 
z
" clip-path="url(#pfe3d09bc4b)" style="fill: none; stroke: #000000; stroke-width: 2; stroke-linecap: round"/>
   </g>
   <g id="patch_5">
    <path d="M 402.21 611.98 
L 393.21 624.58 
L 384.21 611.98 
L 402.21 611.98 
z
" clip-path="url(#pfe3d09bc4b)" style="fill: none; stroke: #000000; stroke-width: 2; stroke-linecap: round"/>
   </g>
   <g id="patch_6">
    <path d="M 524.346 547.312 
C 528.546817 547.312 532.576145 545.642998 535.546571 542.672571 
C 538.516998 539.702145 540.186 535.672817 540.186 531.472 
C 540.186 527.271183 538.516998 523.241855 535.546571 520.271429 
C 532.576145 517.301002 528.546817 515.632 524.346 515.632 
C 520.145183 515.632 516.115855 517.301002 513.145429 520.271429 
C 510.175002 523.241855 508.506 527.271183 508.506 531.472 
C 508.506 535.672817 510.175002 539.702145 513.145429 542.672571 
C 516.115855 545.642998 520.145183 547.312 524.346 547.312 
L 524.346 547.312 
z
" clip-path="url(#pfe3d09bc4b)" style="fill: none; stroke: #000000; stroke-width: 2; stroke-linejoin: miter"/>
   </g>
   <g id="patch_7">
    <path d="M 445.41 804.58 
L 454.41 791.98 
L 463.41 804.58 
L 445.41 804.58 
z
" clip-path="url(#pfe3d09bc4b)" style="fill: none; stroke: #000000; stroke-width: 2; stroke-linecap: round"/>
   </g>
   <g id="patch_8">
    <path d="M 398.346 781.312 
C 402.546817 781.312 406.576145 779.642998 409.546571 776.672571 
C 412.516998 773.702145 414.186 769.672817 414.186 765.472 
C 414.186 761.271183 412.516998 757.241855 409.546571 754.271429 
C 406.576145 751.301002 402.546817 749.632 398.346 749.632 
C 394.145183 749.632 390.115855 751.301002 387.145429 754.271429 
C 384.175002 757.241855 382.506 761.271183 382.506 765.472 
C 382.506 769.672817 384.175002 773.702145 387.145429 776.672571 
C 390.115855 779.642998 394.145183 781.312 398.346 781.312 
L 398.346 781.312 
z
" clip-path="url(#pfe3d09bc4b)" style="fill: none; stroke: #000000; stroke-width: 2; stroke-linejoin: miter"/>
   </g>
   <g id="patch_9">
    <path d="M 383.01 807.58 
L 374.01 820.18 
L 365.01 807.58 
L 383.01 807.58 
z
" clip-path="url(#pfe3d09bc4b)" style="fill: none; stroke: #000000; stroke-width: 2; stroke-linecap: round"/>
   </g>
   <g id="line2d_1">
    <path d="M 58.41 195.28 
L 76.41 195.28 
L 94.41 195.28 
" clip-path="url(#pfe3d09bc4b)" style="fill: none; stroke: #000000; stroke-width: 2; stroke-linecap: round"/>
   </g>
   <g id="line2d_2">
    <path d="M 94.41 195.28 
L 139.41 195.28 
L 142.41 186.28 
L 148.41 204.28 
L 154.41 186.28 
L 160.41 204.28 
L 166.41 186.28 
L 172.41 204.28 
L 175.41 195.28 
L 220.41 195.28 
" clip-path="url(#pfe3d09bc4b)" style="fill: none; stroke: #000000; stroke-width: 2; stroke-linecap: round"/>
   </g>
   <g id="line2d_3">
    <path d="M 220.41 195.28 
L 225.81 195.28 
L 231.21 195.28 
" clip-path="url(#pfe3d09bc4b)" style="fill: none; stroke: #000000; stroke-width: 2; stroke-linecap: round"/>
   </g>
   <g id="line2d_4">
    <path d="M 231.21 195.28 
L 231.21 233.98 
M 240.21 246.58 
L 222.21 246.58 
M 231.21 246.58 
L 231.21 285.28 
" clip-path="url(#pfe3d09bc4b)" style="fill: none; stroke: #000000; stroke-width: 2; stroke-linecap: round"/>
   </g>
   <g id="line2d_5">
    <path d="M 231.21 285.28 
L 231.21 312.28 
L 240.21 315.28 
L 222.21 321.28 
L 240.21 327.28 
L 222.21 333.28 
L 240.21 339.28 
L 222.21 345.28 
L 231.21 348.28 
L 231.21 375.28 
" clip-path="url(#pfe3d09bc4b)" style="fill: none; stroke: #000000; stroke-width: 2; stroke-linecap: round"/>
   </g>
   <g id="line2d_6">
    <path d="M 231.21 375.28 
L 144.81 375.28 
L 58.41 375.28 
" clip-path="url(#pfe3d09bc4b)" style="fill: none; stroke: #000000; stroke-width: 2; stroke-linecap: round"/>
   </g>
   <g id="line2d_7">
    <path d="M 472.41 195.28 
L 472.41 240.28 
L 481.41 243.28 
L 463.41 249.28 
L 481.41 255.28 
L 463.41 261.28 
L 481.41 267.28 
L 463.41 273.28 
L 472.41 276.28 
L 472.41 321.28 
" clip-path="url(#pfe3d09bc4b)" style="fill: none; stroke: #000000; stroke-width: 2; stroke-linecap: round"/>
   </g>
   <g id="line2d_8">
    <path d="M 472.41 321.28 
L 472.41 339.28 
L 472.41 357.28 
" clip-path="url(#pfe3d09bc4b)" style="fill: none; stroke: #000000; stroke-width: 2; stroke-linecap: round"/>
   </g>
   <g id="line2d_9">
    <path d="M 452.346 335.632 
L 452.346 346.192 
" clip-path="url(#pfe3d09bc4b)" style="fill: none; stroke: #000000; stroke-width: 2; stroke-linecap: round"/>
   </g>
   <g id="line2d_10">
    <path d="M 462.906 346.192 
L 441.786 346.192 
" clip-path="url(#pfe3d09bc4b)" style="fill: none; stroke: #000000; stroke-width: 2; stroke-linecap: round"/>
   </g>
   <g id="line2d_11">
    <path d="M 457.626 346.192 
L 467.13 357.28 
L 472.41 357.28 
" clip-path="url(#pfe3d09bc4b)" style="fill: none; stroke: #000000; stroke-width: 2; stroke-linecap: round"/>
   </g>
   <g id="line2d_12">
    <path d="M 447.066 346.192 
L 437.562 357.28 
L 432.282 357.28 
" clip-path="url(#pfe3d09bc4b)" style="fill: none; stroke: #000000; stroke-width: 2; stroke-linecap: round"/>
   </g>
   <g id="line2d_13">
    <path d="M 447.066 346.192 
L 443.419122 350.446691 
" clip-path="url(#pfe3d09bc4b)" style="fill: none; stroke: #000000; stroke-width: 2; stroke-linecap: round"/>
   </g>
   <g id="patch_10">
    <path d="M 446.152446 352.78954 
L 437.562 357.28 
L 440.685799 348.103842 
z
" clip-path="url(#pfe3d09bc4b)"/>
   </g>
   <g id="line2d_14">
    <path d="M 472.41 357.28 
L 472.41 371.68 
L 463.41 371.68 
L 481.41 371.68 
M 466.11 376 
L 478.71 376 
M 470.61 380.32 
L 474.21 380.32 
" clip-path="url(#pfe3d09bc4b)" style="fill: none; stroke: #000000; stroke-width: 2; stroke-linecap: round"/>
   </g>
   <g id="line2d_15">
    <path d="M 58.41 555.28 
L 76.41 555.28 
L 94.41 555.28 
" clip-path="url(#pfe3d09bc4b)" style="fill: none; stroke: #000000; stroke-width: 2; stroke-linecap: round"/>
   </g>
   <g id="line2d_16">
    <path d="M 94.41 555.28 
L 139.41 555.28 
L 142.41 546.28 
L 148.41 564.28 
L 154.41 546.28 
L 160.41 564.28 
L 166.41 546.28 
L 172.41 564.28 
L 175.41 555.28 
L 220.41 555.28 
" clip-path="url(#pfe3d09bc4b)" style="fill: none; stroke: #000000; stroke-width: 2; stroke-linecap: round"/>
   </g>
   <g id="line2d_17">
    <path d="M 220.41 555.28 
L 229.41 555.28 
L 238.41 555.28 
" clip-path="url(#pfe3d09bc4b)" style="fill: none; stroke: #000000; stroke-width: 2; stroke-linecap: round"/>
   </g>
   <g id="line2d_18">
    <path d="M 238.41 555.28 
L 238.41 611.98 
M 229.41 611.98 
L 247.41 611.98 
M 238.41 624.58 
L 238.41 681.28 
" clip-path="url(#pfe3d09bc4b)" style="fill: none; stroke: #000000; stroke-width: 2; stroke-linecap: round"/>
   </g>
   <g id="line2d_19">
    <path d="M 251.01 608.38 
L 247.41 611.98 
" clip-path="url(#pfe3d09bc4b)" style="fill: none; stroke: #000000; stroke-width: 2; stroke-linecap: round"/>
   </g>
   <g id="line2d_20">
    <path d="M 225.81 615.58 
L 229.41 611.98 
" clip-path="url(#pfe3d09bc4b)" style="fill: none; stroke: #000000; stroke-width: 2; stroke-linecap: round"/>
   </g>
   <g id="line2d_21">
    <path d="M 220.41 555.28 
L 220.41 564.28 
L 220.41 573.28 
" clip-path="url(#pfe3d09bc4b)" style="fill: none; stroke: #000000; stroke-width: 2; stroke-linecap: round"/>
   </g>
   <g id="line2d_22">
    <path d="M 220.41 573.28 
L 220.41 618.28 
L 229.41 621.28 
L 211.41 627.28 
L 229.41 633.28 
L 211.41 639.28 
L 229.41 645.28 
L 211.41 651.28 
L 220.41 654.28 
L 220.41 699.28 
" clip-path="url(#pfe3d09bc4b)" style="fill: none; stroke: #000000; stroke-width: 2; stroke-linecap: round"/>
   </g>
   <g id="line2d_23">
    <path d="M 220.41 555.28 
L 238.41 555.28 
L 256.41 555.28 
" clip-path="url(#pfe3d09bc4b)" style="fill: none; stroke: #000000; stroke-width: 2; stroke-linecap: round"/>
   </g>
   <g id="line2d_24">
    <path d="M 256.41 555.28 
L 301.41 555.28 
L 304.41 546.28 
L 310.41 564.28 
L 316.41 546.28 
L 322.41 564.28 
L 328.41 546.28 
L 334.41 564.28 
L 337.41 555.28 
L 382.41 555.28 
" clip-path="url(#pfe3d09bc4b)" style="fill: none; stroke: #000000; stroke-width: 2; stroke-linecap: round"/>
   </g>
   <g id="line2d_25">
    <path d="M 382.41 555.28 
L 387.81 555.28 
L 393.21 555.28 
" clip-path="url(#pfe3d09bc4b)" style="fill: none; stroke: #000000; stroke-width: 2; stroke-linecap: round"/>
   </g>
   <g id="line2d_26">
    <path d="M 393.21 555.28 
L 393.21 611.98 
M 402.21 624.58 
L 384.21 624.58 
M 393.21 624.58 
L 393.21 681.28 
" clip-path="url(#pfe3d09bc4b)" style="fill: none; stroke: #000000; stroke-width: 2; stroke-linecap: round"/>
   </g>
   <g id="line2d_27">
    <path d="M 544.41 375.28 
L 544.41 420.28 
L 553.41 423.28 
L 535.41 429.28 
L 553.41 435.28 
L 535.41 441.28 
L 553.41 447.28 
L 535.41 453.28 
L 544.41 456.28 
L 544.41 501.28 
" clip-path="url(#pfe3d09bc4b)" style="fill: none; stroke: #000000; stroke-width: 2; stroke-linecap: round"/>
   </g>
   <g id="line2d_28">
    <path d="M 544.41 501.28 
L 544.41 519.28 
L 544.41 537.28 
" clip-path="url(#pfe3d09bc4b)" style="fill: none; stroke: #000000; stroke-width: 2; stroke-linecap: round"/>
   </g>
   <g id="line2d_29">
    <path d="M 524.346 515.632 
L 524.346 526.192 
" clip-path="url(#pfe3d09bc4b)" style="fill: none; stroke: #000000; stroke-width: 2; stroke-linecap: round"/>
   </g>
   <g id="line2d_30">
    <path d="M 534.906 526.192 
L 513.786 526.192 
" clip-path="url(#pfe3d09bc4b)" style="fill: none; stroke: #000000; stroke-width: 2; stroke-linecap: round"/>
   </g>
   <g id="line2d_31">
    <path d="M 529.626 526.192 
L 539.13 537.28 
L 544.41 537.28 
" clip-path="url(#pfe3d09bc4b)" style="fill: none; stroke: #000000; stroke-width: 2; stroke-linecap: round"/>
   </g>
   <g id="line2d_32">
    <path d="M 519.066 526.192 
L 509.562 537.28 
L 504.282 537.28 
" clip-path="url(#pfe3d09bc4b)" style="fill: none; stroke: #000000; stroke-width: 2; stroke-linecap: round"/>
   </g>
   <g id="line2d_33">
    <path d="M 519.066 526.192 
L 515.419122 530.446691 
" clip-path="url(#pfe3d09bc4b)" style="fill: none; stroke: #000000; stroke-width: 2; stroke-linecap: round"/>
   </g>
   <g id="patch_11">
    <path d="M 518.152446 532.78954 
L 509.562 537.28 
L 512.685799 528.103842 
z
" clip-path="url(#pfe3d09bc4b)"/>
   </g>
   <g id="line2d_34">
    <path d="M 544.41 537.28 
L 544.41 551.68 
L 535.41 551.68 
L 553.41 551.68 
M 538.11 556 
L 550.71 556 
M 542.61 560.32 
L 546.21 560.32 
" clip-path="url(#pfe3d09bc4b)" style="fill: none; stroke: #000000; stroke-width: 2; stroke-linecap: round"/>
   </g>
   <g id="line2d_35">
    <path d="M 634.41 735.28 
L 616.41 735.28 
L 598.41 735.28 
" clip-path="url(#pfe3d09bc4b)" style="fill: none; stroke: #000000; stroke-width: 2; stroke-linecap: round"/>
   </g>
   <g id="line2d_36">
    <path d="M 598.41 735.28 
L 553.41 735.28 
L 550.41 744.28 
L 544.41 726.28 
L 538.41 744.28 
L 532.41 726.28 
L 526.41 744.28 
L 520.41 726.28 
L 517.41 735.28 
L 472.41 735.28 
" clip-path="url(#pfe3d09bc4b)" style="fill: none; stroke: #000000; stroke-width: 2; stroke-linecap: round"/>
   </g>
   <g id="line2d_37">
    <path d="M 472.41 735.28 
L 463.41 735.28 
L 454.41 735.28 
" clip-path="url(#pfe3d09bc4b)" style="fill: none; stroke: #000000; stroke-width: 2; stroke-linecap: round"/>
   </g>
   <g id="line2d_38">
    <path d="M 454.41 735.28 
L 454.41 791.98 
M 445.41 791.98 
L 463.41 791.98 
M 454.41 804.58 
L 454.41 861.28 
" clip-path="url(#pfe3d09bc4b)" style="fill: none; stroke: #000000; stroke-width: 2; stroke-linecap: round"/>
   </g>
   <g id="line2d_39">
    <path d="M 454.41 861.28 
L 454.41 875.68 
L 445.41 875.68 
L 463.41 875.68 
M 448.11 880 
L 460.71 880 
M 452.61 884.32 
L 456.21 884.32 
" clip-path="url(#pfe3d09bc4b)" style="fill: none; stroke: #000000; stroke-width: 2; stroke-linecap: round"/>
   </g>
   <g id="line2d_40">
    <path d="M 418.41 735.28 
L 418.41 753.28 
L 418.41 771.28 
" clip-path="url(#pfe3d09bc4b)" style="fill: none; stroke: #000000; stroke-width: 2; stroke-linecap: round"/>
   </g>
   <g id="line2d_41">
    <path d="M 398.346 749.632 
L 398.346 760.192 
" clip-path="url(#pfe3d09bc4b)" style="fill: none; stroke: #000000; stroke-width: 2; stroke-linecap: round"/>
   </g>
   <g id="line2d_42">
    <path d="M 408.906 760.192 
L 387.786 760.192 
" clip-path="url(#pfe3d09bc4b)" style="fill: none; stroke: #000000; stroke-width: 2; stroke-linecap: round"/>
   </g>
   <g id="line2d_43">
    <path d="M 403.626 760.192 
L 413.13 771.28 
L 418.41 771.28 
" clip-path="url(#pfe3d09bc4b)" style="fill: none; stroke: #000000; stroke-width: 2; stroke-linecap: round"/>
   </g>
   <g id="line2d_44">
    <path d="M 393.066 760.192 
L 383.562 771.28 
L 378.282 771.28 
" clip-path="url(#pfe3d09bc4b)" style="fill: none; stroke: #000000; stroke-width: 2; stroke-linecap: round"/>
   </g>
   <g id="line2d_45">
    <path d="M 393.066 760.192 
L 389.419122 764.446691 
" clip-path="url(#pfe3d09bc4b)" style="fill: none; stroke: #000000; stroke-width: 2; stroke-linecap: round"/>
   </g>
   <g id="patch_12">
    <path d="M 392.152446 766.78954 
L 383.562 771.28 
L 386.685799 762.103842 
z
" clip-path="url(#pfe3d09bc4b)"/>
   </g>
   <g id="line2d_46">
    <path d="M 418.41 771.28 
L 418.41 816.28 
L 427.41 819.28 
L 409.41 825.28 
L 427.41 831.28 
L 409.41 837.28 
L 427.41 843.28 
L 409.41 849.28 
L 418.41 852.28 
L 418.41 897.28 
" clip-path="url(#pfe3d09bc4b)" style="fill: none; stroke: #000000; stroke-width: 2; stroke-linecap: round"/>
   </g>
   <g id="line2d_47">
    <path d="M 418.41 771.28 
L 373.41 771.28 
L 328.41 771.28 
" clip-path="url(#pfe3d09bc4b)" style="fill: none; stroke: #000000; stroke-width: 2; stroke-linecap: round"/>
   </g>
   <g id="line2d_48">
    <path d="M 302.01 756.88 
L 302.01 768.88 
L 314.01 768.88 
L 314.01 792.88 
L 302.01 792.88 
L 302.01 804.88 
" clip-path="url(#pfe3d09bc4b)" style="fill: none; stroke: #000000; stroke-width: 2; stroke-linecap: round"/>
   </g>
   <g id="line2d_49">
    <path d="M 316.41 771.28 
L 316.41 790.48 
" clip-path="url(#pfe3d09bc4b)" style="fill: none; stroke: #000000; stroke-width: 2; stroke-linecap: round"/>
   </g>
   <g id="line2d_50">
    <path d="M 328.41 771.28 
L 316.41 771.28 
" clip-path="url(#pfe3d09bc4b)" style="fill: none; stroke: #000000; stroke-width: 2; stroke-linecap: round"/>
   </g>
   <g id="line2d_51">
    <path d="M 305.01 780.88 
L 302.01 780.88 
" clip-path="url(#pfe3d09bc4b)" style="fill: none; stroke: #000000; stroke-width: 2; stroke-linecap: round"/>
   </g>
   <g id="patch_13">
    <path d="M 305.01 776.38 
L 314.01 780.88 
L 305.01 785.38 
z
" clip-path="url(#pfe3d09bc4b)"/>
   </g>
   <g id="line2d_52">
    <path d="M 302.01 804.88 
L 302.01 777.88 
L 302.01 750.88 
" clip-path="url(#pfe3d09bc4b)" style="fill: none; stroke: #000000; stroke-width: 2; stroke-linecap: round"/>
   </g>
   <g id="line2d_53">
    <path d="M 302.01 750.88 
L 302.01 705.88 
L 293.01 702.88 
L 311.01 696.88 
L 293.01 690.88 
L 311.01 684.88 
L 293.01 678.88 
L 311.01 672.88 
L 302.01 669.88 
L 302.01 624.88 
" clip-path="url(#pfe3d09bc4b)" style="fill: none; stroke: #000000; stroke-width: 2; stroke-linecap: round"/>
   </g>
   <g id="line2d_54">
    <path d="M 302.01 624.88 
L 302.01 590.08 
L 302.01 555.28 
" clip-path="url(#pfe3d09bc4b)" style="fill: none; stroke: #000000; stroke-width: 2; stroke-linecap: round"/>
   </g>
   <g id="line2d_55">
    <path d="M 302.01 555.28 
L 207.21 555.28 
L 112.41 555.28 
" clip-path="url(#pfe3d09bc4b)" style="fill: none; stroke: #000000; stroke-width: 2; stroke-linecap: round"/>
   </g>
   <g id="line2d_56">
    <path d="M 302.01 750.88 
L 338.01 750.88 
L 374.01 750.88 
" clip-path="url(#pfe3d09bc4b)" style="fill: none; stroke: #000000; stroke-width: 2; stroke-linecap: round"/>
   </g>
   <g id="line2d_57">
    <path d="M 374.01 750.88 
L 374.01 807.58 
M 383.01 820.18 
L 365.01 820.18 
M 374.01 820.18 
L 374.01 876.88 
" clip-path="url(#pfe3d09bc4b)" style="fill: none; stroke: #000000; stroke-width: 2; stroke-linecap: round"/>
   </g>
   <g id="line2d_58">
    <path d="M 302.01 756.88 
L 302.01 774.88 
L 302.01 792.88 
" clip-path="url(#pfe3d09bc4b)" style="fill: none; stroke: #000000; stroke-width: 2; stroke-linecap: round"/>
   </g>
   <g id="line2d_59">
    <path d="M 472.41 321.28 
L 553.41 321.28 
L 634.41 321.28 
" clip-path="url(#pfe3d09bc4b)" style="fill: none; stroke: #000000; stroke-width: 2; stroke-linecap: round"/>
   </g>
   <g id="line2d_60">
    <path d="M 544.41 501.28 
L 589.41 501.28 
L 634.41 501.28 
" clip-path="url(#pfe3d09bc4b)" style="fill: none; stroke: #000000; stroke-width: 2; stroke-linecap: round"/>
   </g>
   <g id="line2d_61">
    <path d="M 436.41 87.28 
L 436.41 483.28 
L 436.41 879.28 
" clip-path="url(#pfe3d09bc4b)" style="fill: none; stroke-dasharray: 5.55,2.4; stroke-dashoffset: 0; stroke: #ff0000; stroke-width: 1.5"/>
   </g>
   <g id="text_1">
    <!-- EnviraCOM Interface - Complete Schematic -->
    <g transform="translate(62.01 15.543125) scale(0.14 -0.14)">
     <defs>
      <path id="DejaVuSans-28" d="M 628 4666 
L 3578 4666 
L 3578 4134 
L 1259 4134 
L 1259 2753 
L 3481 2753 
L 3481 2222 
L 1259 2222 
L 1259 531 
L 3634 531 
L 3634 0 
L 628 0 
L 628 4666 
z
" transform="scale(0.015625)"/>
      <path id="DejaVuSans-51" d="M 3513 2113 
L 3513 0 
L 2938 0 
L 2938 2094 
Q 2938 2591 2744 2837 
Q 2550 3084 2163 3084 
Q 1697 3084 1428 2787 
Q 1159 2491 1159 1978 
L 1159 0 
L 581 0 
L 581 3500 
L 1159 3500 
L 1159 2956 
Q 1366 3272 1645 3428 
Q 1925 3584 2291 3584 
Q 2894 3584 3203 3211 
Q 3513 2838 3513 2113 
z
" transform="scale(0.015625)"/>
      <path id="DejaVuSans-59" d="M 191 3500 
L 800 3500 
L 1894 563 
L 2988 3500 
L 3597 3500 
L 2284 0 
L 1503 0 
L 191 3500 
z
" transform="scale(0.015625)"/>
      <path id="DejaVuSans-4c" d="M 603 3500 
L 1178 3500 
L 1178 0 
L 603 0 
L 603 3500 
z
M 603 4863 
L 1178 4863 
L 1178 4134 
L 603 4134 
L 603 4863 
z
" transform="scale(0.015625)"/>
      <path id="DejaVuSans-55" d="M 2631 2963 
Q 2534 3019 2420 3045 
Q 2306 3072 2169 3072 
Q 1681 3072 1420 2755 
Q 1159 2438 1159 1844 
L 1159 0 
L 581 0 
L 581 3500 
L 1159 3500 
L 1159 2956 
Q 1341 3275 1631 3429 
Q 1922 3584 2338 3584 
Q 2397 3584 2469 3576 
Q 2541 3569 2628 3553 
L 2631 2963 
z
" transform="scale(0.015625)"/>
      <path id="DejaVuSans-44" d="M 2194 1759 
Q 1497 1759 1228 1600 
Q 959 1441 959 1056 
Q 959 750 1161 570 
Q 1363 391 1709 391 
Q 2188 391 2477 730 
Q 2766 1069 2766 1631 
L 2766 1759 
L 2194 1759 
z
M 3341 1997 
L 3341 0 
L 2766 0 
L 2766 531 
Q 2569 213 2275 61 
Q 1981 -91 1556 -91 
Q 1019 -91 701 211 
Q 384 513 384 1019 
Q 384 1609 779 1909 
Q 1175 2209 1959 2209 
L 2766 2209 
L 2766 2266 
Q 2766 2663 2505 2880 
Q 2244 3097 1772 3097 
Q 1472 3097 1187 3025 
Q 903 2953 641 2809 
L 641 3341 
Q 956 3463 1253 3523 
Q 1550 3584 1831 3584 
Q 2591 3584 2966 3190 
Q 3341 2797 3341 1997 
z
" transform="scale(0.015625)"/>
      <path id="DejaVuSans-26" d="M 4122 4306 
L 4122 3641 
Q 3803 3938 3442 4084 
Q 3081 4231 2675 4231 
Q 1875 4231 1450 3742 
Q 1025 3253 1025 2328 
Q 1025 1406 1450 917 
Q 1875 428 2675 428 
Q 3081 428 3442 575 
Q 3803 722 4122 1019 
L 4122 359 
Q 3791 134 3420 21 
Q 3050 -91 2638 -91 
Q 1578 -91 968 557 
Q 359 1206 359 2328 
Q 359 3453 968 4101 
Q 1578 4750 2638 4750 
Q 3056 4750 3426 4639 
Q 3797 4528 4122 4306 
z
" transform="scale(0.015625)"/>
      <path id="DejaVuSans-32" d="M 2522 4238 
Q 1834 4238 1429 3725 
Q 1025 3213 1025 2328 
Q 1025 1447 1429 934 
Q 1834 422 2522 422 
Q 3209 422 3611 934 
Q 4013 1447 4013 2328 
Q 4013 3213 3611 3725 
Q 3209 4238 2522 4238 
z
M 2522 4750 
Q 3503 4750 4090 4092 
Q 4678 3434 4678 2328 
Q 4678 1225 4090 567 
Q 3503 -91 2522 -91 
Q 1538 -91 948 565 
Q 359 1222 359 2328 
Q 359 3434 948 4092 
Q 1538 4750 2522 4750 
z
" transform="scale(0.015625)"/>
      <path id="DejaVuSans-30" d="M 628 4666 
L 1569 4666 
L 2759 1491 
L 3956 4666 
L 4897 4666 
L 4897 0 
L 4281 0 
L 4281 4097 
L 3078 897 
L 2444 897 
L 1241 4097 
L 1241 0 
L 628 0 
L 628 4666 
z
" transform="scale(0.015625)"/>
      <path id="DejaVuSans-3" transform="scale(0.015625)"/>
      <path id="DejaVuSans-2c" d="M 628 4666 
L 1259 4666 
L 1259 0 
L 628 0 
L 628 4666 
z
" transform="scale(0.015625)"/>
      <path id="DejaVuSans-57" d="M 1172 4494 
L 1172 3500 
L 2356 3500 
L 2356 3053 
L 1172 3053 
L 1172 1153 
Q 1172 725 1289 603 
Q 1406 481 1766 481 
L 2356 481 
L 2356 0 
L 1766 0 
Q 1100 0 847 248 
Q 594 497 594 1153 
L 594 3053 
L 172 3053 
L 172 3500 
L 594 3500 
L 594 4494 
L 1172 4494 
z
" transform="scale(0.015625)"/>
      <path id="DejaVuSans-48" d="M 3597 1894 
L 3597 1613 
L 953 1613 
Q 991 1019 1311 708 
Q 1631 397 2203 397 
Q 2534 397 2845 478 
Q 3156 559 3463 722 
L 3463 178 
Q 3153 47 2828 -22 
Q 2503 -91 2169 -91 
Q 1331 -91 842 396 
Q 353 884 353 1716 
Q 353 2575 817 3079 
Q 1281 3584 2069 3584 
Q 2775 3584 3186 3129 
Q 3597 2675 3597 1894 
z
M 3022 2063 
Q 3016 2534 2758 2815 
Q 2500 3097 2075 3097 
Q 1594 3097 1305 2825 
Q 1016 2553 972 2059 
L 3022 2063 
z
" transform="scale(0.015625)"/>
      <path id="DejaVuSans-49" d="M 2375 4863 
L 2375 4384 
L 1825 4384 
Q 1516 4384 1395 4259 
Q 1275 4134 1275 3809 
L 1275 3500 
L 2222 3500 
L 2222 3053 
L 1275 3053 
L 1275 0 
L 697 0 
L 697 3053 
L 147 3053 
L 147 3500 
L 697 3500 
L 697 3744 
Q 697 4328 969 4595 
Q 1241 4863 1831 4863 
L 2375 4863 
z
" transform="scale(0.015625)"/>
      <path id="DejaVuSans-46" d="M 3122 3366 
L 3122 2828 
Q 2878 2963 2633 3030 
Q 2388 3097 2138 3097 
Q 1578 3097 1268 2742 
Q 959 2388 959 1747 
Q 959 1106 1268 751 
Q 1578 397 2138 397 
Q 2388 397 2633 464 
Q 2878 531 3122 666 
L 3122 134 
Q 2881 22 2623 -34 
Q 2366 -91 2075 -91 
Q 1284 -91 818 406 
Q 353 903 353 1747 
Q 353 2603 823 3093 
Q 1294 3584 2113 3584 
Q 2378 3584 2631 3529 
Q 2884 3475 3122 3366 
z
" transform="scale(0.015625)"/>
      <path id="DejaVuSans-10" d="M 313 2009 
L 1997 2009 
L 1997 1497 
L 313 1497 
L 313 2009 
z
" transform="scale(0.015625)"/>
      <path id="DejaVuSans-52" d="M 1959 3097 
Q 1497 3097 1228 2736 
Q 959 2375 959 1747 
Q 959 1119 1226 758 
Q 1494 397 1959 397 
Q 2419 397 2687 759 
Q 2956 1122 2956 1747 
Q 2956 2369 2687 2733 
Q 2419 3097 1959 3097 
z
M 1959 3584 
Q 2709 3584 3137 3096 
Q 3566 2609 3566 1747 
Q 3566 888 3137 398 
Q 2709 -91 1959 -91 
Q 1206 -91 779 398 
Q 353 888 353 1747 
Q 353 2609 779 3096 
Q 1206 3584 1959 3584 
z
" transform="scale(0.015625)"/>
      <path id="DejaVuSans-50" d="M 3328 2828 
Q 3544 3216 3844 3400 
Q 4144 3584 4550 3584 
Q 5097 3584 5394 3201 
Q 5691 2819 5691 2113 
L 5691 0 
L 5113 0 
L 5113 2094 
Q 5113 2597 4934 2840 
Q 4756 3084 4391 3084 
Q 3944 3084 3684 2787 
Q 3425 2491 3425 1978 
L 3425 0 
L 2847 0 
L 2847 2094 
Q 2847 2600 2669 2842 
Q 2491 3084 2119 3084 
Q 1678 3084 1418 2786 
Q 1159 2488 1159 1978 
L 1159 0 
L 581 0 
L 581 3500 
L 1159 3500 
L 1159 2956 
Q 1356 3278 1631 3431 
Q 1906 3584 2284 3584 
Q 2666 3584 2933 3390 
Q 3200 3197 3328 2828 
z
" transform="scale(0.015625)"/>
      <path id="DejaVuSans-53" d="M 1159 525 
L 1159 -1331 
L 581 -1331 
L 581 3500 
L 1159 3500 
L 1159 2969 
Q 1341 3281 1617 3432 
Q 1894 3584 2278 3584 
Q 2916 3584 3314 3078 
Q 3713 2572 3713 1747 
Q 3713 922 3314 415 
Q 2916 -91 2278 -91 
Q 1894 -91 1617 61 
Q 1341 213 1159 525 
z
M 3116 1747 
Q 3116 2381 2855 2742 
Q 2594 3103 2138 3103 
Q 1681 3103 1420 2742 
Q 1159 2381 1159 1747 
Q 1159 1113 1420 752 
Q 1681 391 2138 391 
Q 2594 391 2855 752 
Q 3116 1113 3116 1747 
z
" transform="scale(0.015625)"/>
      <path id="DejaVuSans-4f" d="M 603 4863 
L 1178 4863 
L 1178 0 
L 603 0 
L 603 4863 
z
" transform="scale(0.015625)"/>
      <path id="DejaVuSans-36" d="M 3425 4513 
L 3425 3897 
Q 3066 4069 2747 4153 
Q 2428 4238 2131 4238 
Q 1616 4238 1336 4038 
Q 1056 3838 1056 3469 
Q 1056 3159 1242 3001 
Q 1428 2844 1947 2747 
L 2328 2669 
Q 3034 2534 3370 2195 
Q 3706 1856 3706 1288 
Q 3706 609 3251 259 
Q 2797 -91 1919 -91 
Q 1588 -91 1214 -16 
Q 841 59 441 206 
L 441 856 
Q 825 641 1194 531 
Q 1563 422 1919 422 
Q 2459 422 2753 634 
Q 3047 847 3047 1241 
Q 3047 1584 2836 1778 
Q 2625 1972 2144 2069 
L 1759 2144 
Q 1053 2284 737 2584 
Q 422 2884 422 3419 
Q 422 4038 858 4394 
Q 1294 4750 2059 4750 
Q 2388 4750 2728 4690 
Q 3069 4631 3425 4513 
z
" transform="scale(0.015625)"/>
      <path id="DejaVuSans-4b" d="M 3513 2113 
L 3513 0 
L 2938 0 
L 2938 2094 
Q 2938 2591 2744 2837 
Q 2550 3084 2163 3084 
Q 1697 3084 1428 2787 
Q 1159 2491 1159 1978 
L 1159 0 
L 581 0 
L 581 4863 
L 1159 4863 
L 1159 2956 
Q 1366 3272 1645 3428 
Q 1925 3584 2291 3584 
Q 2894 3584 3203 3211 
Q 3513 2838 3513 2113 
z
" transform="scale(0.015625)"/>
     </defs>
     <use xlink:href="#DejaVuSans-28"/>
     <use xlink:href="#DejaVuSans-51" transform="translate(63.1875 0)"/>
     <use xlink:href="#DejaVuSans-59" transform="translate(126.5625 0)"/>
     <use xlink:href="#DejaVuSans-4c" transform="translate(185.75 0)"/>
     <use xlink:href="#DejaVuSans-55" transform="translate(213.53125 0)"/>
     <use xlink:href="#DejaVuSans-44" transform="translate(254.640625 0)"/>
     <use xlink:href="#DejaVuSans-26" transform="translate(315.921875 0)"/>
     <use xlink:href="#DejaVuSans-32" transform="translate(385.75 0)"/>
     <use xlink:href="#DejaVuSans-30" transform="translate(464.46875 0)"/>
     <use xlink:href="#DejaVuSans-3" transform="translate(550.75 0)"/>
     <use xlink:href="#DejaVuSans-2c" transform="translate(582.53125 0)"/>
     <use xlink:href="#DejaVuSans-51" transform="translate(612.03125 0)"/>
     <use xlink:href="#DejaVuSans-57" transform="translate(675.40625 0)"/>
     <use xlink:href="#DejaVuSans-48" transform="translate(714.609375 0)"/>
     <use xlink:href="#DejaVuSans-55" transform="translate(776.140625 0)"/>
     <use xlink:href="#DejaVuSans-49" transform="translate(817.25 0)"/>
     <use xlink:href="#DejaVuSans-44" transform="translate(852.453125 0)"/>
     <use xlink:href="#DejaVuSans-46" transform="translate(913.734375 0)"/>
     <use xlink:href="#DejaVuSans-48" transform="translate(968.71875 0)"/>
     <use xlink:href="#DejaVuSans-3" transform="translate(1030.25 0)"/>
     <use xlink:href="#DejaVuSans-10" transform="translate(1062.03125 0)"/>
     <use xlink:href="#DejaVuSans-3" transform="translate(1098.109375 0)"/>
     <use xlink:href="#DejaVuSans-26" transform="translate(1129.890625 0)"/>
     <use xlink:href="#DejaVuSans-52" transform="translate(1199.71875 0)"/>
     <use xlink:href="#DejaVuSans-50" transform="translate(1260.90625 0)"/>
     <use xlink:href="#DejaVuSans-53" transform="translate(1358.3125 0)"/>
     <use xlink:href="#DejaVuSans-4f" transform="translate(1421.796875 0)"/>
     <use xlink:href="#DejaVuSans-48" transform="translate(1449.578125 0)"/>
     <use xlink:href="#DejaVuSans-57" transform="translate(1511.109375 0)"/>
     <use xlink:href="#DejaVuSans-48" transform="translate(1550.3125 0)"/>
     <use xlink:href="#DejaVuSans-3" transform="translate(1611.84375 0)"/>
     <use xlink:href="#DejaVuSans-36" transform="translate(1643.625 0)"/>
     <use xlink:href="#DejaVuSans-46" transform="translate(1707.109375 0)"/>
     <use xlink:href="#DejaVuSans-4b" transform="translate(1762.09375 0)"/>
     <use xlink:href="#DejaVuSans-48" transform="translate(1825.46875 0)"/>
     <use xlink:href="#DejaVuSans-50" transform="translate(1887 0)"/>
     <use xlink:href="#DejaVuSans-44" transform="translate(1984.40625 0)"/>
     <use xlink:href="#DejaVuSans-57" transform="translate(2045.6875 0)"/>
     <use xlink:href="#DejaVuSans-4c" transform="translate(2084.890625 0)"/>
     <use xlink:href="#DejaVuSans-46" transform="translate(2112.671875 0)"/>
    </g>
   </g>
   <g id="text_2">
    <!-- Galvanic isolation between 24VAC HVAC bus and 3.3V MCU -->
    <g transform="translate(62.01 51.408125) scale(0.1 -0.1)">
     <defs>
      <path id="DejaVuSans-2a" d="M 3809 666 
L 3809 1919 
L 2778 1919 
L 2778 2438 
L 4434 2438 
L 4434 434 
Q 4069 175 3628 42 
Q 3188 -91 2688 -91 
Q 1594 -91 976 548 
Q 359 1188 359 2328 
Q 359 3472 976 4111 
Q 1594 4750 2688 4750 
Q 3144 4750 3555 4637 
Q 3966 4525 4313 4306 
L 4313 3634 
Q 3963 3931 3569 4081 
Q 3175 4231 2741 4231 
Q 1884 4231 1454 3753 
Q 1025 3275 1025 2328 
Q 1025 1384 1454 906 
Q 1884 428 2741 428 
Q 3075 428 3337 486 
Q 3600 544 3809 666 
z
" transform="scale(0.015625)"/>
      <path id="DejaVuSans-56" d="M 2834 3397 
L 2834 2853 
Q 2591 2978 2328 3040 
Q 2066 3103 1784 3103 
Q 1356 3103 1142 2972 
Q 928 2841 928 2578 
Q 928 2378 1081 2264 
Q 1234 2150 1697 2047 
L 1894 2003 
Q 2506 1872 2764 1633 
Q 3022 1394 3022 966 
Q 3022 478 2636 193 
Q 2250 -91 1575 -91 
Q 1294 -91 989 -36 
Q 684 19 347 128 
L 347 722 
Q 666 556 975 473 
Q 1284 391 1588 391 
Q 1994 391 2212 530 
Q 2431 669 2431 922 
Q 2431 1156 2273 1281 
Q 2116 1406 1581 1522 
L 1381 1569 
Q 847 1681 609 1914 
Q 372 2147 372 2553 
Q 372 3047 722 3315 
Q 1072 3584 1716 3584 
Q 2034 3584 2315 3537 
Q 2597 3491 2834 3397 
z
" transform="scale(0.015625)"/>
      <path id="DejaVuSans-45" d="M 3116 1747 
Q 3116 2381 2855 2742 
Q 2594 3103 2138 3103 
Q 1681 3103 1420 2742 
Q 1159 2381 1159 1747 
Q 1159 1113 1420 752 
Q 1681 391 2138 391 
Q 2594 391 2855 752 
Q 3116 1113 3116 1747 
z
M 1159 2969 
Q 1341 3281 1617 3432 
Q 1894 3584 2278 3584 
Q 2916 3584 3314 3078 
Q 3713 2572 3713 1747 
Q 3713 922 3314 415 
Q 2916 -91 2278 -91 
Q 1894 -91 1617 61 
Q 1341 213 1159 525 
L 1159 0 
L 581 0 
L 581 4863 
L 1159 4863 
L 1159 2969 
z
" transform="scale(0.015625)"/>
      <path id="DejaVuSans-5a" d="M 269 3500 
L 844 3500 
L 1563 769 
L 2278 3500 
L 2956 3500 
L 3675 769 
L 4391 3500 
L 4966 3500 
L 4050 0 
L 3372 0 
L 2619 2869 
L 1863 0 
L 1184 0 
L 269 3500 
z
" transform="scale(0.015625)"/>
      <path id="DejaVuSans-15" d="M 1228 531 
L 3431 531 
L 3431 0 
L 469 0 
L 469 531 
Q 828 903 1448 1529 
Q 2069 2156 2228 2338 
Q 2531 2678 2651 2914 
Q 2772 3150 2772 3378 
Q 2772 3750 2511 3984 
Q 2250 4219 1831 4219 
Q 1534 4219 1204 4116 
Q 875 4013 500 3803 
L 500 4441 
Q 881 4594 1212 4672 
Q 1544 4750 1819 4750 
Q 2544 4750 2975 4387 
Q 3406 4025 3406 3419 
Q 3406 3131 3298 2873 
Q 3191 2616 2906 2266 
Q 2828 2175 2409 1742 
Q 1991 1309 1228 531 
z
" transform="scale(0.015625)"/>
      <path id="DejaVuSans-17" d="M 2419 4116 
L 825 1625 
L 2419 1625 
L 2419 4116 
z
M 2253 4666 
L 3047 4666 
L 3047 1625 
L 3713 1625 
L 3713 1100 
L 3047 1100 
L 3047 0 
L 2419 0 
L 2419 1100 
L 313 1100 
L 313 1709 
L 2253 4666 
z
" transform="scale(0.015625)"/>
      <path id="DejaVuSans-39" d="M 1831 0 
L 50 4666 
L 709 4666 
L 2188 738 
L 3669 4666 
L 4325 4666 
L 2547 0 
L 1831 0 
z
" transform="scale(0.015625)"/>
      <path id="DejaVuSans-24" d="M 2188 4044 
L 1331 1722 
L 3047 1722 
L 2188 4044 
z
M 1831 4666 
L 2547 4666 
L 4325 0 
L 3669 0 
L 3244 1197 
L 1141 1197 
L 716 0 
L 50 0 
L 1831 4666 
z
" transform="scale(0.015625)"/>
      <path id="DejaVuSans-2b" d="M 628 4666 
L 1259 4666 
L 1259 2753 
L 3553 2753 
L 3553 4666 
L 4184 4666 
L 4184 0 
L 3553 0 
L 3553 2222 
L 1259 2222 
L 1259 0 
L 628 0 
L 628 4666 
z
" transform="scale(0.015625)"/>
      <path id="DejaVuSans-58" d="M 544 1381 
L 544 3500 
L 1119 3500 
L 1119 1403 
Q 1119 906 1312 657 
Q 1506 409 1894 409 
Q 2359 409 2629 706 
Q 2900 1003 2900 1516 
L 2900 3500 
L 3475 3500 
L 3475 0 
L 2900 0 
L 2900 538 
Q 2691 219 2414 64 
Q 2138 -91 1772 -91 
Q 1169 -91 856 284 
Q 544 659 544 1381 
z
M 1991 3584 
L 1991 3584 
z
" transform="scale(0.015625)"/>
      <path id="DejaVuSans-47" d="M 2906 2969 
L 2906 4863 
L 3481 4863 
L 3481 0 
L 2906 0 
L 2906 525 
Q 2725 213 2448 61 
Q 2172 -91 1784 -91 
Q 1150 -91 751 415 
Q 353 922 353 1747 
Q 353 2572 751 3078 
Q 1150 3584 1784 3584 
Q 2172 3584 2448 3432 
Q 2725 3281 2906 2969 
z
M 947 1747 
Q 947 1113 1208 752 
Q 1469 391 1925 391 
Q 2381 391 2643 752 
Q 2906 1113 2906 1747 
Q 2906 2381 2643 2742 
Q 2381 3103 1925 3103 
Q 1469 3103 1208 2742 
Q 947 2381 947 1747 
z
" transform="scale(0.015625)"/>
      <path id="DejaVuSans-16" d="M 2597 2516 
Q 3050 2419 3304 2112 
Q 3559 1806 3559 1356 
Q 3559 666 3084 287 
Q 2609 -91 1734 -91 
Q 1441 -91 1130 -33 
Q 819 25 488 141 
L 488 750 
Q 750 597 1062 519 
Q 1375 441 1716 441 
Q 2309 441 2620 675 
Q 2931 909 2931 1356 
Q 2931 1769 2642 2001 
Q 2353 2234 1838 2234 
L 1294 2234 
L 1294 2753 
L 1863 2753 
Q 2328 2753 2575 2939 
Q 2822 3125 2822 3475 
Q 2822 3834 2567 4026 
Q 2313 4219 1838 4219 
Q 1578 4219 1281 4162 
Q 984 4106 628 3988 
L 628 4550 
Q 988 4650 1302 4700 
Q 1616 4750 1894 4750 
Q 2613 4750 3031 4423 
Q 3450 4097 3450 3541 
Q 3450 3153 3228 2886 
Q 3006 2619 2597 2516 
z
" transform="scale(0.015625)"/>
      <path id="DejaVuSans-11" d="M 684 794 
L 1344 794 
L 1344 0 
L 684 0 
L 684 794 
z
" transform="scale(0.015625)"/>
      <path id="DejaVuSans-38" d="M 556 4666 
L 1191 4666 
L 1191 1831 
Q 1191 1081 1462 751 
Q 1734 422 2344 422 
Q 2950 422 3222 751 
Q 3494 1081 3494 1831 
L 3494 4666 
L 4128 4666 
L 4128 1753 
Q 4128 841 3676 375 
Q 3225 -91 2344 -91 
Q 1459 -91 1007 375 
Q 556 841 556 1753 
L 556 4666 
z
" transform="scale(0.015625)"/>
     </defs>
     <use xlink:href="#DejaVuSans-2a"/>
     <use xlink:href="#DejaVuSans-44" transform="translate(77.484375 0)"/>
     <use xlink:href="#DejaVuSans-4f" transform="translate(138.765625 0)"/>
     <use xlink:href="#DejaVuSans-59" transform="translate(166.546875 0)"/>
     <use xlink:href="#DejaVuSans-44" transform="translate(225.734375 0)"/>
     <use xlink:href="#DejaVuSans-51" transform="translate(287.015625 0)"/>
     <use xlink:href="#DejaVuSans-4c" transform="translate(350.390625 0)"/>
     <use xlink:href="#DejaVuSans-46" transform="translate(378.171875 0)"/>
     <use xlink:href="#DejaVuSans-3" transform="translate(433.15625 0)"/>
     <use xlink:href="#DejaVuSans-4c" transform="translate(464.9375 0)"/>
     <use xlink:href="#DejaVuSans-56" transform="translate(492.71875 0)"/>
     <use xlink:href="#DejaVuSans-52" transform="translate(544.8125 0)"/>
     <use xlink:href="#DejaVuSans-4f" transform="translate(606 0)"/>
     <use xlink:href="#DejaVuSans-44" transform="translate(633.78125 0)"/>
     <use xlink:href="#DejaVuSans-57" transform="translate(695.0625 0)"/>
     <use xlink:href="#DejaVuSans-4c" transform="translate(734.265625 0)"/>
     <use xlink:href="#DejaVuSans-52" transform="translate(762.046875 0)"/>
     <use xlink:href="#DejaVuSans-51" transform="translate(823.234375 0)"/>
     <use xlink:href="#DejaVuSans-3" transform="translate(886.609375 0)"/>
     <use xlink:href="#DejaVuSans-45" transform="translate(918.390625 0)"/>
     <use xlink:href="#DejaVuSans-48" transform="translate(981.875 0)"/>
     <use xlink:href="#DejaVuSans-57" transform="translate(1043.40625 0)"/>
     <use xlink:href="#DejaVuSans-5a" transform="translate(1082.609375 0)"/>
     <use xlink:href="#DejaVuSans-48" transform="translate(1164.390625 0)"/>
     <use xlink:href="#DejaVuSans-48" transform="translate(1225.921875 0)"/>
     <use xlink:href="#DejaVuSans-51" transform="translate(1287.453125 0)"/>
     <use xlink:href="#DejaVuSans-3" transform="translate(1350.828125 0)"/>
     <use xlink:href="#DejaVuSans-15" transform="translate(1382.609375 0)"/>
     <use xlink:href="#DejaVuSans-17" transform="translate(1446.234375 0)"/>
     <use xlink:href="#DejaVuSans-39" transform="translate(1509.859375 0)"/>
     <use xlink:href="#DejaVuSans-24" transform="translate(1571.875 0)"/>
     <use xlink:href="#DejaVuSans-26" transform="translate(1638.53125 0)"/>
     <use xlink:href="#DejaVuSans-3" transform="translate(1708.359375 0)"/>
     <use xlink:href="#DejaVuSans-2b" transform="translate(1740.140625 0)"/>
     <use xlink:href="#DejaVuSans-39" transform="translate(1815.34375 0)"/>
     <use xlink:href="#DejaVuSans-24" transform="translate(1877.359375 0)"/>
     <use xlink:href="#DejaVuSans-26" transform="translate(1944.015625 0)"/>
     <use xlink:href="#DejaVuSans-3" transform="translate(2013.84375 0)"/>
     <use xlink:href="#DejaVuSans-45" transform="translate(2045.625 0)"/>
     <use xlink:href="#DejaVuSans-58" transform="translate(2109.109375 0)"/>
     <use xlink:href="#DejaVuSans-56" transform="translate(2172.484375 0)"/>
     <use xlink:href="#DejaVuSans-3" transform="translate(2224.578125 0)"/>
     <use xlink:href="#DejaVuSans-44" transform="translate(2256.359375 0)"/>
     <use xlink:href="#DejaVuSans-51" transform="translate(2317.640625 0)"/>
     <use xlink:href="#DejaVuSans-47" transform="translate(2381.015625 0)"/>
     <use xlink:href="#DejaVuSans-3" transform="translate(2444.5 0)"/>
     <use xlink:href="#DejaVuSans-16" transform="translate(2476.28125 0)"/>
     <use xlink:href="#DejaVuSans-11" transform="translate(2539.90625 0)"/>
     <use xlink:href="#DejaVuSans-16" transform="translate(2571.6875 0)"/>
     <use xlink:href="#DejaVuSans-39" transform="translate(2635.3125 0)"/>
     <use xlink:href="#DejaVuSans-3" transform="translate(2703.71875 0)"/>
     <use xlink:href="#DejaVuSans-30" transform="translate(2735.5 0)"/>
     <use xlink:href="#DejaVuSans-26" transform="translate(2821.78125 0)"/>
     <use xlink:href="#DejaVuSans-38" transform="translate(2891.609375 0)"/>
    </g>
   </g>
   <g id="text_3">
    <!-- HVAC Bus (J1) -->
    <g transform="translate(62.01 122.752266) scale(0.11 -0.11)">
     <defs>
      <path id="DejaVuSans-25" d="M 1259 2228 
L 1259 519 
L 2272 519 
Q 2781 519 3026 730 
Q 3272 941 3272 1375 
Q 3272 1813 3026 2020 
Q 2781 2228 2272 2228 
L 1259 2228 
z
M 1259 4147 
L 1259 2741 
L 2194 2741 
Q 2656 2741 2882 2914 
Q 3109 3088 3109 3444 
Q 3109 3797 2882 3972 
Q 2656 4147 2194 4147 
L 1259 4147 
z
M 628 4666 
L 2241 4666 
Q 2963 4666 3353 4366 
Q 3744 4066 3744 3513 
Q 3744 3084 3544 2831 
Q 3344 2578 2956 2516 
Q 3422 2416 3680 2098 
Q 3938 1781 3938 1306 
Q 3938 681 3513 340 
Q 3088 0 2303 0 
L 628 0 
L 628 4666 
z
" transform="scale(0.015625)"/>
      <path id="DejaVuSans-b" d="M 1984 4856 
Q 1566 4138 1362 3434 
Q 1159 2731 1159 2009 
Q 1159 1288 1364 580 
Q 1569 -128 1984 -844 
L 1484 -844 
Q 1016 -109 783 600 
Q 550 1309 550 2009 
Q 550 2706 781 3412 
Q 1013 4119 1484 4856 
L 1984 4856 
z
" transform="scale(0.015625)"/>
      <path id="DejaVuSans-2d" d="M 628 4666 
L 1259 4666 
L 1259 325 
Q 1259 -519 939 -900 
Q 619 -1281 -91 -1281 
L -331 -1281 
L -331 -750 
L -134 -750 
Q 284 -750 456 -515 
Q 628 -281 628 325 
L 628 4666 
z
" transform="scale(0.015625)"/>
      <path id="DejaVuSans-14" d="M 794 531 
L 1825 531 
L 1825 4091 
L 703 3866 
L 703 4441 
L 1819 4666 
L 2450 4666 
L 2450 531 
L 3481 531 
L 3481 0 
L 794 0 
L 794 531 
z
" transform="scale(0.015625)"/>
      <path id="DejaVuSans-c" d="M 513 4856 
L 1013 4856 
Q 1481 4119 1714 3412 
Q 1947 2706 1947 2009 
Q 1947 1309 1714 600 
Q 1481 -109 1013 -844 
L 513 -844 
Q 928 -128 1133 580 
Q 1338 1288 1338 2009 
Q 1338 2731 1133 3434 
Q 928 4138 513 4856 
z
" transform="scale(0.015625)"/>
     </defs>
     <use xlink:href="#DejaVuSans-2b"/>
     <use xlink:href="#DejaVuSans-39" transform="translate(75.203125 0)"/>
     <use xlink:href="#DejaVuSans-24" transform="translate(137.21875 0)"/>
     <use xlink:href="#DejaVuSans-26" transform="translate(203.875 0)"/>
     <use xlink:href="#DejaVuSans-3" transform="translate(273.703125 0)"/>
     <use xlink:href="#DejaVuSans-25" transform="translate(305.484375 0)"/>
     <use xlink:href="#DejaVuSans-58" transform="translate(374.09375 0)"/>
     <use xlink:href="#DejaVuSans-56" transform="translate(437.46875 0)"/>
     <use xlink:href="#DejaVuSans-3" transform="translate(489.5625 0)"/>
     <use xlink:href="#DejaVuSans-b" transform="translate(521.34375 0)"/>
     <use xlink:href="#DejaVuSans-2d" transform="translate(560.359375 0)"/>
     <use xlink:href="#DejaVuSans-14" transform="translate(589.859375 0)"/>
     <use xlink:href="#DejaVuSans-c" transform="translate(653.484375 0)"/>
    </g>
   </g>
   <g id="text_4">
    <!-- Zero-Crossing -->
    <g transform="translate(135.169375 140.439375) scale(0.1 -0.1)">
     <defs>
      <path id="DejaVuSans-3d" d="M 359 4666 
L 4025 4666 
L 4025 4184 
L 1075 531 
L 4097 531 
L 4097 0 
L 288 0 
L 288 481 
L 3238 4134 
L 359 4134 
L 359 4666 
z
" transform="scale(0.015625)"/>
      <path id="DejaVuSans-4a" d="M 2906 1791 
Q 2906 2416 2648 2759 
Q 2391 3103 1925 3103 
Q 1463 3103 1205 2759 
Q 947 2416 947 1791 
Q 947 1169 1205 825 
Q 1463 481 1925 481 
Q 2391 481 2648 825 
Q 2906 1169 2906 1791 
z
M 3481 434 
Q 3481 -459 3084 -895 
Q 2688 -1331 1869 -1331 
Q 1566 -1331 1297 -1286 
Q 1028 -1241 775 -1147 
L 775 -588 
Q 1028 -725 1275 -790 
Q 1522 -856 1778 -856 
Q 2344 -856 2625 -561 
Q 2906 -266 2906 331 
L 2906 616 
Q 2728 306 2450 153 
Q 2172 0 1784 0 
Q 1141 0 747 490 
Q 353 981 353 1791 
Q 353 2603 747 3093 
Q 1141 3584 1784 3584 
Q 2172 3584 2450 3431 
Q 2728 3278 2906 2969 
L 2906 3500 
L 3481 3500 
L 3481 434 
z
" transform="scale(0.015625)"/>
     </defs>
     <use xlink:href="#DejaVuSans-3d"/>
     <use xlink:href="#DejaVuSans-48" transform="translate(68.5 0)"/>
     <use xlink:href="#DejaVuSans-55" transform="translate(130.03125 0)"/>
     <use xlink:href="#DejaVuSans-52" transform="translate(168.9375 0)"/>
     <use xlink:href="#DejaVuSans-10" transform="translate(231.984375 0)"/>
     <use xlink:href="#DejaVuSans-26" transform="translate(268.0625 0)"/>
     <use xlink:href="#DejaVuSans-55" transform="translate(337.890625 0)"/>
     <use xlink:href="#DejaVuSans-52" transform="translate(376.796875 0)"/>
     <use xlink:href="#DejaVuSans-56" transform="translate(437.984375 0)"/>
     <use xlink:href="#DejaVuSans-56" transform="translate(490.078125 0)"/>
     <use xlink:href="#DejaVuSans-4c" transform="translate(542.171875 0)"/>
     <use xlink:href="#DejaVuSans-51" transform="translate(569.953125 0)"/>
     <use xlink:href="#DejaVuSans-4a" transform="translate(633.328125 0)"/>
    </g>
   </g>
   <g id="text_5">
    <!-- R1 -->
    <g transform="translate(152.085625 183.39625) scale(0.08 -0.08)">
     <defs>
      <path id="DejaVuSans-35" d="M 2841 2188 
Q 3044 2119 3236 1894 
Q 3428 1669 3622 1275 
L 4263 0 
L 3584 0 
L 2988 1197 
Q 2756 1666 2539 1819 
Q 2322 1972 1947 1972 
L 1259 1972 
L 1259 0 
L 628 0 
L 628 4666 
L 2053 4666 
Q 2853 4666 3247 4331 
Q 3641 3997 3641 3322 
Q 3641 2881 3436 2590 
Q 3231 2300 2841 2188 
z
M 1259 4147 
L 1259 2491 
L 2053 2491 
Q 2509 2491 2742 2702 
Q 2975 2913 2975 3322 
Q 2975 3731 2742 3939 
Q 2509 4147 2053 4147 
L 1259 4147 
z
" transform="scale(0.015625)"/>
     </defs>
     <use xlink:href="#DejaVuSans-35"/>
     <use xlink:href="#DejaVuSans-14" transform="translate(69.484375 0)"/>
    </g>
   </g>
   <g id="text_6">
    <!-- 4.7k -->
    <g transform="translate(148.7325 213.119375) scale(0.08 -0.08)">
     <defs>
      <path id="DejaVuSans-1a" d="M 525 4666 
L 3525 4666 
L 3525 4397 
L 1831 0 
L 1172 0 
L 2766 4134 
L 525 4134 
L 525 4666 
z
" transform="scale(0.015625)"/>
      <path id="DejaVuSans-4e" d="M 581 4863 
L 1159 4863 
L 1159 1991 
L 2875 3500 
L 3609 3500 
L 1753 1863 
L 3688 0 
L 2938 0 
L 1159 1709 
L 1159 0 
L 581 0 
L 581 4863 
z
" transform="scale(0.015625)"/>
     </defs>
     <use xlink:href="#DejaVuSans-17"/>
     <use xlink:href="#DejaVuSans-11" transform="translate(63.625 0)"/>
     <use xlink:href="#DejaVuSans-1a" transform="translate(95.40625 0)"/>
     <use xlink:href="#DejaVuSans-4e" transform="translate(159.03125 0)"/>
    </g>
   </g>
   <g id="text_7">
    <!-- U1 -->
    <g transform="translate(247.41 243.139375) scale(0.08 -0.08)">
     <use xlink:href="#DejaVuSans-38"/>
     <use xlink:href="#DejaVuSans-14" transform="translate(73.1875 0)"/>
    </g>
   </g>
   <g id="text_8">
    <!-- R2 -->
    <g transform="translate(242.01 333.24875) scale(0.08 -0.08)">
     <use xlink:href="#DejaVuSans-35"/>
     <use xlink:href="#DejaVuSans-15" transform="translate(69.484375 0)"/>
    </g>
   </g>
   <g id="text_9">
    <!-- 4.7k -->
    <g transform="translate(203.055 333.319375) scale(0.08 -0.08)">
     <use xlink:href="#DejaVuSans-17"/>
     <use xlink:href="#DejaVuSans-11" transform="translate(63.625 0)"/>
     <use xlink:href="#DejaVuSans-1a" transform="translate(95.40625 0)"/>
     <use xlink:href="#DejaVuSans-4e" transform="translate(159.03125 0)"/>
    </g>
   </g>
   <g id="text_10">
    <!-- R3 -->
    <g transform="translate(486.81 261.191875) scale(0.08 -0.08)">
     <use xlink:href="#DejaVuSans-35"/>
     <use xlink:href="#DejaVuSans-16" transform="translate(69.484375 0)"/>
    </g>
   </g>
   <g id="text_11">
    <!-- 10k -->
    <g transform="translate(443.1975 261.2625) scale(0.08 -0.08)">
     <defs>
      <path id="DejaVuSans-13" d="M 2034 4250 
Q 1547 4250 1301 3770 
Q 1056 3291 1056 2328 
Q 1056 1369 1301 889 
Q 1547 409 2034 409 
Q 2525 409 2770 889 
Q 3016 1369 3016 2328 
Q 3016 3291 2770 3770 
Q 2525 4250 2034 4250 
z
M 2034 4750 
Q 2819 4750 3233 4129 
Q 3647 3509 3647 2328 
Q 3647 1150 3233 529 
Q 2819 -91 2034 -91 
Q 1250 -91 836 529 
Q 422 1150 422 2328 
Q 422 3509 836 4129 
Q 1250 4750 2034 4750 
z
" transform="scale(0.015625)"/>
     </defs>
     <use xlink:href="#DejaVuSans-14"/>
     <use xlink:href="#DejaVuSans-13" transform="translate(63.625 0)"/>
     <use xlink:href="#DejaVuSans-4e" transform="translate(127.25 0)"/>
    </g>
   </g>
   <g id="text_12">
    <!-- Data Receive -->
    <g transform="translate(136.905312 515.808125) scale(0.1 -0.1)">
     <defs>
      <path id="DejaVuSans-27" d="M 1259 4147 
L 1259 519 
L 2022 519 
Q 2988 519 3436 956 
Q 3884 1394 3884 2338 
Q 3884 3275 3436 3711 
Q 2988 4147 2022 4147 
L 1259 4147 
z
M 628 4666 
L 1925 4666 
Q 3281 4666 3915 4102 
Q 4550 3538 4550 2338 
Q 4550 1131 3912 565 
Q 3275 0 1925 0 
L 628 0 
L 628 4666 
z
" transform="scale(0.015625)"/>
     </defs>
     <use xlink:href="#DejaVuSans-27"/>
     <use xlink:href="#DejaVuSans-44" transform="translate(77 0)"/>
     <use xlink:href="#DejaVuSans-57" transform="translate(138.28125 0)"/>
     <use xlink:href="#DejaVuSans-44" transform="translate(177.484375 0)"/>
     <use xlink:href="#DejaVuSans-3" transform="translate(238.765625 0)"/>
     <use xlink:href="#DejaVuSans-35" transform="translate(270.546875 0)"/>
     <use xlink:href="#DejaVuSans-48" transform="translate(335.546875 0)"/>
     <use xlink:href="#DejaVuSans-46" transform="translate(397.078125 0)"/>
     <use xlink:href="#DejaVuSans-48" transform="translate(452.0625 0)"/>
     <use xlink:href="#DejaVuSans-4c" transform="translate(513.59375 0)"/>
     <use xlink:href="#DejaVuSans-59" transform="translate(541.375 0)"/>
     <use xlink:href="#DejaVuSans-48" transform="translate(600.5625 0)"/>
    </g>
   </g>
   <g id="text_13">
    <!-- R4 -->
    <g transform="translate(152.085625 543.39625) scale(0.08 -0.08)">
     <use xlink:href="#DejaVuSans-35"/>
     <use xlink:href="#DejaVuSans-17" transform="translate(69.484375 0)"/>
    </g>
   </g>
   <g id="text_14">
    <!-- 4.7k -->
    <g transform="translate(148.7325 573.119375) scale(0.08 -0.08)">
     <use xlink:href="#DejaVuSans-17"/>
     <use xlink:href="#DejaVuSans-11" transform="translate(63.625 0)"/>
     <use xlink:href="#DejaVuSans-1a" transform="translate(95.40625 0)"/>
     <use xlink:href="#DejaVuSans-4e" transform="translate(159.03125 0)"/>
    </g>
   </g>
   <g id="text_15">
    <!-- D1 -->
    <g transform="translate(256.41 621.19625) scale(0.08 -0.08)">
     <use xlink:href="#DejaVuSans-27"/>
     <use xlink:href="#DejaVuSans-14" transform="translate(77 0)"/>
    </g>
   </g>
   <g id="text_16">
    <!-- R5 -->
    <g transform="translate(195.36125 635.139375) scale(0.08 -0.08)">
     <defs>
      <path id="DejaVuSans-18" d="M 691 4666 
L 3169 4666 
L 3169 4134 
L 1269 4134 
L 1269 2991 
Q 1406 3038 1543 3061 
Q 1681 3084 1819 3084 
Q 2600 3084 3056 2656 
Q 3513 2228 3513 1497 
Q 3513 744 3044 326 
Q 2575 -91 1722 -91 
Q 1428 -91 1123 -41 
Q 819 9 494 109 
L 494 744 
Q 775 591 1075 516 
Q 1375 441 1709 441 
Q 2250 441 2565 725 
Q 2881 1009 2881 1497 
Q 2881 1984 2565 2268 
Q 2250 2553 1709 2553 
Q 1456 2553 1204 2497 
Q 953 2441 691 2322 
L 691 4666 
z
" transform="scale(0.015625)"/>
     </defs>
     <use xlink:href="#DejaVuSans-35"/>
     <use xlink:href="#DejaVuSans-18" transform="translate(69.484375 0)"/>
    </g>
    <!-- 1.2k -->
    <g transform="translate(188.655 643.319375) scale(0.08 -0.08)">
     <use xlink:href="#DejaVuSans-14"/>
     <use xlink:href="#DejaVuSans-11" transform="translate(63.625 0)"/>
     <use xlink:href="#DejaVuSans-15" transform="translate(95.40625 0)"/>
     <use xlink:href="#DejaVuSans-4e" transform="translate(159.03125 0)"/>
    </g>
   </g>
   <g id="text_17">
    <!-- R6 -->
    <g transform="translate(314.085625 543.391875) scale(0.08 -0.08)">
     <defs>
      <path id="DejaVuSans-19" d="M 2113 2584 
Q 1688 2584 1439 2293 
Q 1191 2003 1191 1497 
Q 1191 994 1439 701 
Q 1688 409 2113 409 
Q 2538 409 2786 701 
Q 3034 994 3034 1497 
Q 3034 2003 2786 2293 
Q 2538 2584 2113 2584 
z
M 3366 4563 
L 3366 3988 
Q 3128 4100 2886 4159 
Q 2644 4219 2406 4219 
Q 1781 4219 1451 3797 
Q 1122 3375 1075 2522 
Q 1259 2794 1537 2939 
Q 1816 3084 2150 3084 
Q 2853 3084 3261 2657 
Q 3669 2231 3669 1497 
Q 3669 778 3244 343 
Q 2819 -91 2113 -91 
Q 1303 -91 875 529 
Q 447 1150 447 2328 
Q 447 3434 972 4092 
Q 1497 4750 2381 4750 
Q 2619 4750 2861 4703 
Q 3103 4656 3366 4563 
z
" transform="scale(0.015625)"/>
     </defs>
     <use xlink:href="#DejaVuSans-35"/>
     <use xlink:href="#DejaVuSans-19" transform="translate(69.484375 0)"/>
    </g>
   </g>
   <g id="text_18">
    <!-- 220 -->
    <g transform="translate(311.775 572.991875) scale(0.08 -0.08)">
     <use xlink:href="#DejaVuSans-15"/>
     <use xlink:href="#DejaVuSans-15" transform="translate(63.625 0)"/>
     <use xlink:href="#DejaVuSans-13" transform="translate(127.25 0)"/>
    </g>
   </g>
   <g id="text_19">
    <!-- U2 -->
    <g transform="translate(409.41 621.191875) scale(0.08 -0.08)">
     <use xlink:href="#DejaVuSans-38"/>
     <use xlink:href="#DejaVuSans-15" transform="translate(73.1875 0)"/>
    </g>
   </g>
   <g id="text_20">
    <!-- R7 -->
    <g transform="translate(558.81 441.19625) scale(0.08 -0.08)">
     <use xlink:href="#DejaVuSans-35"/>
     <use xlink:href="#DejaVuSans-1a" transform="translate(69.484375 0)"/>
    </g>
   </g>
   <g id="text_21">
    <!-- 22k -->
    <g transform="translate(515.1975 441.319375) scale(0.08 -0.08)">
     <use xlink:href="#DejaVuSans-15"/>
     <use xlink:href="#DejaVuSans-15" transform="translate(63.625 0)"/>
     <use xlink:href="#DejaVuSans-4e" transform="translate(127.25 0)"/>
    </g>
   </g>
   <g id="text_22">
    <!-- Data Transmit -->
    <g transform="translate(45.051406 760.608125) scale(0.1 -0.1)">
     <defs>
      <path id="DejaVuSans-37" d="M -19 4666 
L 3928 4666 
L 3928 4134 
L 2272 4134 
L 2272 0 
L 1638 0 
L 1638 4134 
L -19 4134 
L -19 4666 
z
" transform="scale(0.015625)"/>
     </defs>
     <use xlink:href="#DejaVuSans-27"/>
     <use xlink:href="#DejaVuSans-44" transform="translate(77 0)"/>
     <use xlink:href="#DejaVuSans-57" transform="translate(138.28125 0)"/>
     <use xlink:href="#DejaVuSans-44" transform="translate(177.484375 0)"/>
     <use xlink:href="#DejaVuSans-3" transform="translate(238.765625 0)"/>
     <use xlink:href="#DejaVuSans-37" transform="translate(270.546875 0)"/>
     <use xlink:href="#DejaVuSans-55" transform="translate(316.921875 0)"/>
     <use xlink:href="#DejaVuSans-44" transform="translate(358.03125 0)"/>
     <use xlink:href="#DejaVuSans-51" transform="translate(419.3125 0)"/>
     <use xlink:href="#DejaVuSans-56" transform="translate(482.6875 0)"/>
     <use xlink:href="#DejaVuSans-50" transform="translate(534.78125 0)"/>
     <use xlink:href="#DejaVuSans-4c" transform="translate(632.1875 0)"/>
     <use xlink:href="#DejaVuSans-57" transform="translate(659.96875 0)"/>
    </g>
   </g>
   <g id="text_23">
    <!-- AC_COM = C terminal (pin 2 of J1).   V_AC = 12V AC-side rail from AC_HOT (D3 1N4007 + R11 33k + D4 12V Zener + C1 10µF), referenced to AC_COM -->
    <g style="fill: #808080" transform="translate(62.01 992.97625) scale(0.08 -0.08)">
     <defs>
      <path id="DejaVuSans-42" d="M 3263 -1063 
L 3263 -1509 
L -63 -1509 
L -63 -1063 
L 3263 -1063 
z
" transform="scale(0.015625)"/>
      <path id="DejaVuSans-20" d="M 678 2906 
L 4684 2906 
L 4684 2381 
L 678 2381 
L 678 2906 
z
M 678 1631 
L 4684 1631 
L 4684 1100 
L 678 1100 
L 678 1631 
z
" transform="scale(0.015625)"/>
      <path id="DejaVuSans-31" d="M 628 4666 
L 1478 4666 
L 3547 763 
L 3547 4666 
L 4159 4666 
L 4159 0 
L 3309 0 
L 1241 3903 
L 1241 0 
L 628 0 
L 628 4666 
z
" transform="scale(0.015625)"/>
      <path id="DejaVuSans-e" d="M 2944 4013 
L 2944 2272 
L 4684 2272 
L 4684 1741 
L 2944 1741 
L 2944 0 
L 2419 0 
L 2419 1741 
L 678 1741 
L 678 2272 
L 2419 2272 
L 2419 4013 
L 2944 4013 
z
" transform="scale(0.015625)"/>
      <path id="DejaVuSans-77" d="M 544 -1331 
L 544 3500 
L 1119 3500 
L 1119 1325 
Q 1119 872 1334 640 
Q 1550 409 1972 409 
Q 2434 409 2667 671 
Q 2900 934 2900 1459 
L 2900 3500 
L 3475 3500 
L 3475 806 
Q 3475 619 3529 530 
Q 3584 441 3700 441 
Q 3728 441 3778 458 
Q 3828 475 3916 513 
L 3916 50 
Q 3788 -22 3673 -56 
Q 3559 -91 3450 -91 
Q 3234 -91 3106 31 
Q 2978 153 2931 403 
Q 2775 156 2548 32 
Q 2322 -91 2016 -91 
Q 1697 -91 1473 31 
Q 1250 153 1119 397 
L 1119 -1331 
L 544 -1331 
z
" transform="scale(0.015625)"/>
      <path id="DejaVuSans-29" d="M 628 4666 
L 3309 4666 
L 3309 4134 
L 1259 4134 
L 1259 2759 
L 3109 2759 
L 3109 2228 
L 1259 2228 
L 1259 0 
L 628 0 
L 628 4666 
z
" transform="scale(0.015625)"/>
      <path id="DejaVuSans-f" d="M 750 794 
L 1409 794 
L 1409 256 
L 897 -744 
L 494 -744 
L 750 256 
L 750 794 
z
" transform="scale(0.015625)"/>
     </defs>
     <use xlink:href="#DejaVuSans-24"/>
     <use xlink:href="#DejaVuSans-26" transform="translate(66.65625 0)"/>
     <use xlink:href="#DejaVuSans-42" transform="translate(136.484375 0)"/>
     <use xlink:href="#DejaVuSans-26" transform="translate(186.484375 0)"/>
     <use xlink:href="#DejaVuSans-32" transform="translate(256.3125 0)"/>
     <use xlink:href="#DejaVuSans-30" transform="translate(335.03125 0)"/>
     <use xlink:href="#DejaVuSans-3" transform="translate(421.3125 0)"/>
     <use xlink:href="#DejaVuSans-20" transform="translate(453.09375 0)"/>
     <use xlink:href="#DejaVuSans-3" transform="translate(536.890625 0)"/>
     <use xlink:href="#DejaVuSans-26" transform="translate(568.671875 0)"/>
     <use xlink:href="#DejaVuSans-3" transform="translate(638.5 0)"/>
     <use xlink:href="#DejaVuSans-57" transform="translate(670.28125 0)"/>
     <use xlink:href="#DejaVuSans-48" transform="translate(709.484375 0)"/>
     <use xlink:href="#DejaVuSans-55" transform="translate(771.015625 0)"/>
     <use xlink:href="#DejaVuSans-50" transform="translate(810.375 0)"/>
     <use xlink:href="#DejaVuSans-4c" transform="translate(907.78125 0)"/>
     <use xlink:href="#DejaVuSans-51" transform="translate(935.5625 0)"/>
     <use xlink:href="#DejaVuSans-44" transform="translate(998.9375 0)"/>
     <use xlink:href="#DejaVuSans-4f" transform="translate(1060.21875 0)"/>
     <use xlink:href="#DejaVuSans-3" transform="translate(1088 0)"/>
     <use xlink:href="#DejaVuSans-b" transform="translate(1119.78125 0)"/>
     <use xlink:href="#DejaVuSans-53" transform="translate(1158.796875 0)"/>
     <use xlink:href="#DejaVuSans-4c" transform="translate(1222.28125 0)"/>
     <use xlink:href="#DejaVuSans-51" transform="translate(1250.0625 0)"/>
     <use xlink:href="#DejaVuSans-3" transform="translate(1313.4375 0)"/>
     <use xlink:href="#DejaVuSans-15" transform="translate(1345.21875 0)"/>
     <use xlink:href="#DejaVuSans-3" transform="translate(1408.84375 0)"/>
     <use xlink:href="#DejaVuSans-52" transform="translate(1440.625 0)"/>
     <use xlink:href="#DejaVuSans-49" transform="translate(1501.8125 0)"/>
     <use xlink:href="#DejaVuSans-3" transform="translate(1537.015625 0)"/>
     <use xlink:href="#DejaVuSans-2d" transform="translate(1568.796875 0)"/>
     <use xlink:href="#DejaVuSans-14" transform="translate(1598.296875 0)"/>
     <use xlink:href="#DejaVuSans-c" transform="translate(1661.921875 0)"/>
     <use xlink:href="#DejaVuSans-11" transform="translate(1700.9375 0)"/>
     <use xlink:href="#DejaVuSans-3" transform="translate(1732.71875 0)"/>
     <use xlink:href="#DejaVuSans-3" transform="translate(1764.5 0)"/>
     <use xlink:href="#DejaVuSans-3" transform="translate(1796.28125 0)"/>
     <use xlink:href="#DejaVuSans-39" transform="translate(1828.0625 0)"/>
     <use xlink:href="#DejaVuSans-42" transform="translate(1896.46875 0)"/>
     <use xlink:href="#DejaVuSans-24" transform="translate(1946.46875 0)"/>
     <use xlink:href="#DejaVuSans-26" transform="translate(2013.125 0)"/>
     <use xlink:href="#DejaVuSans-3" transform="translate(2082.953125 0)"/>
     <use xlink:href="#DejaVuSans-20" transform="translate(2114.734375 0)"/>
     <use xlink:href="#DejaVuSans-3" transform="translate(2198.53125 0)"/>
     <use xlink:href="#DejaVuSans-14" transform="translate(2230.3125 0)"/>
     <use xlink:href="#DejaVuSans-15" transform="translate(2293.9375 0)"/>
     <use xlink:href="#DejaVuSans-39" transform="translate(2357.5625 0)"/>
     <use xlink:href="#DejaVuSans-3" transform="translate(2425.96875 0)"/>
     <use xlink:href="#DejaVuSans-24" transform="translate(2457.75 0)"/>
     <use xlink:href="#DejaVuSans-26" transform="translate(2524.40625 0)"/>
     <use xlink:href="#DejaVuSans-10" transform="translate(2594.234375 0)"/>
     <use xlink:href="#DejaVuSans-56" transform="translate(2630.3125 0)"/>
     <use xlink:href="#DejaVuSans-4c" transform="translate(2682.40625 0)"/>
     <use xlink:href="#DejaVuSans-47" transform="translate(2710.1875 0)"/>
     <use xlink:href="#DejaVuSans-48" transform="translate(2773.671875 0)"/>
     <use xlink:href="#DejaVuSans-3" transform="translate(2835.203125 0)"/>
     <use xlink:href="#DejaVuSans-55" transform="translate(2866.984375 0)"/>
     <use xlink:href="#DejaVuSans-44" transform="translate(2908.09375 0)"/>
     <use xlink:href="#DejaVuSans-4c" transform="translate(2969.375 0)"/>
     <use xlink:href="#DejaVuSans-4f" transform="translate(2997.15625 0)"/>
     <use xlink:href="#DejaVuSans-3" transform="translate(3024.9375 0)"/>
     <use xlink:href="#DejaVuSans-49" transform="translate(3056.71875 0)"/>
     <use xlink:href="#DejaVuSans-55" transform="translate(3091.921875 0)"/>
     <use xlink:href="#DejaVuSans-52" transform="translate(3130.828125 0)"/>
     <use xlink:href="#DejaVuSans-50" transform="translate(3192.015625 0)"/>
     <use xlink:href="#DejaVuSans-3" transform="translate(3289.421875 0)"/>
     <use xlink:href="#DejaVuSans-24" transform="translate(3321.203125 0)"/>
     <use xlink:href="#DejaVuSans-26" transform="translate(3387.859375 0)"/>
     <use xlink:href="#DejaVuSans-42" transform="translate(3457.6875 0)"/>
     <use xlink:href="#DejaVuSans-2b" transform="translate(3507.6875 0)"/>
     <use xlink:href="#DejaVuSans-32" transform="translate(3582.890625 0)"/>
     <use xlink:href="#DejaVuSans-37" transform="translate(3661.609375 0)"/>
     <use xlink:href="#DejaVuSans-3" transform="translate(3722.6875 0)"/>
     <use xlink:href="#DejaVuSans-b" transform="translate(3754.46875 0)"/>
     <use xlink:href="#DejaVuSans-27" transform="translate(3793.484375 0)"/>
     <use xlink:href="#DejaVuSans-16" transform="translate(3870.484375 0)"/>
     <use xlink:href="#DejaVuSans-3" transform="translate(3934.109375 0)"/>
     <use xlink:href="#DejaVuSans-14" transform="translate(3965.890625 0)"/>
     <use xlink:href="#DejaVuSans-31" transform="translate(4029.515625 0)"/>
     <use xlink:href="#DejaVuSans-17" transform="translate(4104.328125 0)"/>
     <use xlink:href="#DejaVuSans-13" transform="translate(4167.953125 0)"/>
     <use xlink:href="#DejaVuSans-13" transform="translate(4231.578125 0)"/>
     <use xlink:href="#DejaVuSans-1a" transform="translate(4295.203125 0)"/>
     <use xlink:href="#DejaVuSans-3" transform="translate(4358.828125 0)"/>
     <use xlink:href="#DejaVuSans-e" transform="translate(4390.609375 0)"/>
     <use xlink:href="#DejaVuSans-3" transform="translate(4474.40625 0)"/>
     <use xlink:href="#DejaVuSans-35" transform="translate(4506.1875 0)"/>
     <use xlink:href="#DejaVuSans-14" transform="translate(4575.671875 0)"/>
     <use xlink:href="#DejaVuSans-14" transform="translate(4639.296875 0)"/>
     <use xlink:href="#DejaVuSans-3" transform="translate(4702.921875 0)"/>
     <use xlink:href="#DejaVuSans-16" transform="translate(4734.703125 0)"/>
     <use xlink:href="#DejaVuSans-16" transform="translate(4798.328125 0)"/>
     <use xlink:href="#DejaVuSans-4e" transform="translate(4861.953125 0)"/>
     <use xlink:href="#DejaVuSans-3" transform="translate(4919.859375 0)"/>
     <use xlink:href="#DejaVuSans-e" transform="translate(4951.640625 0)"/>
     <use xlink:href="#DejaVuSans-3" transform="translate(5035.4375 0)"/>
     <use xlink:href="#DejaVuSans-27" transform="translate(5067.21875 0)"/>
     <use xlink:href="#DejaVuSans-17" transform="translate(5144.21875 0)"/>
     <use xlink:href="#DejaVuSans-3" transform="translate(5207.84375 0)"/>
     <use xlink:href="#DejaVuSans-14" transform="translate(5239.625 0)"/>
     <use xlink:href="#DejaVuSans-15" transform="translate(5303.25 0)"/>
     <use xlink:href="#DejaVuSans-39" transform="translate(5366.875 0)"/>
     <use xlink:href="#DejaVuSans-3" transform="translate(5435.28125 0)"/>
     <use xlink:href="#DejaVuSans-3d" transform="translate(5467.0625 0)"/>
     <use xlink:href="#DejaVuSans-48" transform="translate(5535.5625 0)"/>
     <use xlink:href="#DejaVuSans-51" transform="translate(5597.09375 0)"/>
     <use xlink:href="#DejaVuSans-48" transform="translate(5660.46875 0)"/>
     <use xlink:href="#DejaVuSans-55" transform="translate(5722 0)"/>
     <use xlink:href="#DejaVuSans-3" transform="translate(5763.109375 0)"/>
     <use xlink:href="#DejaVuSans-e" transform="translate(5794.890625 0)"/>
     <use xlink:href="#DejaVuSans-3" transform="translate(5878.6875 0)"/>
     <use xlink:href="#DejaVuSans-26" transform="translate(5910.46875 0)"/>
     <use xlink:href="#DejaVuSans-14" transform="translate(5980.296875 0)"/>
     <use xlink:href="#DejaVuSans-3" transform="translate(6043.921875 0)"/>
     <use xlink:href="#DejaVuSans-14" transform="translate(6075.703125 0)"/>
     <use xlink:href="#DejaVuSans-13" transform="translate(6139.328125 0)"/>
     <use xlink:href="#DejaVuSans-77" transform="translate(6202.953125 0)"/>
     <use xlink:href="#DejaVuSans-29" transform="translate(6266.578125 0)"/>
     <use xlink:href="#DejaVuSans-c" transform="translate(6324.09375 0)"/>
     <use xlink:href="#DejaVuSans-f" transform="translate(6363.109375 0)"/>
     <use xlink:href="#DejaVuSans-3" transform="translate(6394.890625 0)"/>
     <use xlink:href="#DejaVuSans-55" transform="translate(6426.671875 0)"/>
     <use xlink:href="#DejaVuSans-48" transform="translate(6465.578125 0)"/>
     <use xlink:href="#DejaVuSans-49" transform="translate(6527.109375 0)"/>
     <use xlink:href="#DejaVuSans-48" transform="translate(6562.3125 0)"/>
     <use xlink:href="#DejaVuSans-55" transform="translate(6623.84375 0)"/>
     <use xlink:href="#DejaVuSans-48" transform="translate(6662.75 0)"/>
     <use xlink:href="#DejaVuSans-51" transform="translate(6724.28125 0)"/>
     <use xlink:href="#DejaVuSans-46" transform="translate(6787.65625 0)"/>
     <use xlink:href="#DejaVuSans-48" transform="translate(6842.640625 0)"/>
     <use xlink:href="#DejaVuSans-47" transform="translate(6904.171875 0)"/>
     <use xlink:href="#DejaVuSans-3" transform="translate(6967.65625 0)"/>
     <use xlink:href="#DejaVuSans-57" transform="translate(6999.4375 0)"/>
     <use xlink:href="#DejaVuSans-52" transform="translate(7038.640625 0)"/>
     <use xlink:href="#DejaVuSans-3" transform="translate(7099.828125 0)"/>
     <use xlink:href="#DejaVuSans-24" transform="translate(7131.609375 0)"/>
     <use xlink:href="#DejaVuSans-26" transform="translate(7198.265625 0)"/>
     <use xlink:href="#DejaVuSans-42" transform="translate(7268.09375 0)"/>
     <use xlink:href="#DejaVuSans-26" transform="translate(7318.09375 0)"/>
     <use xlink:href="#DejaVuSans-32" transform="translate(7387.921875 0)"/>
     <use xlink:href="#DejaVuSans-30" transform="translate(7466.640625 0)"/>
    </g>
   </g>
   <g id="text_24">
    <!-- R8 -->
    <g transform="translate(530.085625 723.391875) scale(0.08 -0.08)">
     <defs>
      <path id="DejaVuSans-1b" d="M 2034 2216 
Q 1584 2216 1326 1975 
Q 1069 1734 1069 1313 
Q 1069 891 1326 650 
Q 1584 409 2034 409 
Q 2484 409 2743 651 
Q 3003 894 3003 1313 
Q 3003 1734 2745 1975 
Q 2488 2216 2034 2216 
z
M 1403 2484 
Q 997 2584 770 2862 
Q 544 3141 544 3541 
Q 544 4100 942 4425 
Q 1341 4750 2034 4750 
Q 2731 4750 3128 4425 
Q 3525 4100 3525 3541 
Q 3525 3141 3298 2862 
Q 3072 2584 2669 2484 
Q 3125 2378 3379 2068 
Q 3634 1759 3634 1313 
Q 3634 634 3220 271 
Q 2806 -91 2034 -91 
Q 1263 -91 848 271 
Q 434 634 434 1313 
Q 434 1759 690 2068 
Q 947 2378 1403 2484 
z
M 1172 3481 
Q 1172 3119 1398 2916 
Q 1625 2713 2034 2713 
Q 2441 2713 2670 2916 
Q 2900 3119 2900 3481 
Q 2900 3844 2670 4047 
Q 2441 4250 2034 4250 
Q 1625 4250 1398 4047 
Q 1172 3844 1172 3481 
z
" transform="scale(0.015625)"/>
     </defs>
     <use xlink:href="#DejaVuSans-35"/>
     <use xlink:href="#DejaVuSans-1b" transform="translate(69.484375 0)"/>
    </g>
   </g>
   <g id="text_25">
    <!-- 330 -->
    <g transform="translate(527.775 752.991875) scale(0.08 -0.08)">
     <use xlink:href="#DejaVuSans-16"/>
     <use xlink:href="#DejaVuSans-16" transform="translate(63.625 0)"/>
     <use xlink:href="#DejaVuSans-13" transform="translate(127.25 0)"/>
    </g>
   </g>
   <g id="text_26">
    <!-- U3 -->
    <g transform="translate(470.61 801.191875) scale(0.08 -0.08)">
     <use xlink:href="#DejaVuSans-38"/>
     <use xlink:href="#DejaVuSans-16" transform="translate(73.1875 0)"/>
    </g>
   </g>
   <g id="text_27">
    <!-- R9 -->
    <g transform="translate(391.56125 833.191875) scale(0.08 -0.08)">
     <defs>
      <path id="DejaVuSans-1c" d="M 703 97 
L 703 672 
Q 941 559 1184 500 
Q 1428 441 1663 441 
Q 2288 441 2617 861 
Q 2947 1281 2994 2138 
Q 2813 1869 2534 1725 
Q 2256 1581 1919 1581 
Q 1219 1581 811 2004 
Q 403 2428 403 3163 
Q 403 3881 828 4315 
Q 1253 4750 1959 4750 
Q 2769 4750 3195 4129 
Q 3622 3509 3622 2328 
Q 3622 1225 3098 567 
Q 2575 -91 1691 -91 
Q 1453 -91 1209 -44 
Q 966 3 703 97 
z
M 1959 2075 
Q 2384 2075 2632 2365 
Q 2881 2656 2881 3163 
Q 2881 3666 2632 3958 
Q 2384 4250 1959 4250 
Q 1534 4250 1286 3958 
Q 1038 3666 1038 3163 
Q 1038 2656 1286 2365 
Q 1534 2075 1959 2075 
z
" transform="scale(0.015625)"/>
     </defs>
     <use xlink:href="#DejaVuSans-35"/>
     <use xlink:href="#DejaVuSans-1c" transform="translate(69.484375 0)"/>
    </g>
    <!-- 100k -->
    <g transform="translate(382.3075 841.2625) scale(0.08 -0.08)">
     <use xlink:href="#DejaVuSans-14"/>
     <use xlink:href="#DejaVuSans-13" transform="translate(63.625 0)"/>
     <use xlink:href="#DejaVuSans-13" transform="translate(127.25 0)"/>
     <use xlink:href="#DejaVuSans-4e" transform="translate(190.875 0)"/>
    </g>
   </g>
   <g id="text_28">
    <!-- Q1 -->
    <g transform="translate(279.1025 783.333125) scale(0.08 -0.08)">
     <defs>
      <path id="DejaVuSans-34" d="M 2522 4238 
Q 1834 4238 1429 3725 
Q 1025 3213 1025 2328 
Q 1025 1447 1429 934 
Q 1834 422 2522 422 
Q 3209 422 3611 934 
Q 4013 1447 4013 2328 
Q 4013 3213 3611 3725 
Q 3209 4238 2522 4238 
z
M 3406 84 
L 4238 -825 
L 3475 -825 
L 2784 -78 
Q 2681 -84 2626 -87 
Q 2572 -91 2522 -91 
Q 1538 -91 948 567 
Q 359 1225 359 2328 
Q 359 3434 948 4092 
Q 1538 4750 2522 4750 
Q 3503 4750 4090 4092 
Q 4678 3434 4678 2328 
Q 4678 1516 4351 937 
Q 4025 359 3406 84 
z
" transform="scale(0.015625)"/>
     </defs>
     <use xlink:href="#DejaVuSans-34"/>
     <use xlink:href="#DejaVuSans-14" transform="translate(78.71875 0)"/>
    </g>
   </g>
   <g id="text_29">
    <!-- R10 -->
    <g transform="translate(270.07125 690.791875) scale(0.08 -0.08)">
     <use xlink:href="#DejaVuSans-35"/>
     <use xlink:href="#DejaVuSans-14" transform="translate(69.484375 0)"/>
     <use xlink:href="#DejaVuSans-13" transform="translate(133.109375 0)"/>
    </g>
   </g>
   <g id="text_30">
    <!-- 22Ω -->
    <g transform="translate(318.21 690.84875) scale(0.08 -0.08)">
     <defs>
      <path id="DejaVuSans-33d" d="M 4647 556 
L 4647 0 
L 2772 0 
L 2772 556 
Q 3325 859 3634 1378 
Q 3944 1897 3944 2528 
Q 3944 3278 3531 3731 
Q 3119 4184 2444 4184 
Q 1769 4184 1355 3729 
Q 941 3275 941 2528 
Q 941 1897 1250 1378 
Q 1563 859 2119 556 
L 2119 0 
L 244 0 
L 244 556 
L 1241 556 
Q 747 991 519 1456 
Q 294 1922 294 2497 
Q 294 3491 894 4106 
Q 1491 4722 2444 4722 
Q 3391 4722 3994 4106 
Q 4594 3494 4594 2528 
Q 4594 1922 4372 1459 
Q 4150 997 3647 556 
L 4647 556 
z
" transform="scale(0.015625)"/>
     </defs>
     <use xlink:href="#DejaVuSans-15"/>
     <use xlink:href="#DejaVuSans-15" transform="translate(63.625 0)"/>
     <use xlink:href="#DejaVuSans-33d" transform="translate(127.25 0)"/>
    </g>
   </g>
   <g id="text_31">
    <!-- D2 -->
    <g transform="translate(392.01 816.84875) scale(0.08 -0.08)">
     <use xlink:href="#DejaVuSans-27"/>
     <use xlink:href="#DejaVuSans-15" transform="translate(77 0)"/>
    </g>
   </g>
   <g id="text_32">
    <!-- MCU (J2) -->
    <g transform="translate(638.01 129.952266) scale(0.11 -0.11)">
     <use xlink:href="#DejaVuSans-30"/>
     <use xlink:href="#DejaVuSans-26" transform="translate(86.28125 0)"/>
     <use xlink:href="#DejaVuSans-38" transform="translate(156.109375 0)"/>
     <use xlink:href="#DejaVuSans-3" transform="translate(229.296875 0)"/>
     <use xlink:href="#DejaVuSans-b" transform="translate(261.078125 0)"/>
     <use xlink:href="#DejaVuSans-2d" transform="translate(300.09375 0)"/>
     <use xlink:href="#DejaVuSans-15" transform="translate(329.59375 0)"/>
     <use xlink:href="#DejaVuSans-c" transform="translate(393.21875 0)"/>
    </g>
   </g>
   <g id="text_33">
    <!-- ISOLATION BARRIER -->
    <g style="fill: #ff0000" transform="translate(394.811719 940.155859) scale(0.09 -0.09)">
     <defs>
      <path id="DejaVuSans-2f" d="M 628 4666 
L 1259 4666 
L 1259 531 
L 3531 531 
L 3531 0 
L 628 0 
L 628 4666 
z
" transform="scale(0.015625)"/>
     </defs>
     <use xlink:href="#DejaVuSans-2c"/>
     <use xlink:href="#DejaVuSans-36" transform="translate(29.5 0)"/>
     <use xlink:href="#DejaVuSans-32" transform="translate(92.984375 0)"/>
     <use xlink:href="#DejaVuSans-2f" transform="translate(171.703125 0)"/>
     <use xlink:href="#DejaVuSans-24" transform="translate(229.71875 0)"/>
     <use xlink:href="#DejaVuSans-37" transform="translate(290.359375 0)"/>
     <use xlink:href="#DejaVuSans-2c" transform="translate(351.4375 0)"/>
     <use xlink:href="#DejaVuSans-32" transform="translate(380.9375 0)"/>
     <use xlink:href="#DejaVuSans-31" transform="translate(459.65625 0)"/>
     <use xlink:href="#DejaVuSans-3" transform="translate(534.46875 0)"/>
     <use xlink:href="#DejaVuSans-25" transform="translate(566.25 0)"/>
     <use xlink:href="#DejaVuSans-24" transform="translate(634.859375 0)"/>
     <use xlink:href="#DejaVuSans-35" transform="translate(703.265625 0)"/>
     <use xlink:href="#DejaVuSans-35" transform="translate(772.75 0)"/>
     <use xlink:href="#DejaVuSans-2c" transform="translate(842.234375 0)"/>
     <use xlink:href="#DejaVuSans-28" transform="translate(871.734375 0)"/>
     <use xlink:href="#DejaVuSans-35" transform="translate(934.921875 0)"/>
    </g>
   </g>
   <g id="patch_14">
    <path d="M 58.41 197.98 
C 59.126048 197.98 59.812866 197.695511 60.319188 197.189188 
C 60.825511 196.682866 61.11 195.996048 61.11 195.28 
C 61.11 194.563952 60.825511 193.877134 60.319188 193.370812 
C 59.812866 192.864489 59.126048 192.58 58.41 192.58 
C 57.693952 192.58 57.007134 192.864489 56.500812 193.370812 
C 55.994489 193.877134 55.71 194.563952 55.71 195.28 
C 55.71 195.996048 55.994489 196.682866 56.500812 197.189188 
C 57.007134 197.695511 57.693952 197.98 58.41 197.98 
z
" clip-path="url(#pfe3d09bc4b)" style="stroke: #000000; stroke-width: 2; stroke-linejoin: miter"/>
   </g>
   <g id="text_34">
    <!-- 1:R (24V) -->
    <g transform="translate(7.806094 198.100937) scale(0.09 -0.09)">
     <defs>
      <path id="DejaVuSans-1d" d="M 750 794 
L 1409 794 
L 1409 0 
L 750 0 
L 750 794 
z
M 750 3309 
L 1409 3309 
L 1409 2516 
L 750 2516 
L 750 3309 
z
" transform="scale(0.015625)"/>
     </defs>
     <use xlink:href="#DejaVuSans-14"/>
     <use xlink:href="#DejaVuSans-1d" transform="translate(63.625 0)"/>
     <use xlink:href="#DejaVuSans-35" transform="translate(97.3125 0)"/>
     <use xlink:href="#DejaVuSans-3" transform="translate(166.796875 0)"/>
     <use xlink:href="#DejaVuSans-b" transform="translate(198.578125 0)"/>
     <use xlink:href="#DejaVuSans-15" transform="translate(237.59375 0)"/>
     <use xlink:href="#DejaVuSans-17" transform="translate(301.21875 0)"/>
     <use xlink:href="#DejaVuSans-39" transform="translate(364.84375 0)"/>
     <use xlink:href="#DejaVuSans-c" transform="translate(433.25 0)"/>
    </g>
   </g>
   <g id="patch_15">
    <path d="M 58.41 377.98 
C 59.126048 377.98 59.812866 377.695511 60.319188 377.189188 
C 60.825511 376.682866 61.11 375.996048 61.11 375.28 
C 61.11 374.563952 60.825511 373.877134 60.319188 373.370812 
C 59.812866 372.864489 59.126048 372.58 58.41 372.58 
C 57.693952 372.58 57.007134 372.864489 56.500812 373.370812 
C 55.994489 373.877134 55.71 374.563952 55.71 375.28 
C 55.71 375.996048 55.994489 376.682866 56.500812 377.189188 
C 57.007134 377.695511 57.693952 377.98 58.41 377.98 
z
" clip-path="url(#pfe3d09bc4b)" style="stroke: #000000; stroke-width: 2; stroke-linejoin: miter"/>
   </g>
   <g id="text_35">
    <!-- 2:C (COM) -->
    <g transform="translate(4.249688 378.100937) scale(0.09 -0.09)">
     <use xlink:href="#DejaVuSans-15"/>
     <use xlink:href="#DejaVuSans-1d" transform="translate(63.625 0)"/>
     <use xlink:href="#DejaVuSans-26" transform="translate(97.3125 0)"/>
     <use xlink:href="#DejaVuSans-3" transform="translate(167.140625 0)"/>
     <use xlink:href="#DejaVuSans-b" transform="translate(198.921875 0)"/>
     <use xlink:href="#DejaVuSans-26" transform="translate(237.9375 0)"/>
     <use xlink:href="#DejaVuSans-32" transform="translate(307.765625 0)"/>
     <use xlink:href="#DejaVuSans-30" transform="translate(386.484375 0)"/>
     <use xlink:href="#DejaVuSans-c" transform="translate(472.765625 0)"/>
    </g>
   </g>
   <g id="patch_16">
    <path d="M 58.41 557.98 
C 59.126048 557.98 59.812866 557.695511 60.319188 557.189188 
C 60.825511 556.682866 61.11 555.996048 61.11 555.28 
C 61.11 554.563952 60.825511 553.877134 60.319188 553.370812 
C 59.812866 552.864489 59.126048 552.58 58.41 552.58 
C 57.693952 552.58 57.007134 552.864489 56.500812 553.370812 
C 55.994489 553.877134 55.71 554.563952 55.71 555.28 
C 55.71 555.996048 55.994489 556.682866 56.500812 557.189188 
C 57.007134 557.695511 57.693952 557.98 58.41 557.98 
z
" clip-path="url(#pfe3d09bc4b)" style="stroke: #000000; stroke-width: 2; stroke-linejoin: miter"/>
   </g>
   <g id="text_36">
    <!-- 3:D (DATA) -->
    <g transform="translate(1.553906 558.100937) scale(0.09 -0.09)">
     <use xlink:href="#DejaVuSans-16"/>
     <use xlink:href="#DejaVuSans-1d" transform="translate(63.625 0)"/>
     <use xlink:href="#DejaVuSans-27" transform="translate(97.3125 0)"/>
     <use xlink:href="#DejaVuSans-3" transform="translate(174.3125 0)"/>
     <use xlink:href="#DejaVuSans-b" transform="translate(206.09375 0)"/>
     <use xlink:href="#DejaVuSans-27" transform="translate(245.109375 0)"/>
     <use xlink:href="#DejaVuSans-24" transform="translate(320.359375 0)"/>
     <use xlink:href="#DejaVuSans-37" transform="translate(381 0)"/>
     <use xlink:href="#DejaVuSans-24" transform="translate(434.3125 0)"/>
     <use xlink:href="#DejaVuSans-c" transform="translate(502.71875 0)"/>
    </g>
   </g>
   <g id="patch_17">
    <path d="M 472.41 197.98 
C 473.126048 197.98 473.812866 197.695511 474.319188 197.189188 
C 474.825511 196.682866 475.11 195.996048 475.11 195.28 
C 475.11 194.563952 474.825511 193.877134 474.319188 193.370812 
C 473.812866 192.864489 473.126048 192.58 472.41 192.58 
C 471.693952 192.58 471.007134 192.864489 470.500812 193.370812 
C 469.994489 193.877134 469.71 194.563952 469.71 195.28 
C 469.71 195.996048 469.994489 196.682866 470.500812 197.189188 
C 471.007134 197.695511 471.693952 197.98 472.41 197.98 
z
" clip-path="url(#pfe3d09bc4b)" style="stroke: #000000; stroke-width: 2; stroke-linejoin: miter"/>
   </g>
   <g id="text_37">
    <!-- VCC -->
    <g transform="translate(463.047187 187.755859) scale(0.09 -0.09)">
     <use xlink:href="#DejaVuSans-39"/>
     <use xlink:href="#DejaVuSans-26" transform="translate(68.40625 0)"/>
     <use xlink:href="#DejaVuSans-26" transform="translate(138.234375 0)"/>
    </g>
   </g>
   <g id="patch_18">
    <path d="M 472.41 323.98 
C 473.126048 323.98 473.812866 323.695511 474.319188 323.189188 
C 474.825511 322.682866 475.11 321.996048 475.11 321.28 
C 475.11 320.563952 474.825511 319.877134 474.319188 319.370812 
C 473.812866 318.864489 473.126048 318.58 472.41 318.58 
C 471.693952 318.58 471.007134 318.864489 470.500812 319.370812 
C 469.994489 319.877134 469.71 320.563952 469.71 321.28 
C 469.71 321.996048 469.994489 322.682866 470.500812 323.189188 
C 471.007134 323.695511 471.693952 323.98 472.41 323.98 
z
" clip-path="url(#pfe3d09bc4b)" style="stroke: #000000; stroke-width: 2; stroke-linejoin: miter"/>
   </g>
   <g id="patch_19">
    <path d="M 220.41 557.98 
C 221.126048 557.98 221.812866 557.695511 222.319188 557.189188 
C 222.825511 556.682866 223.11 555.996048 223.11 555.28 
C 223.11 554.563952 222.825511 553.877134 222.319188 553.370812 
C 221.812866 552.864489 221.126048 552.58 220.41 552.58 
C 219.693952 552.58 219.007134 552.864489 218.500812 553.370812 
C 217.994489 553.877134 217.71 554.563952 217.71 555.28 
C 217.71 555.996048 217.994489 556.682866 218.500812 557.189188 
C 219.007134 557.695511 219.693952 557.98 220.41 557.98 
z
" clip-path="url(#pfe3d09bc4b)" style="stroke: #000000; stroke-width: 2; stroke-linejoin: miter"/>
   </g>
   <g id="patch_20">
    <path d="M 238.41 683.98 
C 239.126048 683.98 239.812866 683.695511 240.319188 683.189188 
C 240.825511 682.682866 241.11 681.996048 241.11 681.28 
C 241.11 680.563952 240.825511 679.877134 240.319188 679.370812 
C 239.812866 678.864489 239.126048 678.58 238.41 678.58 
C 237.693952 678.58 237.007134 678.864489 236.500812 679.370812 
C 235.994489 679.877134 235.71 680.563952 235.71 681.28 
C 235.71 681.996048 235.994489 682.682866 236.500812 683.189188 
C 237.007134 683.695511 237.693952 683.98 238.41 683.98 
z
" clip-path="url(#pfe3d09bc4b)" style="stroke: #000000; stroke-width: 2; stroke-linejoin: miter"/>
   </g>
   <g id="text_38">
    <!-- AC_COM -->
    <g transform="translate(221.5575 695.405625) scale(0.08 -0.08)">
     <use xlink:href="#DejaVuSans-24"/>
     <use xlink:href="#DejaVuSans-26" transform="translate(66.65625 0)"/>
     <use xlink:href="#DejaVuSans-42" transform="translate(136.484375 0)"/>
     <use xlink:href="#DejaVuSans-26" transform="translate(186.484375 0)"/>
     <use xlink:href="#DejaVuSans-32" transform="translate(256.3125 0)"/>
     <use xlink:href="#DejaVuSans-30" transform="translate(335.03125 0)"/>
    </g>
   </g>
   <g id="patch_21">
    <path d="M 220.41 701.98 
C 221.126048 701.98 221.812866 701.695511 222.319188 701.189188 
C 222.825511 700.682866 223.11 699.996048 223.11 699.28 
C 223.11 698.563952 222.825511 697.877134 222.319188 697.370812 
C 221.812866 696.864489 221.126048 696.58 220.41 696.58 
C 219.693952 696.58 219.007134 696.864489 218.500812 697.370812 
C 217.994489 697.877134 217.71 698.563952 217.71 699.28 
C 217.71 699.996048 217.994489 700.682866 218.500812 701.189188 
C 219.007134 701.695511 219.693952 701.98 220.41 701.98 
z
" clip-path="url(#pfe3d09bc4b)" style="stroke: #000000; stroke-width: 2; stroke-linejoin: miter"/>
   </g>
   <g id="text_39">
    <!-- AC_COM -->
    <g transform="translate(203.5575 713.405625) scale(0.08 -0.08)">
     <use xlink:href="#DejaVuSans-24"/>
     <use xlink:href="#DejaVuSans-26" transform="translate(66.65625 0)"/>
     <use xlink:href="#DejaVuSans-42" transform="translate(136.484375 0)"/>
     <use xlink:href="#DejaVuSans-26" transform="translate(186.484375 0)"/>
     <use xlink:href="#DejaVuSans-32" transform="translate(256.3125 0)"/>
     <use xlink:href="#DejaVuSans-30" transform="translate(335.03125 0)"/>
    </g>
   </g>
   <g id="patch_22">
    <path d="M 393.21 683.98 
C 393.926048 683.98 394.612866 683.695511 395.119188 683.189188 
C 395.625511 682.682866 395.91 681.996048 395.91 681.28 
C 395.91 680.563952 395.625511 679.877134 395.119188 679.370812 
C 394.612866 678.864489 393.926048 678.58 393.21 678.58 
C 392.493952 678.58 391.807134 678.864489 391.300812 679.370812 
C 390.794489 679.877134 390.51 680.563952 390.51 681.28 
C 390.51 681.996048 390.794489 682.682866 391.300812 683.189188 
C 391.807134 683.695511 392.493952 683.98 393.21 683.98 
z
" clip-path="url(#pfe3d09bc4b)" style="stroke: #000000; stroke-width: 2; stroke-linejoin: miter"/>
   </g>
   <g id="text_40">
    <!-- AC_COM -->
    <g transform="translate(376.3575 695.405625) scale(0.08 -0.08)">
     <use xlink:href="#DejaVuSans-24"/>
     <use xlink:href="#DejaVuSans-26" transform="translate(66.65625 0)"/>
     <use xlink:href="#DejaVuSans-42" transform="translate(136.484375 0)"/>
     <use xlink:href="#DejaVuSans-26" transform="translate(186.484375 0)"/>
     <use xlink:href="#DejaVuSans-32" transform="translate(256.3125 0)"/>
     <use xlink:href="#DejaVuSans-30" transform="translate(335.03125 0)"/>
    </g>
   </g>
   <g id="patch_23">
    <path d="M 544.41 377.98 
C 545.126048 377.98 545.812866 377.695511 546.319188 377.189188 
C 546.825511 376.682866 547.11 375.996048 547.11 375.28 
C 547.11 374.563952 546.825511 373.877134 546.319188 373.370812 
C 545.812866 372.864489 545.126048 372.58 544.41 372.58 
C 543.693952 372.58 543.007134 372.864489 542.500812 373.370812 
C 541.994489 373.877134 541.71 374.563952 541.71 375.28 
C 541.71 375.996048 541.994489 376.682866 542.500812 377.189188 
C 543.007134 377.695511 543.693952 377.98 544.41 377.98 
z
" clip-path="url(#pfe3d09bc4b)" style="stroke: #000000; stroke-width: 2; stroke-linejoin: miter"/>
   </g>
   <g id="text_41">
    <!-- VCC -->
    <g transform="translate(535.047187 367.755859) scale(0.09 -0.09)">
     <use xlink:href="#DejaVuSans-39"/>
     <use xlink:href="#DejaVuSans-26" transform="translate(68.40625 0)"/>
     <use xlink:href="#DejaVuSans-26" transform="translate(138.234375 0)"/>
    </g>
   </g>
   <g id="patch_24">
    <path d="M 544.41 503.98 
C 545.126048 503.98 545.812866 503.695511 546.319188 503.189188 
C 546.825511 502.682866 547.11 501.996048 547.11 501.28 
C 547.11 500.563952 546.825511 499.877134 546.319188 499.370812 
C 545.812866 498.864489 545.126048 498.58 544.41 498.58 
C 543.693952 498.58 543.007134 498.864489 542.500812 499.370812 
C 541.994489 499.877134 541.71 500.563952 541.71 501.28 
C 541.71 501.996048 541.994489 502.682866 542.500812 503.189188 
C 543.007134 503.695511 543.693952 503.98 544.41 503.98 
z
" clip-path="url(#pfe3d09bc4b)" style="stroke: #000000; stroke-width: 2; stroke-linejoin: miter"/>
   </g>
   <g id="patch_25">
    <path d="M 634.41 737.98 
C 635.126048 737.98 635.812866 737.695511 636.319188 737.189188 
C 636.825511 736.682866 637.11 735.996048 637.11 735.28 
C 637.11 734.563952 636.825511 733.877134 636.319188 733.370812 
C 635.812866 732.864489 635.126048 732.58 634.41 732.58 
C 633.693952 732.58 633.007134 732.864489 632.500812 733.370812 
C 631.994489 733.877134 631.71 734.563952 631.71 735.28 
C 631.71 735.996048 631.994489 736.682866 632.500812 737.189188 
C 633.007134 737.695511 633.693952 737.98 634.41 737.98 
z
" clip-path="url(#pfe3d09bc4b)" style="stroke: #000000; stroke-width: 2; stroke-linejoin: miter"/>
   </g>
   <g id="text_42">
    <!-- MCU_TX -->
    <g transform="translate(642.51 737.558828) scale(0.09 -0.09)">
     <defs>
      <path id="DejaVuSans-3b" d="M 403 4666 
L 1081 4666 
L 2241 2931 
L 3406 4666 
L 4084 4666 
L 2584 2425 
L 4184 0 
L 3506 0 
L 2194 1984 
L 872 0 
L 191 0 
L 1856 2491 
L 403 4666 
z
" transform="scale(0.015625)"/>
     </defs>
     <use xlink:href="#DejaVuSans-30"/>
     <use xlink:href="#DejaVuSans-26" transform="translate(86.28125 0)"/>
     <use xlink:href="#DejaVuSans-38" transform="translate(156.109375 0)"/>
     <use xlink:href="#DejaVuSans-42" transform="translate(229.296875 0)"/>
     <use xlink:href="#DejaVuSans-37" transform="translate(279.296875 0)"/>
     <use xlink:href="#DejaVuSans-3b" transform="translate(340.375 0)"/>
    </g>
   </g>
   <g id="patch_26">
    <path d="M 418.41 737.98 
C 419.126048 737.98 419.812866 737.695511 420.319188 737.189188 
C 420.825511 736.682866 421.11 735.996048 421.11 735.28 
C 421.11 734.563952 420.825511 733.877134 420.319188 733.370812 
C 419.812866 732.864489 419.126048 732.58 418.41 732.58 
C 417.693952 732.58 417.007134 732.864489 416.500812 733.370812 
C 415.994489 733.877134 415.71 734.563952 415.71 735.28 
C 415.71 735.996048 415.994489 736.682866 416.500812 737.189188 
C 417.007134 737.695511 417.693952 737.98 418.41 737.98 
z
" clip-path="url(#pfe3d09bc4b)" style="stroke: #000000; stroke-width: 2; stroke-linejoin: miter"/>
   </g>
   <g id="text_43">
    <!-- V_AC -->
    <g transform="translate(406.939922 726.758828) scale(0.09 -0.09)">
     <use xlink:href="#DejaVuSans-39"/>
     <use xlink:href="#DejaVuSans-42" transform="translate(68.40625 0)"/>
     <use xlink:href="#DejaVuSans-24" transform="translate(118.40625 0)"/>
     <use xlink:href="#DejaVuSans-26" transform="translate(185.0625 0)"/>
    </g>
   </g>
   <g id="patch_27">
    <path d="M 418.41 899.98 
C 419.126048 899.98 419.812866 899.695511 420.319188 899.189188 
C 420.825511 898.682866 421.11 897.996048 421.11 897.28 
C 421.11 896.563952 420.825511 895.877134 420.319188 895.370812 
C 419.812866 894.864489 419.126048 894.58 418.41 894.58 
C 417.693952 894.58 417.007134 894.864489 416.500812 895.370812 
C 415.994489 895.877134 415.71 896.563952 415.71 897.28 
C 415.71 897.996048 415.994489 898.682866 416.500812 899.189188 
C 417.007134 899.695511 417.693952 899.98 418.41 899.98 
z
" clip-path="url(#pfe3d09bc4b)" style="stroke: #000000; stroke-width: 2; stroke-linejoin: miter"/>
   </g>
   <g id="text_44">
    <!-- AC_COM -->
    <g transform="translate(401.5575 911.405625) scale(0.08 -0.08)">
     <use xlink:href="#DejaVuSans-24"/>
     <use xlink:href="#DejaVuSans-26" transform="translate(66.65625 0)"/>
     <use xlink:href="#DejaVuSans-42" transform="translate(136.484375 0)"/>
     <use xlink:href="#DejaVuSans-26" transform="translate(186.484375 0)"/>
     <use xlink:href="#DejaVuSans-32" transform="translate(256.3125 0)"/>
     <use xlink:href="#DejaVuSans-30" transform="translate(335.03125 0)"/>
    </g>
   </g>
   <g id="patch_28">
    <path d="M 374.01 879.58 
C 374.726048 879.58 375.412866 879.295511 375.919188 878.789188 
C 376.425511 878.282866 376.71 877.596048 376.71 876.88 
C 376.71 876.163952 376.425511 875.477134 375.919188 874.970812 
C 375.412866 874.464489 374.726048 874.18 374.01 874.18 
C 373.293952 874.18 372.607134 874.464489 372.100812 874.970812 
C 371.594489 875.477134 371.31 876.163952 371.31 876.88 
C 371.31 877.596048 371.594489 878.282866 372.100812 878.789188 
C 372.607134 879.295511 373.293952 879.58 374.01 879.58 
z
" clip-path="url(#pfe3d09bc4b)" style="stroke: #000000; stroke-width: 2; stroke-linejoin: miter"/>
   </g>
   <g id="text_45">
    <!-- AC_COM -->
    <g transform="translate(357.1575 891.005625) scale(0.08 -0.08)">
     <use xlink:href="#DejaVuSans-24"/>
     <use xlink:href="#DejaVuSans-26" transform="translate(66.65625 0)"/>
     <use xlink:href="#DejaVuSans-42" transform="translate(136.484375 0)"/>
     <use xlink:href="#DejaVuSans-26" transform="translate(186.484375 0)"/>
     <use xlink:href="#DejaVuSans-32" transform="translate(256.3125 0)"/>
     <use xlink:href="#DejaVuSans-30" transform="translate(335.03125 0)"/>
    </g>
   </g>
   <g id="patch_29">
    <path d="M 302.01 795.58 
C 302.726048 795.58 303.412866 795.295511 303.919188 794.789188 
C 304.425511 794.282866 304.71 793.596048 304.71 792.88 
C 304.71 792.163952 304.425511 791.477134 303.919188 790.970812 
C 303.412866 790.464489 302.726048 790.18 302.01 790.18 
C 301.293952 790.18 300.607134 790.464489 300.100812 790.970812 
C 299.594489 791.477134 299.31 792.163952 299.31 792.88 
C 299.31 793.596048 299.594489 794.282866 300.100812 794.789188 
C 300.607134 795.295511 301.293952 795.58 302.01 795.58 
z
" clip-path="url(#pfe3d09bc4b)" style="stroke: #000000; stroke-width: 2; stroke-linejoin: miter"/>
   </g>
   <g id="text_46">
    <!-- AC_COM -->
    <g transform="translate(285.1575 807.005625) scale(0.08 -0.08)">
     <use xlink:href="#DejaVuSans-24"/>
     <use xlink:href="#DejaVuSans-26" transform="translate(66.65625 0)"/>
     <use xlink:href="#DejaVuSans-42" transform="translate(136.484375 0)"/>
     <use xlink:href="#DejaVuSans-26" transform="translate(186.484375 0)"/>
     <use xlink:href="#DejaVuSans-32" transform="translate(256.3125 0)"/>
     <use xlink:href="#DejaVuSans-30" transform="translate(335.03125 0)"/>
    </g>
   </g>
   <g id="patch_30">
    <path d="M 634.41 323.98 
C 635.126048 323.98 635.812866 323.695511 636.319188 323.189188 
C 636.825511 322.682866 637.11 321.996048 637.11 321.28 
C 637.11 320.563952 636.825511 319.877134 636.319188 319.370812 
C 635.812866 318.864489 635.126048 318.58 634.41 318.58 
C 633.693952 318.58 633.007134 318.864489 632.500812 319.370812 
C 631.994489 319.877134 631.71 320.563952 631.71 321.28 
C 631.71 321.996048 631.994489 322.682866 632.500812 323.189188 
C 633.007134 323.695511 633.693952 323.98 634.41 323.98 
z
" clip-path="url(#pfe3d09bc4b)" style="stroke: #000000; stroke-width: 2; stroke-linejoin: miter"/>
   </g>
   <g id="text_47">
    <!-- 3:ZC -->
    <g transform="translate(642.51 324.555859) scale(0.09 -0.09)">
     <use xlink:href="#DejaVuSans-16"/>
     <use xlink:href="#DejaVuSans-1d" transform="translate(63.625 0)"/>
     <use xlink:href="#DejaVuSans-3d" transform="translate(97.3125 0)"/>
     <use xlink:href="#DejaVuSans-26" transform="translate(165.8125 0)"/>
    </g>
   </g>
   <g id="patch_31">
    <path d="M 634.41 503.98 
C 635.126048 503.98 635.812866 503.695511 636.319188 503.189188 
C 636.825511 502.682866 637.11 501.996048 637.11 501.28 
C 637.11 500.563952 636.825511 499.877134 636.319188 499.370812 
C 635.812866 498.864489 635.126048 498.58 634.41 498.58 
C 633.693952 498.58 633.007134 498.864489 632.500812 499.370812 
C 631.994489 499.877134 631.71 500.563952 631.71 501.28 
C 631.71 501.996048 631.994489 502.682866 632.500812 503.189188 
C 633.007134 503.695511 633.693952 503.98 634.41 503.98 
z
" clip-path="url(#pfe3d09bc4b)" style="stroke: #000000; stroke-width: 2; stroke-linejoin: miter"/>
   </g>
   <g id="text_48">
    <!-- 4:RX -->
    <g transform="translate(642.51 504.560781) scale(0.09 -0.09)">
     <use xlink:href="#DejaVuSans-17"/>
     <use xlink:href="#DejaVuSans-1d" transform="translate(63.625 0)"/>
     <use xlink:href="#DejaVuSans-35" transform="translate(97.3125 0)"/>
     <use xlink:href="#DejaVuSans-3b" transform="translate(166.796875 0)"/>
    </g>
   </g>
   <g id="patch_32">
    <path d="M 634.41 197.98 
C 635.126048 197.98 635.812866 197.695511 636.319188 197.189188 
C 636.825511 196.682866 637.11 195.996048 637.11 195.28 
C 637.11 194.563952 636.825511 193.877134 636.319188 193.370812 
C 635.812866 192.864489 635.126048 192.58 634.41 192.58 
C 633.693952 192.58 633.007134 192.864489 632.500812 193.370812 
C 631.994489 193.877134 631.71 194.563952 631.71 195.28 
C 631.71 195.996048 631.994489 196.682866 632.500812 197.189188 
C 633.007134 197.695511 633.693952 197.98 634.41 197.98 
z
" clip-path="url(#pfe3d09bc4b)" style="stroke: #000000; stroke-width: 2; stroke-linejoin: miter"/>
   </g>
   <g id="text_49">
    <!-- 1:VCC -->
    <g transform="translate(642.51 198.555859) scale(0.09 -0.09)">
     <use xlink:href="#DejaVuSans-14"/>
     <use xlink:href="#DejaVuSans-1d" transform="translate(63.625 0)"/>
     <use xlink:href="#DejaVuSans-39" transform="translate(97.3125 0)"/>
     <use xlink:href="#DejaVuSans-26" transform="translate(165.71875 0)"/>
     <use xlink:href="#DejaVuSans-26" transform="translate(235.546875 0)"/>
    </g>
   </g>
   <g id="patch_33">
    <path d="M 634.41 665.98 
C 635.126048 665.98 635.812866 665.695511 636.319188 665.189188 
C 636.825511 664.682866 637.11 663.996048 637.11 663.28 
C 637.11 662.563952 636.825511 661.877134 636.319188 661.370812 
C 635.812866 660.864489 635.126048 660.58 634.41 660.58 
C 633.693952 660.58 633.007134 660.864489 632.500812 661.370812 
C 631.994489 661.877134 631.71 662.563952 631.71 663.28 
C 631.71 663.996048 631.994489 664.682866 632.500812 665.189188 
C 633.007134 665.695511 633.693952 665.98 634.41 665.98 
z
" clip-path="url(#pfe3d09bc4b)" style="stroke: #000000; stroke-width: 2; stroke-linejoin: miter"/>
   </g>
   <g id="text_50">
    <!-- 2:GND -->
    <g transform="translate(642.51 666.555859) scale(0.09 -0.09)">
     <use xlink:href="#DejaVuSans-15"/>
     <use xlink:href="#DejaVuSans-1d" transform="translate(63.625 0)"/>
     <use xlink:href="#DejaVuSans-2a" transform="translate(97.3125 0)"/>
     <use xlink:href="#DejaVuSans-31" transform="translate(174.796875 0)"/>
     <use xlink:href="#DejaVuSans-27" transform="translate(249.609375 0)"/>
    </g>
   </g>
  </g>
 </g>
 <defs>
  <clipPath id="pfe3d09bc4b">
   <rect x="0" y="-0" width="688.956" height="999.56"/>
  </clipPath>
 </defs>
</svg>
