<svg xmlns="http://www.w3.org/2000/svg" xmlns:xlink="http://www.w3.org/1999/xlink" xml:lang="en" height="461.40000000000003pt" width="648.6199999999999pt" viewBox="-18.160000000000014 -394.70000000000005 648.6199999999999 461.40000000000003"><polygon points="315.0,-137.70000000000005 324.0,-150.3 333.0,-137.70000000000005 " style="stroke:black;fill:none;stroke-width:2.0;stroke-dasharray:-;stroke-linecap:round;stroke-linejoin:round;" /><circle cx="154.92000000000002" cy="-169.26000000000002" r="19.8" style="stroke:black;fill:none;stroke-width:2.0;stroke-dasharray:-;" /><polygon points="138.0,-126.30000000000001 129.0,-113.70000000000003 120.0,-126.30000000000001 " style="stroke:black;fill:none;stroke-width:2.0;stroke-dasharray:-;stroke-linecap:round;stroke-linejoin:round;" /><path d="M 576.0,-216.0 L 549.0,-216.0 L 522.0,-216.0" style="stroke:black;fill:none;stroke-width:2.0;stroke-dasharray:-;stroke-linecap:round;stroke-linejoin:round;" /><path d="M 522.0,-216.0 L 468.0,-216.0 L 465.0,-207.0 L 459.0,-225.0 L 453.0,-207.0 L 447.00000000000006,-225.0 L 441.0,-207.0 L 435.0,-225.0 L 432.0,-216.0 L 378.0,-216.00000000000003" style="stroke:black;fill:none;stroke-width:2.0;stroke-dasharray:-;stroke-linecap:round;stroke-linejoin:round;" /><path d="M 378.0,-216.00000000000003 L 351.0,-216.00000000000003 L 324.0,-216.00000000000003" style="stroke:black;fill:none;stroke-width:2.0;stroke-dasharray:-;stroke-linecap:round;stroke-linejoin:round;" /><path d="M 324.0,-216.00000000000003 L 324.0,-150.3 M 315.0,-150.3 L 333.0,-150.3 M 324.0,-137.70000000000005 L 324.0,-72.00000000000003" style="stroke:black;fill:none;stroke-width:2.0;stroke-dasharray:-;stroke-linecap:round;stroke-linejoin:round;" /><path d="M 324.0,-72.00000000000003 L 324.0,-57.60000000000004 L 315.0,-57.60000000000004 L 333.0,-57.60000000000004 M 317.7,-53.28000000000003 L 330.3,-53.28000000000003 M 322.2,-48.96000000000003 L 325.8,-48.96000000000003" style="stroke:black;fill:none;stroke-width:2.0;stroke-dasharray:-;stroke-linecap:round;stroke-linejoin:round;" /><path d="M 180.0,-216.0 L 180.0,-189.0 L 180.0,-162.0" style="stroke:black;fill:none;stroke-width:2.0;stroke-dasharray:-;stroke-linecap:round;stroke-linejoin:round;" /><path d="M 154.92000000000002,-189.06 L 154.92000000000002,-175.85999999999999" style="stroke:black;fill:none;stroke-width:2.0;stroke-dasharray:-;stroke-linecap:round;stroke-linejoin:round;" /><path d="M 168.12,-175.85999999999999 L 141.72,-175.85999999999999" style="stroke:black;fill:none;stroke-width:2.0;stroke-dasharray:-;stroke-linecap:round;stroke-linejoin:round;" /><path d="M 161.51999999999998,-175.85999999999999 L 173.39999999999998,-162.0 L 180.0,-162.0" style="stroke:black;fill:none;stroke-width:2.0;stroke-dasharray:-;stroke-linecap:round;stroke-linejoin:round;" /><path d="M 148.32,-175.85999999999999 L 136.44,-162.0 L 129.84,-162.0" style="stroke:black;fill:none;stroke-width:2.0;stroke-dasharray:-;stroke-linecap:round;stroke-linejoin:round;" /><path d="M 148.32,-175.85999999999999 L 142.2971223611037,-168.83330942128768" style="stroke:black;fill:none;stroke-width:2.0;stroke-dasharray:-;stroke-linecap:round;stroke-linejoin:round;" /><path d="M 137.74158274691194 -163.5185132047306 L 139.56379859258865 -171.17615836572915 L 145.03044612961878 -166.49046047684618 Z" style="stroke:black;fill:black;stroke-linecap:butt;stroke-linejoin:miter;" /><path d="M 180.0,-162.0 L 180.0,-144.0 L 180.0,-126.0" style="stroke:black;fill:none;stroke-width:2.0;stroke-dasharray:-;stroke-linecap:round;stroke-linejoin:round;" /><path d="M 180.0,-126.0 L 180.0,-72.0 L 189.0,-69.0 L 171.0,-63.0 L 189.0,-57.00000000000001 L 171.0,-51.000000000000014 L 189.0,-45.0 L 171.0,-39.00000000000001 L 179.99999999999997,-36.0 L 179.99999999999997,18.0" style="stroke:black;fill:none;stroke-width:2.0;stroke-dasharray:-;stroke-linecap:round;stroke-linejoin:round;" /><path d="M 180.0,-162.0 L 126.0,-162.0 L 72.0,-162.0" style="stroke:black;fill:none;stroke-width:2.0;stroke-dasharray:-;stroke-linecap:round;stroke-linejoin:round;" /><path d="M 39.00000000000001,-180.0 L 39.00000000000001,-165.0 L 54.0,-165.0 L 54.0,-135.0 L 39.00000000000001,-135.0 L 39.00000000000001,-120.0" style="stroke:black;fill:none;stroke-width:2.0;stroke-dasharray:-;stroke-linecap:round;stroke-linejoin:round;" /><path d="M 57.00000000000001,-162.0 L 57.00000000000001,-138.0" style="stroke:black;fill:none;stroke-width:2.0;stroke-dasharray:-;stroke-linecap:round;stroke-linejoin:round;" /><path d="M 72.0,-162.0 L 57.00000000000001,-162.0" style="stroke:black;fill:none;stroke-width:2.0;stroke-dasharray:-;stroke-linecap:round;stroke-linejoin:round;" /><path d="M 45.0,-150.0 L 39.00000000000001,-150.0" style="stroke:black;fill:none;stroke-width:2.0;stroke-dasharray:-;stroke-linecap:round;stroke-linejoin:round;" /><path d="M 52.0 -150.0 L 45.0 -145.5 L 45.0 -154.5 Z" style="stroke:black;fill:black;stroke-linecap:butt;stroke-linejoin:miter;" /><path d="M 39.00000000000001,-180.0 L 39.0,-144.0 L 38.999999999999986,-108.0" style="stroke:black;fill:none;stroke-width:2.0;stroke-dasharray:-;stroke-linecap:round;stroke-linejoin:round;" /><path d="M 39.00000000000001,-120.0 L 39.00000000000001,-156.00000000000003 L 39.000000000000014,-192.00000000000003" style="stroke:black;fill:none;stroke-width:2.0;stroke-dasharray:-;stroke-linecap:round;stroke-linejoin:round;" /><path d="M 39.000000000000014,-192.00000000000003 L 39.000000000000014,-246.00000000000003 L 30.000000000000018,-249.0 L 48.00000000000002,-255.00000000000003 L 30.000000000000018,-261.0 L 48.00000000000002,-267.0 L 30.000000000000018,-273.0 L 48.00000000000002,-279.0 L 39.00000000000002,-282.0 L 39.00000000000002,-336.0" style="stroke:black;fill:none;stroke-width:2.0;stroke-dasharray:-;stroke-linecap:round;stroke-linejoin:round;" /><path d="M 39.00000000000002,-336.0 L 39.00000000000002,-354.0 L 39.00000000000002,-372.0" style="stroke:black;fill:none;stroke-width:2.0;stroke-dasharray:-;stroke-linecap:round;stroke-linejoin:round;" /><path d="M 39.000000000000014,-192.00000000000003 L 84.00000000000003,-192.00000000000003 L 129.00000000000003,-192.00000000000003" style="stroke:black;fill:none;stroke-width:2.0;stroke-dasharray:-;stroke-linecap:round;stroke-linejoin:round;" /><path d="M 129.00000000000003,-192.00000000000003 L 129.0,-126.30000000000001 M 138.0,-113.70000000000003 L 120.0,-113.70000000000003 M 129.0,-113.70000000000003 L 129.0,-48.00000000000002" style="stroke:black;fill:none;stroke-width:2.0;stroke-dasharray:-;stroke-linecap:round;stroke-linejoin:round;" /><path d="M 129.0,-48.00000000000002 L 129.0,-18.000000000000032 L 128.99999999999997,11.999999999999957" style="stroke:black;fill:none;stroke-width:2.0;stroke-dasharray:-;stroke-linecap:round;stroke-linejoin:round;" /><path d="M 128.99999999999997,11.999999999999957 L 83.99999999999999,11.999999999999952 L 38.999999999999986,11.999999999999945" style="stroke:black;fill:none;stroke-width:2.0;stroke-dasharray:-;stroke-linecap:round;stroke-linejoin:round;" /><path d="M 252.0,-288.0 L 251.99999999999997,-126.0 L 251.99999999999994,36.0" style="stroke:gray;fill:none;stroke-width:2.0;stroke-dasharray:7.4,3.2;stroke-linecap:round;stroke-linejoin:round;" /><text x="3.6" y="-377.59999999999997" dominant-baseline="central" fill="black" font-size="14" font-family="sans" text-anchor="start"><tspan x="3.6" dy="14">Data Transmit Circuit</tspan></text><text x="450.0" y="-239.60000000000002" dominant-baseline="ideographic" fill="black" font-size="11" font-family="sans" text-anchor="middle"><tspan x="450.0" dy="11">R8</tspan></text><text x="450.0" y="-214.4" dominant-baseline="hanging" fill="black" font-size="11" font-family="sans" text-anchor="middle"><tspan x="450.0" dy="11">330Ω</tspan></text><text x="324.0" y="-237.8" dominant-baseline="ideographic" fill="black" font-size="11" font-family="sans" text-anchor="middle"><tspan x="324.0" dy="11">U3: 4N35</tspan></text><text x="154.62" y="-208.86" dominant-baseline="ideographic" fill="black" font-size="9" font-family="sans" text-anchor="middle"><tspan x="154.62" dy="9">Q (photo)</tspan></text><text x="180.0" y="-144.20000000000002" dominant-baseline="ideographic" fill="black" font-size="11" font-family="sans" text-anchor="middle"><tspan x="180.0" dy="11">R9</tspan></text><text x="179.99999999999997" y="14.200000000000006" dominant-baseline="hanging" fill="black" font-size="11" font-family="sans" text-anchor="middle"><tspan x="179.99999999999997" dy="11">100kΩ</tspan></text><text x="21.000000000000007" y="-159.0" dominant-baseline="central" fill="black" font-size="9" font-family="sans" text-anchor="end"><tspan x="21.000000000000007" dy="9">Q1</tspan></text><text x="39.000000000000014" y="-192.20000000000002" dominant-baseline="hanging" fill="black" font-size="11" font-family="sans" text-anchor="middle"><tspan x="39.000000000000014" dy="11">R10</tspan></text><text x="39.00000000000002" y="-357.79999999999995" dominant-baseline="ideographic" fill="black" font-size="11" font-family="sans" text-anchor="middle"><tspan x="39.00000000000002" dy="11">22Ω</tspan></text><text x="129.00000000000003" y="-213.8" dominant-baseline="ideographic" fill="black" font-size="11" font-family="sans" text-anchor="middle"><tspan x="129.00000000000003" dy="11">D2</tspan></text><text x="255.6" y="48.6" dominant-baseline="central" fill="gray" font-size="9" font-family="sans" text-anchor="middle"><tspan x="255.6" dy="9">ISOLATION</tspan></text><circle cx="576.0" cy="-216.0" r="2.6999999999999997" style="stroke:black;fill:black;stroke-width:2.0;stroke-dasharray:-;" /><text x="585.9" y="-226.0" dominant-baseline="central" fill="black" font-size="10" font-family="sans" text-anchor="start"><tspan x="585.9" dy="10">MCU_TX</tspan></text><circle cx="180.0" cy="-216.0" r="2.6999999999999997" style="stroke:black;fill:black;stroke-width:2.0;stroke-dasharray:-;" /><text x="180.0" y="-234.1" dominant-baseline="ideographic" fill="black" font-size="10" font-family="sans" text-anchor="middle"><tspan x="180.0" dy="10">V_AC</tspan></text><circle cx="179.99999999999997" cy="18.0" r="2.6999999999999997" style="stroke:black;fill:black;stroke-width:2.0;stroke-dasharray:-;" /><text x="170.09999999999997" y="9.0" dominant-baseline="central" fill="black" font-size="9" font-family="sans" text-anchor="end"><tspan x="170.09999999999997" dy="9">AC_COM</tspan></text><circle cx="38.999999999999986" cy="-108.0" r="2.6999999999999997" style="stroke:black;fill:black;stroke-width:2.0;stroke-dasharray:-;" /><text x="29.099999999999987" y="-118.0" dominant-baseline="central" fill="black" font-size="10" font-family="sans" text-anchor="end"><tspan x="29.099999999999987" dy="10">AC_COM</tspan></text><circle cx="39.000000000000014" cy="-192.00000000000003" r="2.6999999999999997" style="stroke:black;fill:black;stroke-width:2.0;stroke-dasharray:-;" /><circle cx="39.00000000000002" cy="-372.0" r="2.6999999999999997" style="stroke:black;fill:black;stroke-width:2.0;stroke-dasharray:-;" /><text x="39.00000000000002" y="-390.1" dominant-baseline="ideographic" fill="black" font-size="10" font-family="sans" text-anchor="middle"><tspan x="39.00000000000002" dy="10">DATA</tspan></text></svg>