<svg xmlns="http://www.w3.org/2000/svg" xmlns:xlink="http://www.w3.org/1999/xlink" xml:lang="en" height="357.6000000000001pt" width="351.272pt" viewBox="-50.86 -326.9000000000001 351.272 357.6000000000001"><polygon points="171.0,-132.29999999999998 162.0,-119.7 153.0,-132.29999999999998 " style="stroke:black;fill:none;stroke-width:2.0;stroke-dasharray:-;stroke-linecap:round;stroke-linejoin:round;" /><circle cx="190.92000000000002" cy="-151.26000000000002" r="19.8" style="stroke:black;fill:none;stroke-width:2.0;stroke-dasharray:-;" /><polygon points="282.59999999999997,-141.29999999999998 273.59999999999997,-128.70000000000002 264.59999999999997,-141.29999999999998 " style="stroke:black;fill:none;stroke-width:2.0;stroke-dasharray:-;stroke-linecap:round;stroke-linejoin:round;" /><path d="M 0.0,-180.0 L 18.0,-180.0 L 36.0,-180.0" style="stroke:black;fill:none;stroke-width:2.0;stroke-dasharray:-;stroke-linecap:round;stroke-linejoin:round;" /><path d="M 36.0,-180.0 L 72.0,-180.0 L 74.99999999999999,-189.0 L 81.0,-171.0 L 87.0,-189.0 L 92.99999999999999,-171.0 L 99.0,-189.0 L 105.0,-171.0 L 108.0,-180.0 L 144.0,-180.0" style="stroke:black;fill:none;stroke-width:2.0;stroke-dasharray:-;stroke-linecap:round;stroke-linejoin:round;" /><path d="M 144.0,-180.0 L 153.0,-180.0 L 162.0,-180.0" style="stroke:black;fill:none;stroke-width:2.0;stroke-dasharray:-;stroke-linecap:round;stroke-linejoin:round;" /><path d="M 162.0,-180.0 L 162.0,-132.29999999999998 M 171.0,-119.7 L 153.0,-119.7 M 162.0,-119.7 L 161.99999999999997,-72.0" style="stroke:black;fill:none;stroke-width:2.0;stroke-dasharray:-;stroke-linecap:round;stroke-linejoin:round;" /><path d="M 161.99999999999997,-72.0 L 161.99999999999997,-57.6 L 152.99999999999997,-57.6 L 170.99999999999997,-57.6 M 155.7,-53.28 L 168.29999999999995,-53.28 M 160.2,-48.959999999999994 L 163.79999999999995,-48.959999999999994" style="stroke:black;fill:none;stroke-width:2.0;stroke-dasharray:-;stroke-linecap:round;stroke-linejoin:round;" /><path d="M 216.0,-180.0 L 216.0,-162.0 L 216.0,-144.0" style="stroke:black;fill:none;stroke-width:2.0;stroke-dasharray:-;stroke-linecap:round;stroke-linejoin:round;" /><path d="M 190.92000000000002,-171.06 L 190.92000000000002,-157.85999999999999" style="stroke:black;fill:none;stroke-width:2.0;stroke-dasharray:-;stroke-linecap:round;stroke-linejoin:round;" /><path d="M 204.12,-157.85999999999999 L 177.72,-157.85999999999999" style="stroke:black;fill:none;stroke-width:2.0;stroke-dasharray:-;stroke-linecap:round;stroke-linejoin:round;" /><path d="M 197.51999999999998,-157.85999999999999 L 209.39999999999998,-144.0 L 216.0,-144.0" style="stroke:black;fill:none;stroke-width:2.0;stroke-dasharray:-;stroke-linecap:round;stroke-linejoin:round;" /><path d="M 184.32,-157.85999999999999 L 172.44,-144.0 L 165.84,-144.0" style="stroke:black;fill:none;stroke-width:2.0;stroke-dasharray:-;stroke-linecap:round;stroke-linejoin:round;" /><path d="M 216.0,-144.0 L 216.0,-135.0 L 216.0,-126.0" style="stroke:black;fill:none;stroke-width:2.0;stroke-dasharray:-;stroke-linecap:round;stroke-linejoin:round;" /><path d="M 216.0,-126.0 L 216.0,-90.0 L 225.0,-87.00000000000001 L 207.0,-81.0 L 225.0,-75.0 L 207.0,-69.0 L 225.0,-63.0 L 207.0,-57.00000000000001 L 216.0,-54.0 L 215.99999999999997,-18.0" style="stroke:black;fill:none;stroke-width:2.0;stroke-dasharray:-;stroke-linecap:round;stroke-linejoin:round;" /><path d="M 215.99999999999997,-18.0 L 215.99999999999997,-3.599999999999999 L 206.99999999999997,-3.599999999999999 L 224.99999999999997,-3.599999999999999 M 209.7,0.7200000000000006 L 222.29999999999995,0.7200000000000006 M 214.2,5.040000000000001 L 217.79999999999995,5.040000000000001" style="stroke:black;fill:none;stroke-width:2.0;stroke-dasharray:-;stroke-linecap:round;stroke-linejoin:round;" /><path d="M 216.0,-144.0 L 234.0,-144.0 L 252.0,-144.0" style="stroke:black;fill:none;stroke-width:2.0;stroke-dasharray:-;stroke-linecap:round;stroke-linejoin:round;" /><path d="M 252.0,-144.0 L 257.40000000000003,-144.0 L 262.8,-144.0" style="stroke:black;fill:none;stroke-width:2.0;stroke-dasharray:-;stroke-linecap:round;stroke-linejoin:round;" /><path d="M 262.8,-144.0 L 262.8,-153.0 L 262.8,-162.0" style="stroke:black;fill:none;stroke-width:2.0;stroke-dasharray:-;stroke-linecap:round;stroke-linejoin:round;" /><path d="M 262.8,-162.0 L 262.8,-144.0 L 262.8,-126.0" style="stroke:black;fill:none;stroke-width:2.0;stroke-dasharray:-;stroke-linecap:round;stroke-linejoin:round;" /><path d="M 262.8,-126.0 L 262.8,-135.0 L 262.8,-144.0" style="stroke:black;fill:none;stroke-width:2.0;stroke-dasharray:-;stroke-linecap:round;stroke-linejoin:round;" /><path d="M 262.8,-144.0 L 268.2,-144.0 L 273.59999999999997,-144.0" style="stroke:black;fill:none;stroke-width:2.0;stroke-dasharray:-;stroke-linecap:round;stroke-linejoin:round;" /><path d="M 273.59999999999997,-126.0 L 273.59999999999997,-108.0 L 273.59999999999997,-90.0" style="stroke:black;fill:none;stroke-width:2.0;stroke-dasharray:-;stroke-linecap:round;stroke-linejoin:round;" /><path d="M 273.59999999999997,-144.0 L 273.59999999999997,-162.0 L 273.59999999999997,-180.0" style="stroke:black;fill:none;stroke-width:2.0;stroke-dasharray:-;stroke-linecap:round;stroke-linejoin:round;" /><path d="M 273.59999999999997,-180.0 L 273.59999999999997,-216.0 L 264.59999999999997,-219.0 L 282.59999999999997,-225.0 L 264.59999999999997,-230.99999999999997 L 282.59999999999997,-237.0 L 264.59999999999997,-243.0 L 282.59999999999997,-248.99999999999997 L 273.59999999999997,-252.0 L 273.59999999999997,-288.0" style="stroke:black;fill:none;stroke-width:2.0;stroke-dasharray:-;stroke-linecap:round;stroke-linejoin:round;" /><path d="M 273.59999999999997,-288.0 L 273.59999999999997,-297.0 L 273.59999999999997,-306.0" style="stroke:black;fill:none;stroke-width:2.0;stroke-dasharray:-;stroke-linecap:round;stroke-linejoin:round;" /><path d="M 273.59999999999997,-180.0 L 273.59999999999997,-141.29999999999998 M 282.59999999999997,-128.70000000000002 L 264.59999999999997,-128.70000000000002 M 273.59999999999997,-128.70000000000002 L 273.59999999999997,-90.0" style="stroke:black;fill:none;stroke-width:2.0;stroke-dasharray:-;stroke-linecap:round;stroke-linejoin:round;" /><path d="M 198.0,-216.0 L 197.99999999999997,-108.0 L 197.99999999999997,-0.0" style="stroke:gray;fill:none;stroke-width:2.0;stroke-dasharray:7.4,3.2;stroke-linecap:round;stroke-linejoin:round;" /><text x="3.6" y="-269.6" dominant-baseline="central" fill="black" font-size="14" font-family="sans" text-anchor="start"><tspan x="3.6" dy="14">Data Transmit Circuit</tspan></text><text x="90.0" y="-216.6" dominant-baseline="ideographic" fill="black" font-size="12" font-family="sans" text-anchor="middle"><tspan x="90.0" dy="12">R8</tspan><tspan x="90.0" dy="12">330Ω</tspan></text><text x="162.0" y="-207.6" dominant-baseline="ideographic" fill="black" font-size="12" font-family="sans" text-anchor="middle"><tspan x="162.0" dy="12">4N35</tspan><tspan x="162.0" dy="12">LED</tspan></text><text x="190.92" y="-136.86" dominant-baseline="hanging" fill="black" font-size="9" font-family="sans" text-anchor="middle"><tspan x="190.92" dy="9">Photo-</tspan><tspan x="190.92" dy="9">Transistor</tspan></text><text x="216.0" y="-153.6" dominant-baseline="ideographic" fill="black" font-size="12" font-family="sans" text-anchor="middle"><tspan x="216.0" dy="12">R9</tspan><tspan x="216.0" dy="12">10kΩ</tspan></text><text x="273.59999999999997" y="-315.59999999999997" dominant-baseline="ideographic" fill="black" font-size="12" font-family="sans" text-anchor="middle"><tspan x="273.59999999999997" dy="12">R10</tspan><tspan x="273.59999999999997" dy="12">22Ω 1W</tspan></text><text x="273.59999999999997" y="-207.6" dominant-baseline="ideographic" fill="black" font-size="12" font-family="sans" text-anchor="middle"><tspan x="273.59999999999997" dy="12">D2</tspan><tspan x="273.59999999999997" dy="12">1N4148</tspan></text><text x="277.2" y="-153.9" dominant-baseline="central" fill="black" font-size="9" font-family="sans" text-anchor="middle"><tspan x="277.2" dy="9">Q1</tspan><tspan x="277.2" dy="9">2N7000</tspan></text><text x="201.6" y="12.599999999999998" dominant-baseline="central" fill="gray" font-size="9" font-family="sans" text-anchor="middle"><tspan x="201.6" dy="9">Isolation</tspan></text><circle cx="0.0" cy="-180.0" r="2.6999999999999997" style="stroke:black;fill:black;stroke-width:2.0;stroke-dasharray:-;" /><text x="-6.3" y="-190.0" dominant-baseline="central" fill="black" font-size="10" font-family="sans" text-anchor="end"><tspan x="-6.3" dy="10">MCU_TX</tspan></text><circle cx="216.0" cy="-180.0" r="2.6999999999999997" style="stroke:black;fill:black;stroke-width:2.0;stroke-dasharray:-;" /><text x="216.0" y="-196.29999999999998" dominant-baseline="ideographic" fill="black" font-size="10" font-family="sans" text-anchor="middle"><tspan x="216.0" dy="10">VCC</tspan></text><circle cx="273.59999999999997" cy="-90.0" r="2.6999999999999997" style="stroke:black;fill:black;stroke-width:2.0;stroke-dasharray:-;" /><text x="273.59999999999997" y="-93.7" dominant-baseline="hanging" fill="black" font-size="10" font-family="sans" text-anchor="middle"><tspan x="273.59999999999997" dy="10">AC_COM</tspan></text><circle cx="273.59999999999997" cy="-180.0" r="2.6999999999999997" style="stroke:black;fill:black;stroke-width:2.0;stroke-dasharray:-;" /><circle cx="273.59999999999997" cy="-306.0" r="2.6999999999999997" style="stroke:black;fill:black;stroke-width:2.0;stroke-dasharray:-;" /><text x="273.59999999999997" y="-322.3" dominant-baseline="ideographic" fill="black" font-size="10" font-family="sans" text-anchor="middle"><tspan x="273.59999999999997" dy="10">DATA</tspan></text></svg>