<svg xmlns="http://www.w3.org/2000/svg" xmlns:xlink="http://www.w3.org/1999/xlink" xml:lang="en" height="261.90000000000003pt" width="522.3800000000001pt" viewBox="-71.56000000000002 -267.2 522.3800000000001 261.90000000000003"><polygon points="134.99999999999997,-108.9 143.99999999999997,-121.5 153.0,-108.9 " style="stroke:black;fill:none;stroke-width:2.0;stroke-dasharray:-;stroke-linecap:round;stroke-linejoin:round;" /><polygon points="315.0,-132.29999999999998 306.0,-119.7 297.0,-132.29999999999998 " style="stroke:black;fill:none;stroke-width:2.0;stroke-dasharray:-;stroke-linecap:round;stroke-linejoin:round;" /><circle cx="334.91999999999996" cy="-43.26" r="19.8" style="stroke:black;fill:none;stroke-width:2.0;stroke-dasharray:-;" /><path d="M 0.0,-180.0 L 18.0,-180.0 L 36.0,-180.0" style="stroke:black;fill:none;stroke-width:2.0;stroke-dasharray:-;stroke-linecap:round;stroke-linejoin:round;" /><path d="M 36.0,-180.0 L 72.0,-180.0 L 74.99999999999999,-189.0 L 81.0,-171.0 L 87.0,-189.0 L 92.99999999999999,-171.0 L 99.0,-189.0 L 105.0,-171.0 L 108.0,-180.0 L 144.0,-180.0" style="stroke:black;fill:none;stroke-width:2.0;stroke-dasharray:-;stroke-linecap:round;stroke-linejoin:round;" /><path d="M 144.0,-180.0 L 144.0,-144.0 L 153.0,-141.0 L 135.0,-135.0 L 153.0,-129.0 L 134.99999999999997,-123.00000000000001 L 153.0,-117.0 L 134.99999999999997,-111.0 L 143.99999999999997,-108.0 L 143.99999999999997,-72.0" style="stroke:black;fill:none;stroke-width:2.0;stroke-dasharray:-;stroke-linecap:round;stroke-linejoin:round;" /><path d="M 89.99999999999999,-72.00000000000001 L 35.999999999999986,-72.00000000000001 L -18.000000000000014,-72.00000000000001" style="stroke:black;fill:none;stroke-width:2.0;stroke-dasharray:-;stroke-linecap:round;stroke-linejoin:round;" /><path d="M 89.99999999999999,-72.00000000000001 L 35.999999999999986,-72.00000000000001 L -18.000000000000014,-72.00000000000001" style="stroke:black;fill:none;stroke-width:2.0;stroke-dasharray:-;stroke-linecap:round;stroke-linejoin:round;" /><path d="M 144.0,-180.0 L 144.0,-174.6 L 144.0,-169.20000000000002" style="stroke:black;fill:none;stroke-width:2.0;stroke-dasharray:-;stroke-linecap:round;stroke-linejoin:round;" /><path d="M 144.0,-169.20000000000002 L 143.99999999999997,-121.5 M 135.0,-121.5 L 153.0,-121.5 M 143.99999999999997,-108.9 L 143.99999999999997,-61.2" style="stroke:black;fill:none;stroke-width:2.0;stroke-dasharray:-;stroke-linecap:round;stroke-linejoin:round;" /><path d="M 156.6,-125.10000000000001 L 153.0,-121.5" style="stroke:black;fill:none;stroke-width:2.0;stroke-dasharray:-;stroke-linecap:round;stroke-linejoin:round;" /><path d="M 131.4,-117.9 L 135.0,-121.5" style="stroke:black;fill:none;stroke-width:2.0;stroke-dasharray:-;stroke-linecap:round;stroke-linejoin:round;" /><path d="M 143.99999999999997,-61.2 L 143.99999999999997,-55.800000000000004 L 143.99999999999997,-50.4" style="stroke:black;fill:none;stroke-width:2.0;stroke-dasharray:-;stroke-linecap:round;stroke-linejoin:round;" /><path d="M 144.0,-180.0 L 162.0,-180.0 L 180.0,-180.0" style="stroke:black;fill:none;stroke-width:2.0;stroke-dasharray:-;stroke-linecap:round;stroke-linejoin:round;" /><path d="M 180.0,-180.0 L 216.0,-180.0 L 219.0,-189.0 L 225.0,-171.0 L 230.99999999999997,-189.0 L 237.0,-171.0 L 243.0,-189.0 L 248.99999999999997,-171.0 L 252.0,-180.0 L 288.0,-180.0" style="stroke:black;fill:none;stroke-width:2.0;stroke-dasharray:-;stroke-linecap:round;stroke-linejoin:round;" /><path d="M 288.0,-180.0 L 297.0,-180.0 L 306.0,-180.0" style="stroke:black;fill:none;stroke-width:2.0;stroke-dasharray:-;stroke-linecap:round;stroke-linejoin:round;" /><path d="M 306.0,-180.0 L 306.0,-132.29999999999998 M 315.0,-119.7 L 297.0,-119.7 M 306.0,-119.7 L 306.0,-72.0" style="stroke:black;fill:none;stroke-width:2.0;stroke-dasharray:-;stroke-linecap:round;stroke-linejoin:round;" /><path d="M 306.0,-72.0 L 306.0,-71.99999999999999 L 306.0,-71.99999999999999" style="stroke:black;fill:none;stroke-width:2.0;stroke-dasharray:-;stroke-linecap:round;stroke-linejoin:round;" /><path d="M 306.0,-71.99999999999999 L 153.0,-72.0 L 0.0,-72.00000000000001" style="stroke:black;fill:none;stroke-width:2.0;stroke-dasharray:-;stroke-linecap:round;stroke-linejoin:round;" /><path d="M 360.0,-180.0 L 360.0,-144.0 L 369.0,-141.0 L 351.0,-135.0 L 369.0,-129.0 L 351.0,-123.00000000000001 L 369.0,-117.0 L 351.0,-111.0 L 360.0,-108.0 L 360.0,-72.0" style="stroke:black;fill:none;stroke-width:2.0;stroke-dasharray:-;stroke-linecap:round;stroke-linejoin:round;" /><path d="M 360.0,-72.0 L 378.0,-72.0 L 396.0,-72.0" style="stroke:black;fill:none;stroke-width:2.0;stroke-dasharray:-;stroke-linecap:round;stroke-linejoin:round;" /><path d="M 360.0,-72.0 L 360.0,-54.0 L 360.0,-36.0" style="stroke:black;fill:none;stroke-width:2.0;stroke-dasharray:-;stroke-linecap:round;stroke-linejoin:round;" /><path d="M 334.91999999999996,-63.06 L 334.91999999999996,-49.86" style="stroke:black;fill:none;stroke-width:2.0;stroke-dasharray:-;stroke-linecap:round;stroke-linejoin:round;" /><path d="M 348.12,-49.86 L 321.72,-49.86000000000001" style="stroke:black;fill:none;stroke-width:2.0;stroke-dasharray:-;stroke-linecap:round;stroke-linejoin:round;" /><path d="M 341.52,-49.86 L 353.4,-36.0 L 360.0,-36.0" style="stroke:black;fill:none;stroke-width:2.0;stroke-dasharray:-;stroke-linecap:round;stroke-linejoin:round;" /><path d="M 328.32000000000005,-49.86000000000001 L 316.43999999999994,-36.00000000000001 L 309.84000000000003,-36.00000000000001" style="stroke:black;fill:none;stroke-width:2.0;stroke-dasharray:-;stroke-linecap:round;stroke-linejoin:round;" /><path d="M 360.0,-36.0 L 360.0,-21.599999999999998 L 351.0,-21.599999999999998 L 369.0,-21.599999999999998 M 353.7,-17.28 L 366.3,-17.28 M 358.2,-12.959999999999999 L 361.8,-12.959999999999999" style="stroke:black;fill:none;stroke-width:2.0;stroke-dasharray:-;stroke-linecap:round;stroke-linejoin:round;" /><path d="M 342.0,-216.0 L 342.0,-126.0 L 341.99999999999994,-36.0" style="stroke:gray;fill:none;stroke-width:2.0;stroke-dasharray:7.4,3.2;stroke-linecap:round;stroke-linejoin:round;" /><text x="3.6" y="-269.6" dominant-baseline="central" fill="black" font-size="14" font-family="sans" text-anchor="start"><tspan x="3.6" dy="14">Data Receive Circuit</tspan></text><text x="90.0" y="-216.6" dominant-baseline="ideographic" fill="black" font-size="12" font-family="sans" text-anchor="middle"><tspan x="90.0" dy="12">R4</tspan><tspan x="90.0" dy="12">47k立</tspan></text><text x="144.0" y="-207.6" dominant-baseline="ideographic" fill="black" font-size="12" font-family="sans" text-anchor="middle"><tspan x="144.0" dy="12">R5</tspan><tspan x="144.0" dy="12">10k立</tspan></text><text x="144.0" y="-196.8" dominant-baseline="ideographic" fill="black" font-size="12" font-family="sans" text-anchor="middle"><tspan x="144.0" dy="12">D1</tspan><tspan x="144.0" dy="12">5.1V</tspan></text><text x="234.0" y="-216.6" dominant-baseline="ideographic" fill="black" font-size="12" font-family="sans" text-anchor="middle"><tspan x="234.0" dy="12">R6</tspan><tspan x="234.0" dy="12">1k立</tspan></text><text x="306.0" y="-207.6" dominant-baseline="ideographic" fill="black" font-size="12" font-family="sans" text-anchor="middle"><tspan x="306.0" dy="12">4N35</tspan><tspan x="306.0" dy="12">LED</tspan></text><text x="360.0" y="-207.6" dominant-baseline="ideographic" fill="black" font-size="12" font-family="sans" text-anchor="middle"><tspan x="360.0" dy="12">R7</tspan><tspan x="360.0" dy="12">10k立</tspan></text><text x="334.91999999999996" y="-84.66" dominant-baseline="ideographic" fill="black" font-size="9" font-family="sans" text-anchor="middle"><tspan x="334.91999999999996" dy="9">Photo-</tspan><tspan x="334.91999999999996" dy="9">Transistor</tspan></text><text x="345.59999999999997" y="-23.4" dominant-baseline="central" fill="gray" font-size="9" font-family="sans" text-anchor="middle"><tspan x="345.59999999999997" dy="9">Isolation</tspan></text><circle cx="0.0" cy="-180.0" r="2.6999999999999997" style="stroke:black;fill:black;stroke-width:2.0;stroke-dasharray:-;" /><text x="-6.3" y="-195.0" dominant-baseline="central" fill="black" font-size="10" font-family="sans" text-anchor="end"><tspan x="-6.3" dy="10">DATA</tspan><tspan x="-6.3" dy="10">(0-15V)</tspan></text><circle cx="144.0" cy="-180.0" r="2.6999999999999997" style="stroke:black;fill:black;stroke-width:2.0;stroke-dasharray:-;" /><circle cx="-18.000000000000014" cy="-72.00000000000001" r="2.6999999999999997" style="stroke:black;fill:black;stroke-width:2.0;stroke-dasharray:-;" /><text x="-24.30000000000002" y="-82.00000000000001" dominant-baseline="central" fill="black" font-size="10" font-family="sans" text-anchor="end"><tspan x="-24.30000000000002" dy="10">AC_COM</tspan></text><circle cx="360.0" cy="-180.0" r="2.6999999999999997" style="stroke:black;fill:black;stroke-width:2.0;stroke-dasharray:-;" /><text x="360.0" y="-196.29999999999998" dominant-baseline="ideographic" fill="black" font-size="10" font-family="sans" text-anchor="middle"><tspan x="360.0" dy="10">VCC</tspan></text><circle cx="360.0" cy="-72.0" r="2.6999999999999997" style="stroke:black;fill:black;stroke-width:2.0;stroke-dasharray:-;" /><circle cx="396.0" cy="-72.0" r="2.6999999999999997" style="stroke:black;fill:black;stroke-width:2.0;stroke-dasharray:-;" /><text x="402.3" y="-87.0" dominant-baseline="central" fill="black" font-size="10" font-family="sans" text-anchor="start"><tspan x="402.3" dy="10">MCU_RX</tspan><tspan x="402.3" dy="10">(inverted)</tspan></text></svg>