<svg xmlns="http://www.w3.org/2000/svg" xmlns:xlink="http://www.w3.org/1999/xlink" xml:lang="en" height="1423.8pt" width="682.994pt" viewBox="-58.330000000000005 -807.2 682.994 1423.8"><polygon points="181.79999999999998,-555.3000000000001 172.79999999999998,-542.6999999999999 163.79999999999998,-555.3000000000001 " style="stroke:black;fill:none;stroke-width:2.0;stroke-dasharray:-;stroke-linecap:round;stroke-linejoin:round;" /><circle cx="375.936" cy="-455.808" r="15.840000000000002" style="stroke:black;fill:none;stroke-width:2.0;stroke-dasharray:-;" /><polygon points="171.0,-182.70000000000002 180.0,-195.29999999999998 189.0,-182.70000000000002 " style="stroke:black;fill:none;stroke-width:2.0;stroke-dasharray:-;stroke-linecap:round;stroke-linejoin:round;" /><polygon points="379.8,-195.29999999999998 370.8,-182.70000000000002 361.8,-195.29999999999998 " style="stroke:black;fill:none;stroke-width:2.0;stroke-dasharray:-;stroke-linecap:round;stroke-linejoin:round;" /><circle cx="375.936" cy="-275.808" r="15.840000000000002" style="stroke:black;fill:none;stroke-width:2.0;stroke-dasharray:-;" /><polygon points="387.0,-2.7000000000000224 396.0,-15.300000000000018 405.0,-2.7000000000000224 " style="stroke:black;fill:none;stroke-width:2.0;stroke-dasharray:-;stroke-linecap:round;stroke-linejoin:round;" /><circle cx="339.936" cy="-41.808" r="15.840000000000002" style="stroke:black;fill:none;stroke-width:2.0;stroke-dasharray:-;" /><polygon points="342.59999999999997,0.29999999999999094 333.59999999999997,12.899999999999986 324.59999999999997,0.29999999999999094 " style="stroke:black;fill:none;stroke-width:2.0;stroke-dasharray:-;stroke-linecap:round;stroke-linejoin:round;" /><path d="M 0.0,-612.0 L 18.0,-612.0 L 36.0,-612.0" style="stroke:black;fill:none;stroke-width:2.0;stroke-dasharray:-;stroke-linecap:round;stroke-linejoin:round;" /><path d="M 36.0,-612.0 L 81.0,-612.0 L 83.99999999999999,-621.0 L 90.0,-603.0 L 96.0,-621.0 L 101.99999999999999,-603.0 L 108.0,-621.0 L 114.0,-603.0 L 117.0,-612.0 L 162.0,-612.0" style="stroke:black;fill:none;stroke-width:2.0;stroke-dasharray:-;stroke-linecap:round;stroke-linejoin:round;" /><path d="M 162.0,-612.0 L 167.4,-612.0 L 172.79999999999998,-612.0" style="stroke:black;fill:none;stroke-width:2.0;stroke-dasharray:-;stroke-linecap:round;stroke-linejoin:round;" /><path d="M 172.79999999999998,-612.0 L 172.79999999999998,-555.3000000000001 M 181.79999999999998,-542.6999999999999 L 163.79999999999998,-542.6999999999999 M 172.79999999999998,-542.6999999999999 L 172.79999999999995,-486.0" style="stroke:black;fill:none;stroke-width:2.0;stroke-dasharray:-;stroke-linecap:round;stroke-linejoin:round;" /><path d="M 172.79999999999995,-486.0 L 172.79999999999995,-441.0 L 181.79999999999995,-438.0 L 163.79999999999995,-432.0 L 181.79999999999995,-426.0 L 163.79999999999995,-420.0 L 181.79999999999995,-414.0 L 163.79999999999995,-408.0 L 172.79999999999995,-405.0 L 172.79999999999993,-360.0" style="stroke:black;fill:none;stroke-width:2.0;stroke-dasharray:-;stroke-linecap:round;stroke-linejoin:round;" /><path d="M 172.79999999999993,-360.0 L 86.39999999999996,-360.0 L 0.0,-360.0" style="stroke:black;fill:none;stroke-width:2.0;stroke-dasharray:-;stroke-linecap:round;stroke-linejoin:round;" /><path d="M 396.0,-612.0 L 396.0,-567.0 L 405.0,-564.0 L 387.0,-558.0 L 405.0,-552.0 L 387.0,-546.0 L 405.0,-540.0 L 387.0,-534.0 L 396.0,-531.0 L 396.0,-486.0" style="stroke:black;fill:none;stroke-width:2.0;stroke-dasharray:-;stroke-linecap:round;stroke-linejoin:round;" /><path d="M 396.0,-486.0 L 396.0,-468.0 L 396.0,-450.0" style="stroke:black;fill:none;stroke-width:2.0;stroke-dasharray:-;stroke-linecap:round;stroke-linejoin:round;" /><path d="M 375.93600000000004,-471.64799999999997 L 375.93600000000004,-461.08799999999997" style="stroke:black;fill:none;stroke-width:2.0;stroke-dasharray:-;stroke-linecap:round;stroke-linejoin:round;" /><path d="M 386.49600000000004,-461.08799999999997 L 365.376,-461.08799999999997" style="stroke:black;fill:none;stroke-width:2.0;stroke-dasharray:-;stroke-linecap:round;stroke-linejoin:round;" /><path d="M 381.216,-461.08799999999997 L 390.72,-450.0 L 396.0,-450.0" style="stroke:black;fill:none;stroke-width:2.0;stroke-dasharray:-;stroke-linecap:round;stroke-linejoin:round;" /><path d="M 370.65599999999995,-461.08799999999997 L 361.152,-450.0 L 355.872,-450.0" style="stroke:black;fill:none;stroke-width:2.0;stroke-dasharray:-;stroke-linecap:round;stroke-linejoin:round;" /><path d="M 370.65599999999995,-461.08799999999997 L 367.0091223611037,-456.8333094212877" style="stroke:black;fill:none;stroke-width:2.0;stroke-dasharray:-;stroke-linecap:round;stroke-linejoin:round;" /><path d="M 362.45358274691193 -451.5185132047306 L 364.2757985925886 -459.1761583657292 L 369.74244612961877 -454.4904604768462 Z" style="stroke:black;fill:black;stroke-linecap:butt;stroke-linejoin:miter;" /><path d="M 396.0,-450.0 L 396.0,-435.59999999999997 L 387.0,-435.59999999999997 L 405.0,-435.59999999999997 M 389.7,-431.28000000000003 L 402.3,-431.28000000000003 M 394.2,-426.96 L 397.8,-426.96" style="stroke:black;fill:none;stroke-width:2.0;stroke-dasharray:-;stroke-linecap:round;stroke-linejoin:round;" /><path d="M 0.0,-252.0 L 18.0,-252.0 L 36.0,-252.0" style="stroke:black;fill:none;stroke-width:2.0;stroke-dasharray:-;stroke-linecap:round;stroke-linejoin:round;" /><path d="M 36.0,-252.0 L 81.0,-252.0 L 83.99999999999999,-261.0 L 90.0,-243.0 L 96.0,-261.0 L 101.99999999999999,-243.0 L 108.0,-261.0 L 114.0,-243.0 L 117.0,-252.0 L 162.0,-252.0" style="stroke:black;fill:none;stroke-width:2.0;stroke-dasharray:-;stroke-linecap:round;stroke-linejoin:round;" /><path d="M 162.0,-252.0 L 171.0,-252.0 L 180.0,-252.0" style="stroke:black;fill:none;stroke-width:2.0;stroke-dasharray:-;stroke-linecap:round;stroke-linejoin:round;" /><path d="M 180.0,-252.0 L 180.0,-195.29999999999998 M 171.0,-195.29999999999998 L 189.0,-195.29999999999998 M 180.0,-182.70000000000002 L 179.99999999999997,-126.0" style="stroke:black;fill:none;stroke-width:2.0;stroke-dasharray:-;stroke-linecap:round;stroke-linejoin:round;" /><path d="M 192.6,-198.9 L 189.0,-195.29999999999998" style="stroke:black;fill:none;stroke-width:2.0;stroke-dasharray:-;stroke-linecap:round;stroke-linejoin:round;" /><path d="M 167.39999999999998,-191.70000000000002 L 171.0,-195.29999999999998" style="stroke:black;fill:none;stroke-width:2.0;stroke-dasharray:-;stroke-linecap:round;stroke-linejoin:round;" /><path d="M 179.99999999999997,-126.0 L 179.99999999999994,27.0 L 179.99999999999991,180.0" style="stroke:black;fill:none;stroke-width:2.0;stroke-dasharray:-;stroke-linecap:round;stroke-linejoin:round;" /><path d="M 179.99999999999991,180.0 L 89.99999999999996,180.0 L 0.0,179.99999999999997" style="stroke:black;fill:none;stroke-width:2.0;stroke-dasharray:-;stroke-linecap:round;stroke-linejoin:round;" /><path d="M 162.0,-252.0 L 162.0,-243.0 L 162.0,-234.0" style="stroke:black;fill:none;stroke-width:2.0;stroke-dasharray:-;stroke-linecap:round;stroke-linejoin:round;" /><path d="M 162.0,-234.0 L 162.0,-189.0 L 171.0,-186.0 L 153.0,-180.0 L 171.0,-174.00000000000003 L 153.0,-168.0 L 171.0,-162.0 L 153.0,-156.00000000000003 L 162.0,-153.0 L 161.99999999999997,-108.0" style="stroke:black;fill:none;stroke-width:2.0;stroke-dasharray:-;stroke-linecap:round;stroke-linejoin:round;" /><path d="M 161.99999999999997,-108.0 L 80.99999999999999,-108.00000000000001 L 0.0,-108.00000000000001" style="stroke:black;fill:none;stroke-width:2.0;stroke-dasharray:-;stroke-linecap:round;stroke-linejoin:round;" /><path d="M 162.0,-252.0 L 198.0,-252.0 L 234.0,-252.0" style="stroke:black;fill:none;stroke-width:2.0;stroke-dasharray:-;stroke-linecap:round;stroke-linejoin:round;" /><path d="M 234.0,-252.0 L 279.0,-252.0 L 282.0,-261.0 L 288.0,-243.0 L 294.0,-261.0 L 300.0,-243.0 L 306.0,-261.0 L 312.0,-243.0 L 315.0,-252.0 L 360.0,-252.0" style="stroke:black;fill:none;stroke-width:2.0;stroke-dasharray:-;stroke-linecap:round;stroke-linejoin:round;" /><path d="M 360.0,-252.0 L 365.40000000000003,-252.0 L 370.8,-252.0" style="stroke:black;fill:none;stroke-width:2.0;stroke-dasharray:-;stroke-linecap:round;stroke-linejoin:round;" /><path d="M 370.8,-252.0 L 370.8,-195.29999999999998 M 379.8,-182.70000000000002 L 361.8,-182.70000000000002 M 370.8,-182.70000000000002 L 370.8,-126.0" style="stroke:black;fill:none;stroke-width:2.0;stroke-dasharray:-;stroke-linecap:round;stroke-linejoin:round;" /><path d="M 370.8,-126.0 L 370.8,27.0 L 370.79999999999995,180.0" style="stroke:black;fill:none;stroke-width:2.0;stroke-dasharray:-;stroke-linecap:round;stroke-linejoin:round;" /><path d="M 370.79999999999995,180.0 L 185.39999999999998,179.99999999999997 L 0.0,179.99999999999997" style="stroke:black;fill:none;stroke-width:2.0;stroke-dasharray:-;stroke-linecap:round;stroke-linejoin:round;" /><path d="M 396.0,-432.0 L 396.0,-387.0 L 405.0,-384.0 L 387.0,-378.0 L 405.0,-372.0 L 387.0,-366.0 L 405.0,-360.0 L 387.0,-354.0 L 396.0,-351.0 L 396.0,-306.0" style="stroke:black;fill:none;stroke-width:2.0;stroke-dasharray:-;stroke-linecap:round;stroke-linejoin:round;" /><path d="M 396.0,-306.0 L 396.0,-288.0 L 396.0,-270.0" style="stroke:black;fill:none;stroke-width:2.0;stroke-dasharray:-;stroke-linecap:round;stroke-linejoin:round;" /><path d="M 375.93600000000004,-291.64799999999997 L 375.93600000000004,-281.08799999999997" style="stroke:black;fill:none;stroke-width:2.0;stroke-dasharray:-;stroke-linecap:round;stroke-linejoin:round;" /><path d="M 386.49600000000004,-281.08799999999997 L 365.376,-281.08799999999997" style="stroke:black;fill:none;stroke-width:2.0;stroke-dasharray:-;stroke-linecap:round;stroke-linejoin:round;" /><path d="M 381.216,-281.08799999999997 L 390.72,-270.0 L 396.0,-270.0" style="stroke:black;fill:none;stroke-width:2.0;stroke-dasharray:-;stroke-linecap:round;stroke-linejoin:round;" /><path d="M 370.65599999999995,-281.08799999999997 L 361.152,-270.0 L 355.872,-270.0" style="stroke:black;fill:none;stroke-width:2.0;stroke-dasharray:-;stroke-linecap:round;stroke-linejoin:round;" /><path d="M 370.65599999999995,-281.08799999999997 L 367.0091223611037,-276.8333094212877" style="stroke:black;fill:none;stroke-width:2.0;stroke-dasharray:-;stroke-linecap:round;stroke-linejoin:round;" /><path d="M 362.45358274691193 -271.5185132047306 L 364.2757985925886 -279.1761583657292 L 369.74244612961877 -274.4904604768462 Z" style="stroke:black;fill:black;stroke-linecap:butt;stroke-linejoin:miter;" /><path d="M 396.0,-270.0 L 396.0,-255.6 L 387.0,-255.6 L 405.0,-255.6 M 389.7,-251.28000000000003 L 402.3,-251.28000000000003 M 394.2,-246.96 L 397.8,-246.96" style="stroke:black;fill:none;stroke-width:2.0;stroke-dasharray:-;stroke-linecap:round;stroke-linejoin:round;" /><path d="M 576.0,-72.0 L 558.0,-72.0 L 540.0,-72.0" style="stroke:black;fill:none;stroke-width:2.0;stroke-dasharray:-;stroke-linecap:round;stroke-linejoin:round;" /><path d="M 540.0,-72.0 L 495.0,-72.0 L 492.0,-63.00000000000001 L 486.0,-81.0 L 480.0,-63.00000000000001 L 474.0,-81.0 L 468.0,-63.00000000000001 L 462.0,-81.00000000000001 L 459.0,-72.00000000000001 L 414.0,-72.00000000000001" style="stroke:black;fill:none;stroke-width:2.0;stroke-dasharray:-;stroke-linecap:round;stroke-linejoin:round;" /><path d="M 414.0,-72.00000000000001 L 405.0,-72.00000000000001 L 396.0,-72.00000000000001" style="stroke:black;fill:none;stroke-width:2.0;stroke-dasharray:-;stroke-linecap:round;stroke-linejoin:round;" /><path d="M 396.0,-72.00000000000001 L 396.0,-15.300000000000018 M 387.0,-15.300000000000018 L 405.0,-15.300000000000018 M 396.0,-2.7000000000000224 L 396.0,53.999999999999986" style="stroke:black;fill:none;stroke-width:2.0;stroke-dasharray:-;stroke-linecap:round;stroke-linejoin:round;" /><path d="M 396.0,53.999999999999986 L 396.0,68.39999999999998 L 387.0,68.39999999999998 L 405.0,68.39999999999998 M 389.7,72.71999999999998 L 402.3,72.71999999999998 M 394.2,77.03999999999999 L 397.8,77.03999999999999" style="stroke:black;fill:none;stroke-width:2.0;stroke-dasharray:-;stroke-linecap:round;stroke-linejoin:round;" /><path d="M 360.0,-72.0 L 360.0,-54.0 L 360.0,-36.0" style="stroke:black;fill:none;stroke-width:2.0;stroke-dasharray:-;stroke-linecap:round;stroke-linejoin:round;" /><path d="M 339.93600000000004,-57.647999999999996 L 339.93600000000004,-47.088" style="stroke:black;fill:none;stroke-width:2.0;stroke-dasharray:-;stroke-linecap:round;stroke-linejoin:round;" /><path d="M 350.49600000000004,-47.088 L 329.376,-47.08800000000001" style="stroke:black;fill:none;stroke-width:2.0;stroke-dasharray:-;stroke-linecap:round;stroke-linejoin:round;" /><path d="M 345.216,-47.088 L 354.72,-36.0 L 360.0,-36.0" style="stroke:black;fill:none;stroke-width:2.0;stroke-dasharray:-;stroke-linecap:round;stroke-linejoin:round;" /><path d="M 334.65599999999995,-47.088 L 325.152,-36.00000000000001 L 319.872,-36.00000000000001" style="stroke:black;fill:none;stroke-width:2.0;stroke-dasharray:-;stroke-linecap:round;stroke-linejoin:round;" /><path d="M 334.65599999999995,-47.088 L 331.0091223611037,-42.83330942128768" style="stroke:black;fill:none;stroke-width:2.0;stroke-dasharray:-;stroke-linecap:round;stroke-linejoin:round;" /><path d="M 326.45358274691193 -37.5185132047306 L 328.2757985925886 -45.176158365729165 L 333.74244612961877 -40.4904604768462 Z" style="stroke:black;fill:black;stroke-linecap:butt;stroke-linejoin:miter;" /><path d="M 360.0,-36.0 L 360.0,9.0 L 369.0,11.999999999999996 L 351.0,18.0 L 369.0,23.999999999999993 L 351.0,29.999999999999996 L 369.0,36.0 L 351.0,41.99999999999999 L 360.0,45.0 L 360.0,90.0" style="stroke:black;fill:none;stroke-width:2.0;stroke-dasharray:-;stroke-linecap:round;stroke-linejoin:round;" /><path d="M 360.0,90.0 L 359.99999999999994,351.0 L 359.99999999999994,612.0" style="stroke:black;fill:none;stroke-width:2.0;stroke-dasharray:-;stroke-linecap:round;stroke-linejoin:round;" /><path d="M 359.99999999999994,612.0 L 179.99999999999997,612.0 L 0.0,612.0" style="stroke:black;fill:none;stroke-width:2.0;stroke-dasharray:-;stroke-linecap:round;stroke-linejoin:round;" /><path d="M 360.0,-36.0 L 315.0,-36.00000000000001 L 270.0,-36.00000000000001" style="stroke:black;fill:none;stroke-width:2.0;stroke-dasharray:-;stroke-linecap:round;stroke-linejoin:round;" /><path d="M 243.6,-50.400000000000006 L 243.6,-38.400000000000006 L 255.6,-38.400000000000006 L 255.6,-14.400000000000006 L 243.6,-14.40000000000001 L 243.6,-2.4000000000000075" style="stroke:black;fill:none;stroke-width:2.0;stroke-dasharray:-;stroke-linecap:round;stroke-linejoin:round;" /><path d="M 258.0,-36.00000000000001 L 258.0,-16.800000000000004" style="stroke:black;fill:none;stroke-width:2.0;stroke-dasharray:-;stroke-linecap:round;stroke-linejoin:round;" /><path d="M 270.0,-36.00000000000001 L 258.0,-36.00000000000001" style="stroke:black;fill:none;stroke-width:2.0;stroke-dasharray:-;stroke-linecap:round;stroke-linejoin:round;" /><path d="M 246.6,-26.400000000000006 L 243.6,-26.40000000000001" style="stroke:black;fill:none;stroke-width:2.0;stroke-dasharray:-;stroke-linecap:round;stroke-linejoin:round;" /><path d="M 253.6 -26.400000000000006 L 246.6 -21.900000000000006 L 246.6 -30.900000000000006 Z" style="stroke:black;fill:black;stroke-linecap:butt;stroke-linejoin:miter;" /><path d="M 243.6,-2.4000000000000075 L 243.6,-29.400000000000006 L 243.6,-56.400000000000006" style="stroke:black;fill:none;stroke-width:2.0;stroke-dasharray:-;stroke-linecap:round;stroke-linejoin:round;" /><path d="M 243.6,-56.400000000000006 L 243.6,-101.4 L 234.6,-104.4 L 252.6,-110.4 L 234.6,-116.4 L 252.6,-122.4 L 234.6,-128.4 L 252.6,-134.4 L 243.6,-137.4 L 243.6,-182.39999999999998" style="stroke:black;fill:none;stroke-width:2.0;stroke-dasharray:-;stroke-linecap:round;stroke-linejoin:round;" /><path d="M 243.6,-182.39999999999998 L 243.6,-217.2 L 243.6,-252.0" style="stroke:black;fill:none;stroke-width:2.0;stroke-dasharray:-;stroke-linecap:round;stroke-linejoin:round;" /><path d="M 243.6,-252.0 L 148.79999999999998,-252.0 L 54.0,-252.00000000000003" style="stroke:black;fill:none;stroke-width:2.0;stroke-dasharray:-;stroke-linecap:round;stroke-linejoin:round;" /><path d="M 243.6,-56.400000000000006 L 288.59999999999997,-56.400000000000006 L 333.59999999999997,-56.400000000000006" style="stroke:black;fill:none;stroke-width:2.0;stroke-dasharray:-;stroke-linecap:round;stroke-linejoin:round;" /><path d="M 333.59999999999997,-56.400000000000006 L 333.59999999999997,0.29999999999999094 M 342.59999999999997,12.899999999999986 L 324.59999999999997,12.899999999999986 M 333.59999999999997,12.899999999999986 L 333.59999999999997,69.6" style="stroke:black;fill:none;stroke-width:2.0;stroke-dasharray:-;stroke-linecap:round;stroke-linejoin:round;" /><path d="M 333.59999999999997,69.6 L 333.5999999999999,320.40000000000003 L 333.5999999999999,571.2" style="stroke:black;fill:none;stroke-width:2.0;stroke-dasharray:-;stroke-linecap:round;stroke-linejoin:round;" /><path d="M 333.5999999999999,571.2 L 166.79999999999995,571.2 L 0.0,571.1999999999999" style="stroke:black;fill:none;stroke-width:2.0;stroke-dasharray:-;stroke-linecap:round;stroke-linejoin:round;" /><path d="M 243.6,-50.400000000000006 L 243.59999999999997,140.39999999999998 L 243.59999999999994,331.2" style="stroke:black;fill:none;stroke-width:2.0;stroke-dasharray:-;stroke-linecap:round;stroke-linejoin:round;" /><path d="M 243.59999999999994,331.2 L 121.79999999999997,331.2 L 0.0,331.2" style="stroke:black;fill:none;stroke-width:2.0;stroke-dasharray:-;stroke-linecap:round;stroke-linejoin:round;" /><path d="M 396.0,-486.0 L 486.0,-486.0 L 576.0,-486.0" style="stroke:black;fill:none;stroke-width:2.0;stroke-dasharray:-;stroke-linecap:round;stroke-linejoin:round;" /><path d="M 396.0,-306.0 L 486.0,-306.0 L 576.0,-306.0" style="stroke:black;fill:none;stroke-width:2.0;stroke-dasharray:-;stroke-linecap:round;stroke-linejoin:round;" /><path d="M 414.0,-720.0 L 413.99999999999994,-324.0 L 413.9999999999999,72.0" style="stroke:red;fill:none;stroke-width:1.5;stroke-dasharray:7.4,3.2;stroke-linecap:round;stroke-linejoin:round;" /><text x="3.6" y="-809.6" dominant-baseline="central" fill="black" font-size="14" font-family="sans" text-anchor="start"><tspan x="3.6" dy="14">EnviraCOM Interface - Complete Schematic</tspan></text><text x="3.6" y="-769.6" dominant-baseline="central" fill="black" font-size="10" font-family="sans" text-anchor="start"><tspan x="3.6" dy="10">Galvanic isolation between 24VAC HVAC bus and 3.3V MCU</tspan></text><text x="3.6" y="-698.6" dominant-baseline="central" fill="black" font-size="11" font-family="sans" text-anchor="start"><tspan x="3.6" dy="11">HVAC Bus (J1)</tspan></text><text x="111.60000000000001" y="-679.6" dominant-baseline="central" fill="black" font-size="10" font-family="sans" text-anchor="middle"><tspan x="111.60000000000001" dy="10">Zero-Crossing</tspan></text><text x="99.0" y="-630.8000000000001" dominant-baseline="ideographic" fill="black" font-size="8" font-family="sans" text-anchor="middle"><tspan x="99.0" dy="8">R1</tspan></text><text x="99.0" y="-609.1999999999999" dominant-baseline="hanging" fill="black" font-size="8" font-family="sans" text-anchor="middle"><tspan x="99.0" dy="8">4.7k</tspan></text><text x="172.79999999999998" y="-627.1999999999999" dominant-baseline="ideographic" fill="black" font-size="8" font-family="sans" text-anchor="middle"><tspan x="172.79999999999998" dy="8">U1</tspan></text><text x="172.79999999999995" y="-495.8" dominant-baseline="ideographic" fill="black" font-size="8" font-family="sans" text-anchor="middle"><tspan x="172.79999999999995" dy="8">R2</tspan></text><text x="172.79999999999993" y="-366.2" dominant-baseline="hanging" fill="black" font-size="8" font-family="sans" text-anchor="middle"><tspan x="172.79999999999993" dy="8">4.7k</tspan></text><text x="396.0" y="-625.4" dominant-baseline="ideographic" fill="black" font-size="8" font-family="sans" text-anchor="middle"><tspan x="396.0" dy="8">R3</tspan></text><text x="396.0" y="-488.59999999999997" dominant-baseline="hanging" fill="black" font-size="8" font-family="sans" text-anchor="middle"><tspan x="396.0" dy="8">10k</tspan></text><text x="111.60000000000001" y="-492.40000000000003" dominant-baseline="central" fill="black" font-size="10" font-family="sans" text-anchor="middle"><tspan x="111.60000000000001" dy="10">Data Receive</tspan></text><text x="99.0" y="-270.8" dominant-baseline="ideographic" fill="black" font-size="8" font-family="sans" text-anchor="middle"><tspan x="99.0" dy="8">R4</tspan></text><text x="99.0" y="-249.20000000000002" dominant-baseline="hanging" fill="black" font-size="8" font-family="sans" text-anchor="middle"><tspan x="99.0" dy="8">4.7k</tspan></text><text x="180.0" y="-265.40000000000003" dominant-baseline="ideographic" fill="black" font-size="8" font-family="sans" text-anchor="middle"><tspan x="180.0" dy="8">D1</tspan></text><text x="162.0" y="-247.4" dominant-baseline="ideographic" fill="black" font-size="8" font-family="sans" text-anchor="middle"><tspan x="162.0" dy="8">R5</tspan></text><text x="161.99999999999997" y="-110.60000000000001" dominant-baseline="hanging" fill="black" font-size="8" font-family="sans" text-anchor="middle"><tspan x="161.99999999999997" dy="8">1.2k</tspan></text><text x="297.0" y="-270.8" dominant-baseline="ideographic" fill="black" font-size="8" font-family="sans" text-anchor="middle"><tspan x="297.0" dy="8">R6</tspan></text><text x="297.0" y="-249.20000000000002" dominant-baseline="hanging" fill="black" font-size="8" font-family="sans" text-anchor="middle"><tspan x="297.0" dy="8">220</tspan></text><text x="370.8" y="-267.2" dominant-baseline="ideographic" fill="black" font-size="8" font-family="sans" text-anchor="middle"><tspan x="370.8" dy="8">U2</tspan></text><text x="396.0" y="-445.40000000000003" dominant-baseline="ideographic" fill="black" font-size="8" font-family="sans" text-anchor="middle"><tspan x="396.0" dy="8">R7</tspan></text><text x="396.0" y="-308.59999999999997" dominant-baseline="hanging" fill="black" font-size="8" font-family="sans" text-anchor="middle"><tspan x="396.0" dy="8">22k</tspan></text><text x="111.60000000000001" y="-204.4" dominant-baseline="central" fill="black" font-size="10" font-family="sans" text-anchor="middle"><tspan x="111.60000000000001" dy="10">Data Transmit</tspan></text><text x="3.5999999999999996" y="139.6" dominant-baseline="central" fill="gray" font-size="8" font-family="sans" text-anchor="start"><tspan x="3.5999999999999996" dy="8">V_AC = 12V AC-side rail from AC_HOT (D3 1N4007 + R11 33k + D4 12V Zener + C1 10µF), referenced to AC_COM</tspan></text><text x="477.0" y="-90.80000000000001" dominant-baseline="ideographic" fill="black" font-size="8" font-family="sans" text-anchor="middle"><tspan x="477.0" dy="8">R8</tspan></text><text x="477.0" y="-69.2" dominant-baseline="hanging" fill="black" font-size="8" font-family="sans" text-anchor="middle"><tspan x="477.0" dy="8">330</tspan></text><text x="396.0" y="-87.2" dominant-baseline="ideographic" fill="black" font-size="8" font-family="sans" text-anchor="middle"><tspan x="396.0" dy="8">U3</tspan></text><text x="360.0" y="-51.199999999999996" dominant-baseline="ideographic" fill="black" font-size="8" font-family="sans" text-anchor="middle"><tspan x="360.0" dy="8">R9</tspan></text><text x="360.0" y="89.2" dominant-baseline="hanging" fill="black" font-size="8" font-family="sans" text-anchor="middle"><tspan x="360.0" dy="8">100k</tspan></text><text x="232.08" y="-34.400000000000006" dominant-baseline="central" fill="black" font-size="8" font-family="sans" text-anchor="end"><tspan x="232.08" dy="8">Q1</tspan></text><text x="243.6" y="-57.20000000000001" dominant-baseline="hanging" fill="black" font-size="8" font-family="sans" text-anchor="middle"><tspan x="243.6" dy="8">R10</tspan></text><text x="243.6" y="-197.60000000000002" dominant-baseline="ideographic" fill="black" font-size="8" font-family="sans" text-anchor="middle"><tspan x="243.6" dy="8">22Ω</tspan></text><text x="333.59999999999997" y="-73.4" dominant-baseline="ideographic" fill="black" font-size="8" font-family="sans" text-anchor="middle"><tspan x="333.59999999999997" dy="8">D2</tspan></text><text x="572.4" y="-691.4" dominant-baseline="central" fill="black" font-size="11" font-family="sans" text-anchor="start"><tspan x="572.4" dy="11">MCU (J2)</tspan></text><text x="417.59999999999997" y="84.60000000000001" dominant-baseline="central" fill="red" font-size="9" font-family="sans" text-anchor="middle"><tspan x="417.59999999999997" dy="9">ISOLATION BARRIER</tspan></text><circle cx="0.0" cy="-612.0" r="2.6999999999999997" style="stroke:black;fill:black;stroke-width:2.0;stroke-dasharray:-;" /><text x="-8.1" y="-621.0" dominant-baseline="central" fill="black" font-size="9" font-family="sans" text-anchor="end"><tspan x="-8.1" dy="9">1:R (24V)</tspan></text><circle cx="0.0" cy="-432.0" r="2.6999999999999997" style="stroke:black;fill:black;stroke-width:2.0;stroke-dasharray:-;" /><text x="-8.1" y="-441.0" dominant-baseline="central" fill="black" font-size="9" font-family="sans" text-anchor="end"><tspan x="-8.1" dy="9">2:C (COM)</tspan></text><circle cx="0.0" cy="-252.0" r="2.6999999999999997" style="stroke:black;fill:black;stroke-width:2.0;stroke-dasharray:-;" /><text x="-8.1" y="-261.0" dominant-baseline="central" fill="black" font-size="9" font-family="sans" text-anchor="end"><tspan x="-8.1" dy="9">3:D (DATA)</tspan></text><circle cx="396.0" cy="-612.0" r="2.6999999999999997" style="stroke:black;fill:black;stroke-width:2.0;stroke-dasharray:-;" /><text x="396.0" y="-627.3000000000001" dominant-baseline="ideographic" fill="black" font-size="9" font-family="sans" text-anchor="middle"><tspan x="396.0" dy="9">VCC</tspan></text><circle cx="396.0" cy="-486.0" r="2.6999999999999997" style="stroke:black;fill:black;stroke-width:2.0;stroke-dasharray:-;" /><circle cx="162.0" cy="-252.0" r="2.6999999999999997" style="stroke:black;fill:black;stroke-width:2.0;stroke-dasharray:-;" /><circle cx="396.0" cy="-432.0" r="2.6999999999999997" style="stroke:black;fill:black;stroke-width:2.0;stroke-dasharray:-;" /><text x="396.0" y="-447.3" dominant-baseline="ideographic" fill="black" font-size="9" font-family="sans" text-anchor="middle"><tspan x="396.0" dy="9">VCC</tspan></text><circle cx="396.0" cy="-306.0" r="2.6999999999999997" style="stroke:black;fill:black;stroke-width:2.0;stroke-dasharray:-;" /><circle cx="576.0" cy="-72.0" r="2.6999999999999997" style="stroke:black;fill:black;stroke-width:2.0;stroke-dasharray:-;" /><text x="584.1" y="-81.0" dominant-baseline="central" fill="black" font-size="9" font-family="sans" text-anchor="start"><tspan x="584.1" dy="9">MCU_TX</tspan></text><circle cx="360.0" cy="-72.0" r="2.6999999999999997" style="stroke:black;fill:black;stroke-width:2.0;stroke-dasharray:-;" /><text x="360.0" y="-87.3" dominant-baseline="ideographic" fill="black" font-size="9" font-family="sans" text-anchor="middle"><tspan x="360.0" dy="9">V_AC</tspan></text><circle cx="576.0" cy="-486.0" r="2.6999999999999997" style="stroke:black;fill:black;stroke-width:2.0;stroke-dasharray:-;" /><text x="584.1" y="-495.0" dominant-baseline="central" fill="black" font-size="9" font-family="sans" text-anchor="start"><tspan x="584.1" dy="9">3:ZC</tspan></text><circle cx="576.0" cy="-306.0" r="2.6999999999999997" style="stroke:black;fill:black;stroke-width:2.0;stroke-dasharray:-;" /><text x="584.1" y="-315.0" dominant-baseline="central" fill="black" font-size="9" font-family="sans" text-anchor="start"><tspan x="584.1" dy="9">4:RX</tspan></text><circle cx="576.0" cy="-612.0" r="2.6999999999999997" style="stroke:black;fill:black;stroke-width:2.0;stroke-dasharray:-;" /><text x="584.1" y="-621.0" dominant-baseline="central" fill="black" font-size="9" font-family="sans" text-anchor="start"><tspan x="584.1" dy="9">1:VCC</tspan></text><circle cx="576.0" cy="-144.0" r="2.6999999999999997" style="stroke:black;fill:black;stroke-width:2.0;stroke-dasharray:-;" /><text x="584.1" y="-153.0" dominant-baseline="central" fill="black" font-size="9" font-family="sans" text-anchor="start"><tspan x="584.1" dy="9">2:GND</tspan></text></svg>