<svg xmlns="http://www.w3.org/2000/svg" xmlns:xlink="http://www.w3.org/1999/xlink" xml:lang="en" height="258.84000000000003pt" width="520.1pt" viewBox="-53.56 -231.20000000000002 520.1 258.84000000000003"><polygon points="279.0,-96.3 270.0,-83.7 261.0,-96.3 " style="stroke:black;fill:none;stroke-width:2.0;stroke-dasharray:-;stroke-linecap:round;stroke-linejoin:round;" /><circle cx="334.91999999999996" cy="-7.260000000000001" r="19.8" style="stroke:black;fill:none;stroke-width:2.0;stroke-dasharray:-;" /><path d="M 0.0,-144.0 L 18.0,-144.0 L 36.0,-144.0" style="stroke:black;fill:none;stroke-width:2.0;stroke-dasharray:-;stroke-linecap:round;stroke-linejoin:round;" /><path d="M 36.0,-144.0 L 72.0,-144.0 L 74.99999999999999,-153.0 L 81.0,-135.0 L 87.0,-153.0 L 92.99999999999999,-135.0 L 99.0,-153.0 L 105.0,-135.0 L 108.0,-144.0 L 144.0,-144.0" style="stroke:black;fill:none;stroke-width:2.0;stroke-dasharray:-;stroke-linecap:round;stroke-linejoin:round;" /><path d="M 144.0,-144.0 L 180.0,-144.0 L 183.0,-153.0 L 189.0,-135.0 L 194.99999999999997,-153.0 L 201.0,-135.0 L 207.0,-153.0 L 212.99999999999997,-135.0 L 216.0,-144.0 L 252.0,-144.0" style="stroke:black;fill:none;stroke-width:2.0;stroke-dasharray:-;stroke-linecap:round;stroke-linejoin:round;" /><path d="M 252.0,-144.0 L 261.0,-144.0 L 270.0,-144.0" style="stroke:black;fill:none;stroke-width:2.0;stroke-dasharray:-;stroke-linecap:round;stroke-linejoin:round;" /><path d="M 270.0,-144.0 L 270.0,-96.3 M 279.0,-83.7 L 261.0,-83.7 M 270.0,-83.7 L 269.99999999999994,-36.0" style="stroke:black;fill:none;stroke-width:2.0;stroke-dasharray:-;stroke-linecap:round;stroke-linejoin:round;" /><path d="M 269.99999999999994,-36.0 L 260.99999999999994,-36.0 L 251.99999999999997,-36.0" style="stroke:black;fill:none;stroke-width:2.0;stroke-dasharray:-;stroke-linecap:round;stroke-linejoin:round;" /><path d="M 143.99999999999997,-36.000000000000014 L 125.99999999999999,-36.000000000000014 L 71.99999999999999,-36.00000000000002 L 17.999999999999986,-36.00000000000003 L 0.0,-36.00000000000003" style="stroke:black;fill:none;stroke-width:2.0;stroke-dasharray:-;stroke-linecap:round;stroke-linejoin:round;" /><path d="M 143.99999999999997,-36.000000000000014 L 125.99999999999999,-36.000000000000014 L 71.99999999999999,-36.00000000000002 L 17.999999999999986,-36.00000000000003 L 0.0,-36.00000000000003" style="stroke:black;fill:none;stroke-width:2.0;stroke-dasharray:-;stroke-linecap:round;stroke-linejoin:round;" /><path d="M 324.0,-144.0 L 342.0,-144.0 L 360.0,-144.0" style="stroke:black;fill:none;stroke-width:2.0;stroke-dasharray:-;stroke-linecap:round;stroke-linejoin:round;" /><path d="M 360.0,-144.0 L 360.0,-108.0 L 369.0,-105.00000000000001 L 351.0,-99.0 L 369.0,-93.0 L 351.0,-87.00000000000001 L 369.0,-81.0 L 351.0,-75.0 L 360.0,-72.0 L 360.0,-36.0" style="stroke:black;fill:none;stroke-width:2.0;stroke-dasharray:-;stroke-linecap:round;stroke-linejoin:round;" /><path d="M 360.0,-36.0 L 378.0,-36.0 L 396.0,-36.0" style="stroke:black;fill:none;stroke-width:2.0;stroke-dasharray:-;stroke-linecap:round;stroke-linejoin:round;" /><path d="M 360.0,-36.0 L 360.0,-18.0 L 360.0,-0.0" style="stroke:black;fill:none;stroke-width:2.0;stroke-dasharray:-;stroke-linecap:round;stroke-linejoin:round;" /><path d="M 334.91999999999996,-27.060000000000002 L 334.91999999999996,-13.860000000000003" style="stroke:black;fill:none;stroke-width:2.0;stroke-dasharray:-;stroke-linecap:round;stroke-linejoin:round;" /><path d="M 348.12,-13.86 L 321.72,-13.860000000000007" style="stroke:black;fill:none;stroke-width:2.0;stroke-dasharray:-;stroke-linecap:round;stroke-linejoin:round;" /><path d="M 341.52,-13.860000000000003 L 353.4,-1.2124003311558797e-15 L 360.0,-0.0" style="stroke:black;fill:none;stroke-width:2.0;stroke-dasharray:-;stroke-linecap:round;stroke-linejoin:round;" /><path d="M 328.32000000000005,-13.860000000000005 L 316.43999999999994,-8.001842185628805e-15 L 309.84000000000003,-9.214242516784686e-15" style="stroke:black;fill:none;stroke-width:2.0;stroke-dasharray:-;stroke-linecap:round;stroke-linejoin:round;" /><path d="M 360.0,-0.0 L 360.0,14.4 L 351.0,14.4 L 369.0,14.4 M 353.7,18.72 L 366.3,18.72 M 358.2,23.04 L 361.8,23.04" style="stroke:black;fill:none;stroke-width:2.0;stroke-dasharray:-;stroke-linecap:round;stroke-linejoin:round;" /><path d="M 306.0,-180.0 L 306.0,-108.0 L 306.0,-36.0" style="stroke:gray;fill:none;stroke-width:2.0;stroke-dasharray:7.4,3.2;stroke-linecap:round;stroke-linejoin:round;" /><text x="3.6" y="-233.6" dominant-baseline="central" fill="black" font-size="14" font-family="sans" text-anchor="start"><tspan x="3.6" dy="14">Zero-Crossing Detector</tspan></text><text x="90.0" y="-180.6" dominant-baseline="ideographic" fill="black" font-size="12" font-family="sans" text-anchor="middle"><tspan x="90.0" dy="12">R1</tspan><tspan x="90.0" dy="12">100kΩ</tspan></text><text x="198.0" y="-180.6" dominant-baseline="ideographic" fill="black" font-size="12" font-family="sans" text-anchor="middle"><tspan x="198.0" dy="12">R2</tspan><tspan x="198.0" dy="12">100kΩ</tspan></text><text x="270.0" y="-171.6" dominant-baseline="ideographic" fill="black" font-size="12" font-family="sans" text-anchor="middle"><tspan x="270.0" dy="12">H11AA1</tspan><tspan x="270.0" dy="12">LED</tspan></text><text x="360.0" y="-171.6" dominant-baseline="ideographic" fill="black" font-size="12" font-family="sans" text-anchor="middle"><tspan x="360.0" dy="12">R3</tspan><tspan x="360.0" dy="12">10kΩ</tspan></text><text x="334.91999999999996" y="-48.66" dominant-baseline="ideographic" fill="black" font-size="9" font-family="sans" text-anchor="middle"><tspan x="334.91999999999996" dy="9">Photo-</tspan><tspan x="334.91999999999996" dy="9">Transistor</tspan></text><text x="309.59999999999997" y="-23.4" dominant-baseline="central" fill="gray" font-size="9" font-family="sans" text-anchor="middle"><tspan x="309.59999999999997" dy="9">Isolation</tspan></text><circle cx="0.0" cy="-144.0" r="2.6999999999999997" style="stroke:black;fill:black;stroke-width:2.0;stroke-dasharray:-;" /><text x="-6.3" y="-159.0" dominant-baseline="central" fill="black" font-size="10" font-family="sans" text-anchor="end"><tspan x="-6.3" dy="10">AC_HOT</tspan><tspan x="-6.3" dy="10">(24VAC)</tspan></text><circle cx="0.0" cy="-36.00000000000003" r="2.6999999999999997" style="stroke:black;fill:black;stroke-width:2.0;stroke-dasharray:-;" /><text x="-6.3" y="-46.00000000000003" dominant-baseline="central" fill="black" font-size="10" font-family="sans" text-anchor="end"><tspan x="-6.3" dy="10">AC_COM</tspan></text><circle cx="360.0" cy="-144.0" r="2.6999999999999997" style="stroke:black;fill:black;stroke-width:2.0;stroke-dasharray:-;" /><text x="360.0" y="-160.29999999999998" dominant-baseline="ideographic" fill="black" font-size="10" font-family="sans" text-anchor="middle"><tspan x="360.0" dy="10">VCC</tspan></text><circle cx="360.0" cy="-36.0" r="2.6999999999999997" style="stroke:black;fill:black;stroke-width:2.0;stroke-dasharray:-;" /><circle cx="396.0" cy="-36.0" r="2.6999999999999997" style="stroke:black;fill:black;stroke-width:2.0;stroke-dasharray:-;" /><text x="402.3" y="-51.0" dominant-baseline="central" fill="black" font-size="10" font-family="sans" text-anchor="start"><tspan x="402.3" dy="10">MCU_ZC</tspan><tspan x="402.3" dy="10">(active LOW)</tspan></text></svg>