<svg xmlns="http://www.w3.org/2000/svg" xmlns:xlink="http://www.w3.org/1999/xlink" xml:lang="en" height="401.8pt" width="934.034pt" viewBox="-21.189999999999998 -447.2 934.034 401.8"><polygon points="785.6999999999999,-297.0 798.3000000000001,-288.0 785.6999999999999,-279.0 " style="stroke:black;fill:none;stroke-width:2.0;stroke-dasharray:-;stroke-linecap:round;stroke-linejoin:round;" /><polygon points="785.6999999999999,-225.0 798.3000000000001,-216.0 785.6999999999999,-207.0 " style="stroke:black;fill:none;stroke-width:2.0;stroke-dasharray:-;stroke-linecap:round;stroke-linejoin:round;" /><path d="M 72.0,-324.0 L 108.0,-324.0 L 144.0,-324.0" style="stroke:black;fill:none;stroke-width:2.0;stroke-dasharray:-;stroke-linecap:round;stroke-linejoin:round;" /><path d="M 144.0,-324.0 L 198.0,-324.0 L 201.0,-333.0 L 207.0,-315.0 L 212.99999999999997,-333.0 L 219.0,-315.0 L 225.0,-333.0 L 230.99999999999997,-315.0 L 234.0,-324.0 L 288.0,-324.0" style="stroke:black;fill:none;stroke-width:2.0;stroke-dasharray:-;stroke-linecap:round;stroke-linejoin:round;" /><path d="M 288.0,-324.0 L 306.0,-324.0 L 324.0,-324.0" style="stroke:black;fill:none;stroke-width:2.0;stroke-dasharray:-;stroke-linecap:round;stroke-linejoin:round;" /><path d="M 324.0,-324.0 L 324.0,-306.0 L 324.0,-288.0" style="stroke:black;fill:none;stroke-width:2.0;stroke-dasharray:-;stroke-linecap:round;stroke-linejoin:round;" /><path d="M 324.0,-288.0 L 324.0,-219.24 M 333.0,-219.24 L 315.0,-219.24 M 333.0,-212.76 L 315.0,-212.76 M 324.0,-212.76 L 324.0,-144.0" style="stroke:black;fill:none;stroke-width:2.0;stroke-dasharray:-;stroke-linecap:round;stroke-linejoin:round;" /><path d="M 324.0,-144.0 L 324.0,-129.6 L 315.0,-129.6 L 333.0,-129.6 M 317.7,-125.28 L 330.3,-125.28 M 322.2,-120.96 L 325.8,-120.96" style="stroke:black;fill:none;stroke-width:2.0;stroke-dasharray:-;stroke-linecap:round;stroke-linejoin:round;" /><path d="M 324.0,-324.0 L 360.0,-324.0 L 396.0,-324.0" style="stroke:black;fill:none;stroke-width:2.0;stroke-dasharray:-;stroke-linecap:round;stroke-linejoin:round;" /><path d="M 72.0,-252.0 L 126.0,-252.0 L 180.0,-252.0" style="stroke:black;fill:none;stroke-width:2.0;stroke-dasharray:-;stroke-linecap:round;stroke-linejoin:round;" /><path d="M 180.0,-252.0 L 234.0,-252.0 L 237.0,-261.0 L 243.0,-243.0 L 248.99999999999997,-261.0 L 255.0,-243.0 L 261.0,-261.0 L 267.0,-243.0 L 270.0,-252.0 L 324.0,-252.0" style="stroke:black;fill:none;stroke-width:2.0;stroke-dasharray:-;stroke-linecap:round;stroke-linejoin:round;" /><path d="M 324.0,-252.0 L 342.0,-252.0 L 360.0,-252.0" style="stroke:black;fill:none;stroke-width:2.0;stroke-dasharray:-;stroke-linecap:round;stroke-linejoin:round;" /><path d="M 72.0,-180.0 L 126.0,-180.0 L 180.0,-180.0" style="stroke:black;fill:none;stroke-width:2.0;stroke-dasharray:-;stroke-linecap:round;stroke-linejoin:round;" /><path d="M 180.0,-180.0 L 234.0,-180.0 L 237.0,-189.0 L 243.0,-171.0 L 248.99999999999997,-189.0 L 255.0,-171.0 L 261.0,-189.0 L 267.0,-171.0 L 270.0,-180.0 L 324.0,-180.0" style="stroke:black;fill:none;stroke-width:2.0;stroke-dasharray:-;stroke-linecap:round;stroke-linejoin:round;" /><path d="M 324.0,-180.0 L 342.0,-180.0 L 360.0,-180.0" style="stroke:black;fill:none;stroke-width:2.0;stroke-dasharray:-;stroke-linecap:round;stroke-linejoin:round;" /><path d="M 72.0,-108.0 L 216.0,-108.0 L 360.0,-108.0" style="stroke:black;fill:none;stroke-width:2.0;stroke-dasharray:-;stroke-linecap:round;stroke-linejoin:round;" /><path d="M 360.0,-108.0 L 360.0,-93.60000000000001 L 351.0,-93.60000000000001 L 369.0,-93.60000000000001 M 353.7,-89.28 L 366.3,-89.28 M 358.2,-84.96 L 361.8,-84.96" style="stroke:black;fill:none;stroke-width:2.0;stroke-dasharray:-;stroke-linecap:round;stroke-linejoin:round;" /><path d="M 540.0,-288.0 L 558.0,-288.0 L 576.0,-288.0" style="stroke:black;fill:none;stroke-width:2.0;stroke-dasharray:-;stroke-linecap:round;stroke-linejoin:round;" /><path d="M 576.0,-288.0 L 630.0,-288.0 L 633.0,-297.0 L 639.0,-279.0 L 645.0,-297.0 L 651.0,-279.0 L 657.0,-297.0 L 663.0,-279.0 L 666.0,-288.0 L 720.0,-288.0" style="stroke:black;fill:none;stroke-width:2.0;stroke-dasharray:-;stroke-linecap:round;stroke-linejoin:round;" /><path d="M 720.0,-288.0 L 785.6999999999999,-288.0 M 798.3000000000001,-297.0 L 798.3000000000001,-279.0 M 798.3000000000001,-288.0 L 864.0,-288.0" style="stroke:black;fill:none;stroke-width:2.0;stroke-dasharray:-;stroke-linecap:round;stroke-linejoin:round;" /><path d="M 794.6999999999999,-301.5 L 800.1277996438307,-310.99864937670384" style="stroke:black;fill:none;stroke-width:2.0;stroke-dasharray:-;stroke-linecap:round;stroke-linejoin:round;" /><path d="M 802.7077221232863 -315.51351371575106 L 802.6283398931492 -309.56976923423616 L 797.6272593945123 -312.42752951917157 Z" style="stroke:black;fill:black;stroke-linecap:butt;stroke-linejoin:miter;" /><path d="M 786.6,-301.5 L 792.0277996438308,-310.99864937670384" style="stroke:black;fill:none;stroke-width:2.0;stroke-dasharray:-;stroke-linecap:round;stroke-linejoin:round;" /><path d="M 794.6077221232864 -315.51351371575106 L 794.5283398931493 -309.56976923423616 L 789.5272593945124 -312.42752951917157 Z" style="stroke:black;fill:black;stroke-linecap:butt;stroke-linejoin:miter;" /><path d="M 864.0,-288.0 L 873.0,-288.0 L 882.0,-288.0" style="stroke:black;fill:none;stroke-width:2.0;stroke-dasharray:-;stroke-linecap:round;stroke-linejoin:round;" /><path d="M 540.0,-216.0 L 558.0,-216.0 L 576.0,-216.0" style="stroke:black;fill:none;stroke-width:2.0;stroke-dasharray:-;stroke-linecap:round;stroke-linejoin:round;" /><path d="M 576.0,-216.0 L 630.0,-216.0 L 633.0,-225.0 L 639.0,-207.0 L 645.0,-225.0 L 651.0,-207.0 L 657.0,-225.0 L 663.0,-207.0 L 666.0,-216.0 L 720.0,-216.0" style="stroke:black;fill:none;stroke-width:2.0;stroke-dasharray:-;stroke-linecap:round;stroke-linejoin:round;" /><path d="M 720.0,-216.0 L 785.6999999999999,-216.0 M 798.3000000000001,-225.0 L 798.3000000000001,-207.0 M 798.3000000000001,-216.0 L 864.0,-216.0" style="stroke:black;fill:none;stroke-width:2.0;stroke-dasharray:-;stroke-linecap:round;stroke-linejoin:round;" /><path d="M 794.6999999999999,-229.5 L 800.1277996438307,-238.9986493767039" style="stroke:black;fill:none;stroke-width:2.0;stroke-dasharray:-;stroke-linecap:round;stroke-linejoin:round;" /><path d="M 802.7077221232863 -243.5135137157511 L 802.6283398931492 -237.56976923423622 L 797.6272593945123 -240.42752951917157 Z" style="stroke:black;fill:black;stroke-linecap:butt;stroke-linejoin:miter;" /><path d="M 786.6,-229.5 L 792.0277996438308,-238.9986493767039" style="stroke:black;fill:none;stroke-width:2.0;stroke-dasharray:-;stroke-linecap:round;stroke-linejoin:round;" /><path d="M 794.6077221232864 -243.5135137157511 L 794.5283398931493 -237.56976923423622 L 789.5272593945124 -240.42752951917157 Z" style="stroke:black;fill:black;stroke-linecap:butt;stroke-linejoin:miter;" /><path d="M 864.0,-216.0 L 873.0,-216.0 L 882.0,-216.0" style="stroke:black;fill:none;stroke-width:2.0;stroke-dasharray:-;stroke-linecap:round;stroke-linejoin:round;" /><text x="3.6" y="-449.59999999999997" dominant-baseline="central" fill="black" font-size="14" font-family="sans" text-anchor="start"><tspan x="3.6" dy="14">USB-to-Serial Interface (CH340G)</tspan></text><text x="3.6" y="-373.59999999999997" dominant-baseline="central" fill="black" font-size="10" font-family="sans" text-anchor="middle"><tspan x="3.6" dy="10">USB (J3)</tspan></text><text x="363.59999999999997" y="-337.59999999999997" dominant-baseline="central" fill="black" font-size="10" font-family="sans" text-anchor="middle"><tspan x="363.59999999999997" dy="10">U4: CH340G</tspan></text><text x="216.0" y="-347.59999999999997" dominant-baseline="ideographic" fill="black" font-size="11" font-family="sans" text-anchor="middle"><tspan x="216.0" dy="11">F1</tspan></text><text x="216.0" y="-319.40000000000003" dominant-baseline="hanging" fill="black" font-size="8" font-family="sans" text-anchor="middle"><tspan x="216.0" dy="8">500mA</tspan></text><text x="324.0" y="-306.2" dominant-baseline="ideographic" fill="black" font-size="11" font-family="sans" text-anchor="middle"><tspan x="324.0" dy="11">C1</tspan></text><text x="324.0" y="-144.79999999999998" dominant-baseline="hanging" fill="black" font-size="8" font-family="sans" text-anchor="middle"><tspan x="324.0" dy="8">100nF</tspan></text><text x="252.0" y="-275.59999999999997" dominant-baseline="ideographic" fill="black" font-size="11" font-family="sans" text-anchor="middle"><tspan x="252.0" dy="11">R11</tspan></text><text x="252.0" y="-247.4" dominant-baseline="hanging" fill="black" font-size="8" font-family="sans" text-anchor="middle"><tspan x="252.0" dy="8">22Ω</tspan></text><text x="252.0" y="-203.6" dominant-baseline="ideographic" fill="black" font-size="11" font-family="sans" text-anchor="middle"><tspan x="252.0" dy="11">R12</tspan></text><text x="252.0" y="-175.4" dominant-baseline="hanging" fill="black" font-size="8" font-family="sans" text-anchor="middle"><tspan x="252.0" dy="8">22Ω</tspan></text><text x="363.59999999999997" y="-83.60000000000001" dominant-baseline="central" fill="gray" font-size="8" font-family="sans" text-anchor="middle"><tspan x="363.59999999999997" dy="8">X1: 12MHz crystal + 2x22pF on XI/XO (required for CH340G;</tspan></text><text x="363.59999999999997" y="-62.0" dominant-baseline="central" fill="gray" font-size="8" font-family="sans" text-anchor="middle"><tspan x="363.59999999999997" dy="8">use CH340C/E/N for crystal-less operation). V3 pin: 100nF to GND.</tspan></text><text x="615.6" y="-373.59999999999997" dominant-baseline="central" fill="black" font-size="10" font-family="sans" text-anchor="middle"><tspan x="615.6" dy="10">Status LEDs</tspan></text><text x="648.0" y="-308.59999999999997" dominant-baseline="ideographic" fill="black" font-size="8" font-family="sans" text-anchor="middle"><tspan x="648.0" dy="8">R13</tspan></text><text x="648.0" y="-283.40000000000003" dominant-baseline="hanging" fill="black" font-size="8" font-family="sans" text-anchor="middle"><tspan x="648.0" dy="8">1k</tspan></text><text x="792.0" y="-279.8" dominant-baseline="hanging" fill="black" font-size="8" font-family="sans" text-anchor="middle"><tspan x="792.0" dy="8">TX</tspan></text><text x="648.0" y="-236.6" dominant-baseline="ideographic" fill="black" font-size="8" font-family="sans" text-anchor="middle"><tspan x="648.0" dy="8">R14</tspan></text><text x="648.0" y="-211.4" dominant-baseline="hanging" fill="black" font-size="8" font-family="sans" text-anchor="middle"><tspan x="648.0" dy="8">1k</tspan></text><text x="792.0" y="-207.79999999999998" dominant-baseline="hanging" fill="black" font-size="8" font-family="sans" text-anchor="middle"><tspan x="792.0" dy="8">RX</tspan></text><circle cx="72.0" cy="-324.0" r="2.6999999999999997" style="stroke:black;fill:black;stroke-width:2.0;stroke-dasharray:-;" /><text x="62.1" y="-333.0" dominant-baseline="central" fill="black" font-size="9" font-family="sans" text-anchor="end"><tspan x="62.1" dy="9">VBUS</tspan></text><circle cx="72.0" cy="-252.0" r="2.6999999999999997" style="stroke:black;fill:black;stroke-width:2.0;stroke-dasharray:-;" /><text x="62.1" y="-261.0" dominant-baseline="central" fill="black" font-size="9" font-family="sans" text-anchor="end"><tspan x="62.1" dy="9">D-</tspan></text><circle cx="72.0" cy="-180.0" r="2.6999999999999997" style="stroke:black;fill:black;stroke-width:2.0;stroke-dasharray:-;" /><text x="62.1" y="-189.0" dominant-baseline="central" fill="black" font-size="9" font-family="sans" text-anchor="end"><tspan x="62.1" dy="9">D+</tspan></text><circle cx="72.0" cy="-108.0" r="2.6999999999999997" style="stroke:black;fill:black;stroke-width:2.0;stroke-dasharray:-;" /><text x="62.1" y="-117.0" dominant-baseline="central" fill="black" font-size="9" font-family="sans" text-anchor="end"><tspan x="62.1" dy="9">GND</tspan></text><circle cx="324.0" cy="-324.0" r="2.6999999999999997" style="stroke:black;fill:black;stroke-width:2.0;stroke-dasharray:-;" /><circle cx="396.0" cy="-324.0" r="2.6999999999999997" style="stroke:black;fill:black;stroke-width:2.0;stroke-dasharray:-;" /><text x="396.0" y="-341.09999999999997" dominant-baseline="ideographic" fill="black" font-size="9" font-family="sans" text-anchor="middle"><tspan x="396.0" dy="9">VCC</tspan></text><circle cx="360.0" cy="-252.0" r="2.6999999999999997" style="stroke:black;fill:black;stroke-width:2.0;stroke-dasharray:-;" /><text x="360.0" y="-269.09999999999997" dominant-baseline="ideographic" fill="black" font-size="9" font-family="sans" text-anchor="middle"><tspan x="360.0" dy="9">UD-</tspan></text><circle cx="360.0" cy="-180.0" r="2.6999999999999997" style="stroke:black;fill:black;stroke-width:2.0;stroke-dasharray:-;" /><text x="360.0" y="-197.1" dominant-baseline="ideographic" fill="black" font-size="9" font-family="sans" text-anchor="middle"><tspan x="360.0" dy="9">UD+</tspan></text><circle cx="540.0" cy="-288.0" r="2.6999999999999997" style="stroke:black;fill:black;stroke-width:2.0;stroke-dasharray:-;" /><text x="549.9" y="-297.0" dominant-baseline="central" fill="black" font-size="9" font-family="sans" text-anchor="start"><tspan x="549.9" dy="9">TXD</tspan></text><circle cx="540.0" cy="-216.0" r="2.6999999999999997" style="stroke:black;fill:black;stroke-width:2.0;stroke-dasharray:-;" /><text x="549.9" y="-225.0" dominant-baseline="central" fill="black" font-size="9" font-family="sans" text-anchor="start"><tspan x="549.9" dy="9">RXD</tspan></text><circle cx="540.0" cy="-144.0" r="2.6999999999999997" style="stroke:black;fill:black;stroke-width:2.0;stroke-dasharray:-;" /><text x="549.9" y="-153.0" dominant-baseline="central" fill="black" font-size="9" font-family="sans" text-anchor="start"><tspan x="549.9" dy="9">DTR</tspan></text><circle cx="882.0" cy="-288.0" r="2.6999999999999997" style="stroke:black;fill:black;stroke-width:2.0;stroke-dasharray:-;" /><text x="890.1" y="-297.0" dominant-baseline="central" fill="black" font-size="9" font-family="sans" text-anchor="start"><tspan x="890.1" dy="9">VCC</tspan></text><circle cx="882.0" cy="-216.0" r="2.6999999999999997" style="stroke:black;fill:black;stroke-width:2.0;stroke-dasharray:-;" /><text x="890.1" y="-225.0" dominant-baseline="central" fill="black" font-size="9" font-family="sans" text-anchor="start"><tspan x="890.1" dy="9">VCC</tspan></text></svg>