<svg xmlns="http://www.w3.org/2000/svg" xmlns:xlink="http://www.w3.org/1999/xlink" xml:lang="en" height="351.90000000000003pt" width="742.6399999999999pt" viewBox="-57.16 -339.2 742.6399999999999 351.90000000000003"><polygon points="225.0,-137.70000000000002 234.0,-150.29999999999998 243.0,-137.70000000000002 " style="stroke:black;fill:none;stroke-width:2.0;stroke-dasharray:-;stroke-linecap:round;stroke-linejoin:round;" /><polygon points="459.0,-150.29999999999998 450.0,-137.70000000000002 441.0,-150.29999999999998 " style="stroke:black;fill:none;stroke-width:2.0;stroke-dasharray:-;stroke-linecap:round;stroke-linejoin:round;" /><circle cx="532.92" cy="-25.259999999999998" r="19.8" style="stroke:black;fill:none;stroke-width:2.0;stroke-dasharray:-;" /><path d="M 0.0,-216.0 L 27.0,-216.0 L 54.0,-216.0" style="stroke:black;fill:none;stroke-width:2.0;stroke-dasharray:-;stroke-linecap:round;stroke-linejoin:round;" /><path d="M 54.0,-216.0 L 108.0,-216.0 L 110.99999999999999,-225.0 L 117.0,-207.0 L 123.0,-225.0 L 129.0,-207.0 L 135.0,-225.0 L 141.0,-207.0 L 144.0,-216.0 L 198.0,-216.0" style="stroke:black;fill:none;stroke-width:2.0;stroke-dasharray:-;stroke-linecap:round;stroke-linejoin:round;" /><path d="M 198.0,-216.0 L 198.0,-207.0 L 198.0,-198.0" style="stroke:black;fill:none;stroke-width:2.0;stroke-dasharray:-;stroke-linecap:round;stroke-linejoin:round;" /><path d="M 198.0,-198.0 L 198.0,-144.0 L 207.0,-141.0 L 189.0,-135.0 L 207.0,-129.0 L 189.0,-123.00000000000001 L 207.0,-117.0 L 189.0,-111.0 L 197.99999999999997,-108.0 L 197.99999999999997,-54.0" style="stroke:black;fill:none;stroke-width:2.0;stroke-dasharray:-;stroke-linecap:round;stroke-linejoin:round;" /><path d="M 197.99999999999997,-54.0 L 98.99999999999999,-54.000000000000014 L 0.0,-54.00000000000002" style="stroke:black;fill:none;stroke-width:2.0;stroke-dasharray:-;stroke-linecap:round;stroke-linejoin:round;" /><path d="M 198.0,-216.0 L 216.0,-216.0 L 234.0,-216.0" style="stroke:black;fill:none;stroke-width:2.0;stroke-dasharray:-;stroke-linecap:round;stroke-linejoin:round;" /><path d="M 234.0,-216.0 L 234.0,-150.29999999999998 M 225.0,-150.29999999999998 L 243.0,-150.29999999999998 M 234.0,-137.70000000000002 L 233.99999999999997,-72.0" style="stroke:black;fill:none;stroke-width:2.0;stroke-dasharray:-;stroke-linecap:round;stroke-linejoin:round;" /><path d="M 246.6,-153.9 L 243.0,-150.29999999999998" style="stroke:black;fill:none;stroke-width:2.0;stroke-dasharray:-;stroke-linecap:round;stroke-linejoin:round;" /><path d="M 221.39999999999998,-146.70000000000002 L 225.0,-150.29999999999998" style="stroke:black;fill:none;stroke-width:2.0;stroke-dasharray:-;stroke-linecap:round;stroke-linejoin:round;" /><path d="M 233.99999999999997,-72.0 L 233.99999999999997,-63.000000000000014 L 233.99999999999997,-54.00000000000002" style="stroke:black;fill:none;stroke-width:2.0;stroke-dasharray:-;stroke-linecap:round;stroke-linejoin:round;" /><path d="M 233.99999999999997,-54.00000000000002 L 116.99999999999999,-54.00000000000004 L 0.0,-54.00000000000006" style="stroke:black;fill:none;stroke-width:2.0;stroke-dasharray:-;stroke-linecap:round;stroke-linejoin:round;" /><path d="M 234.0,-216.0 L 252.0,-216.0 L 270.0,-216.0" style="stroke:black;fill:none;stroke-width:2.0;stroke-dasharray:-;stroke-linecap:round;stroke-linejoin:round;" /><path d="M 270.0,-216.0 L 324.0,-216.0 L 327.0,-225.0 L 333.0,-207.0 L 339.0,-225.0 L 344.99999999999994,-207.0 L 351.0,-225.0 L 357.0,-207.0 L 360.0,-216.0 L 414.0,-216.0" style="stroke:black;fill:none;stroke-width:2.0;stroke-dasharray:-;stroke-linecap:round;stroke-linejoin:round;" /><path d="M 414.0,-216.0 L 432.0,-216.0 L 450.0,-216.0" style="stroke:black;fill:none;stroke-width:2.0;stroke-dasharray:-;stroke-linecap:round;stroke-linejoin:round;" /><path d="M 450.0,-216.0 L 450.0,-150.29999999999998 M 459.0,-137.70000000000002 L 441.0,-137.70000000000002 M 450.0,-137.70000000000002 L 450.0,-72.0" style="stroke:black;fill:none;stroke-width:2.0;stroke-dasharray:-;stroke-linecap:round;stroke-linejoin:round;" /><path d="M 450.0,-72.0 L 450.0,-63.000000000000014 L 450.0,-54.00000000000002" style="stroke:black;fill:none;stroke-width:2.0;stroke-dasharray:-;stroke-linecap:round;stroke-linejoin:round;" /><path d="M 450.0,-54.00000000000002 L 225.0,-54.00000000000005 L 0.0,-54.00000000000008" style="stroke:black;fill:none;stroke-width:2.0;stroke-dasharray:-;stroke-linecap:round;stroke-linejoin:round;" /><path d="M 558.0,-216.0 L 558.0,-162.0 L 567.0,-159.0 L 549.0,-153.0 L 567.0,-147.00000000000003 L 549.0,-141.0 L 567.0,-135.0 L 549.0,-129.0 L 558.0,-126.0 L 558.0,-72.0" style="stroke:black;fill:none;stroke-width:2.0;stroke-dasharray:-;stroke-linecap:round;stroke-linejoin:round;" /><path d="M 558.0,-72.0 L 594.0,-72.0 L 630.0,-72.0" style="stroke:black;fill:none;stroke-width:2.0;stroke-dasharray:-;stroke-linecap:round;stroke-linejoin:round;" /><path d="M 558.0,-72.0 L 558.0,-45.0 L 558.0,-18.0" style="stroke:black;fill:none;stroke-width:2.0;stroke-dasharray:-;stroke-linecap:round;stroke-linejoin:round;" /><path d="M 532.92,-45.06 L 532.92,-31.86" style="stroke:black;fill:none;stroke-width:2.0;stroke-dasharray:-;stroke-linecap:round;stroke-linejoin:round;" /><path d="M 546.12,-31.86 L 519.72,-31.860000000000007" style="stroke:black;fill:none;stroke-width:2.0;stroke-dasharray:-;stroke-linecap:round;stroke-linejoin:round;" /><path d="M 539.52,-31.86 L 551.4,-18.0 L 558.0,-18.0" style="stroke:black;fill:none;stroke-width:2.0;stroke-dasharray:-;stroke-linecap:round;stroke-linejoin:round;" /><path d="M 526.32,-31.860000000000003 L 514.4399999999999,-18.000000000000007 L 507.84000000000003,-18.000000000000007" style="stroke:black;fill:none;stroke-width:2.0;stroke-dasharray:-;stroke-linecap:round;stroke-linejoin:round;" /><path d="M 526.32,-31.860000000000003 L 520.2971223611037,-24.83330942128766" style="stroke:black;fill:none;stroke-width:2.0;stroke-dasharray:-;stroke-linecap:round;stroke-linejoin:round;" /><path d="M 515.7415827469118 -19.518513204730596 L 517.5637985925887 -27.176158365729155 L 523.0304461296188 -22.490460476846167 Z" style="stroke:black;fill:black;stroke-linecap:butt;stroke-linejoin:miter;" /><path d="M 558.0,-18.0 L 558.0,-3.599999999999999 L 549.0,-3.599999999999999 L 567.0,-3.599999999999999 M 551.6999999999999,0.7200000000000006 L 564.3000000000001,0.7200000000000006 M 556.1999999999999,5.040000000000001 L 559.8000000000001,5.040000000000001" style="stroke:black;fill:none;stroke-width:2.0;stroke-dasharray:-;stroke-linecap:round;stroke-linejoin:round;" /><path d="M 504.0,-270.0 L 504.0,-144.0 L 503.99999999999994,-18.0" style="stroke:gray;fill:none;stroke-width:2.0;stroke-dasharray:7.4,3.2;stroke-linecap:round;stroke-linejoin:round;" /><text x="3.6" y="-341.59999999999997" dominant-baseline="central" fill="black" font-size="14" font-family="sans" text-anchor="start"><tspan x="3.6" dy="14">Data Receive Circuit</tspan></text><text x="126.0" y="-239.6" dominant-baseline="ideographic" fill="black" font-size="11" font-family="sans" text-anchor="middle"><tspan x="126.0" dy="11">R4</tspan></text><text x="126.0" y="-214.4" dominant-baseline="hanging" fill="black" font-size="11" font-family="sans" text-anchor="middle"><tspan x="126.0" dy="11">4.7kΩ</tspan></text><text x="197.99999999999997" y="-57.8" dominant-baseline="hanging" fill="black" font-size="11" font-family="sans" text-anchor="middle"><tspan x="197.99999999999997" dy="11">R5</tspan></text><text x="198.0" y="-216.20000000000002" dominant-baseline="ideographic" fill="black" font-size="11" font-family="sans" text-anchor="middle"><tspan x="198.0" dy="11">1.2kΩ</tspan></text><text x="233.99999999999997" y="-75.8" dominant-baseline="hanging" fill="black" font-size="11" font-family="sans" text-anchor="middle"><tspan x="233.99999999999997" dy="11">D1</tspan></text><text x="234.0" y="-234.20000000000002" dominant-baseline="ideographic" fill="black" font-size="11" font-family="sans" text-anchor="middle"><tspan x="234.0" dy="11">5.1V</tspan></text><text x="342.0" y="-239.6" dominant-baseline="ideographic" fill="black" font-size="11" font-family="sans" text-anchor="middle"><tspan x="342.0" dy="11">R6</tspan></text><text x="342.0" y="-214.4" dominant-baseline="hanging" fill="black" font-size="11" font-family="sans" text-anchor="middle"><tspan x="342.0" dy="11">220Ω</tspan></text><text x="450.0" y="-237.79999999999998" dominant-baseline="ideographic" fill="black" font-size="11" font-family="sans" text-anchor="middle"><tspan x="450.0" dy="11">U2: 4N35</tspan></text><text x="558.0" y="-75.8" dominant-baseline="hanging" fill="black" font-size="11" font-family="sans" text-anchor="middle"><tspan x="558.0" dy="11">R7</tspan></text><text x="558.0" y="-234.20000000000002" dominant-baseline="ideographic" fill="black" font-size="11" font-family="sans" text-anchor="middle"><tspan x="558.0" dy="11">22kΩ</tspan></text><text x="532.62" y="-64.86" dominant-baseline="ideographic" fill="black" font-size="9" font-family="sans" text-anchor="middle"><tspan x="532.62" dy="9">Q (photo)</tspan></text><text x="507.59999999999997" y="-5.3999999999999995" dominant-baseline="central" fill="gray" font-size="9" font-family="sans" text-anchor="middle"><tspan x="507.59999999999997" dy="9">ISOLATION</tspan></text><circle cx="0.0" cy="-216.0" r="2.6999999999999997" style="stroke:black;fill:black;stroke-width:2.0;stroke-dasharray:-;" /><text x="-9.9" y="-226.0" dominant-baseline="central" fill="black" font-size="10" font-family="sans" text-anchor="end"><tspan x="-9.9" dy="10">DATA</tspan></text><circle cx="198.0" cy="-216.0" r="2.6999999999999997" style="stroke:black;fill:black;stroke-width:2.0;stroke-dasharray:-;" /><circle cx="0.0" cy="-54.00000000000002" r="2.6999999999999997" style="stroke:black;fill:black;stroke-width:2.0;stroke-dasharray:-;" /><text x="-9.9" y="-64.00000000000003" dominant-baseline="central" fill="black" font-size="10" font-family="sans" text-anchor="end"><tspan x="-9.9" dy="10">AC_COM</tspan></text><circle cx="558.0" cy="-216.0" r="2.6999999999999997" style="stroke:black;fill:black;stroke-width:2.0;stroke-dasharray:-;" /><text x="558.0" y="-234.1" dominant-baseline="ideographic" fill="black" font-size="10" font-family="sans" text-anchor="middle"><tspan x="558.0" dy="10">VCC</tspan></text><circle cx="558.0" cy="-72.0" r="2.6999999999999997" style="stroke:black;fill:black;stroke-width:2.0;stroke-dasharray:-;" /><circle cx="630.0" cy="-72.0" r="2.6999999999999997" style="stroke:black;fill:black;stroke-width:2.0;stroke-dasharray:-;" /><text x="639.9" y="-82.0" dominant-baseline="central" fill="black" font-size="10" font-family="sans" text-anchor="start"><tspan x="639.9" dy="10">MCU_RX</tspan></text></svg>