<svg xmlns="http://www.w3.org/2000/svg" xmlns:xlink="http://www.w3.org/1999/xlink" xml:lang="en" height="852.4pt" width="563.006pt" viewBox="-79.53399999999999 -664.1999999999999 563.006 852.4"><polygon points="235.79999999999998,-465.3 226.79999999999998,-452.7 217.79999999999998,-465.3 " style="stroke:black;fill:none;stroke-width:2.0;stroke-dasharray:-;stroke-linecap:round;stroke-linejoin:round;" /><circle cx="334.91999999999996" cy="-392.46" r="19.8" style="stroke:black;fill:none;stroke-width:2.0;stroke-dasharray:-;" /><polygon points="116.99999999999999,-297.9 126.0,-310.5 134.99999999999997,-297.9 " style="stroke:black;fill:none;stroke-width:2.0;stroke-dasharray:-;stroke-linecap:round;stroke-linejoin:round;" /><polygon points="253.79999999999998,-321.3 244.79999999999998,-308.7 235.79999999999998,-321.3 " style="stroke:black;fill:none;stroke-width:2.0;stroke-dasharray:-;stroke-linecap:round;stroke-linejoin:round;" /><circle cx="334.91999999999996" cy="-248.46000000000004" r="19.8" style="stroke:black;fill:none;stroke-width:2.0;stroke-dasharray:-;" /><polygon points="286.2,-164.70000000000002 295.2,-177.29999999999998 304.2,-164.70000000000002 " style="stroke:black;fill:none;stroke-width:2.0;stroke-dasharray:-;stroke-linecap:round;stroke-linejoin:round;" /><circle cx="262.92" cy="-194.46000000000004" r="19.8" style="stroke:black;fill:none;stroke-width:2.0;stroke-dasharray:-;" /><polygon points="310.20000000000005,-175.5 301.20000000000005,-162.9 292.20000000000005,-175.5 " style="stroke:black;fill:none;stroke-width:2.0;stroke-dasharray:-;stroke-linecap:round;stroke-linejoin:round;" /><path d="M 0.0,-504.0 L 18.0,-504.0 L 36.0,-504.0" style="stroke:black;fill:none;stroke-width:2.0;stroke-dasharray:-;stroke-linecap:round;stroke-linejoin:round;" /><path d="M 36.0,-504.0 L 63.0,-504.0 L 66.0,-513.0 L 72.0,-495.0 L 78.0,-513.0 L 83.99999999999999,-495.0 L 90.0,-513.0 L 96.0,-495.0 L 99.0,-504.0 L 126.0,-504.0" style="stroke:black;fill:none;stroke-width:2.0;stroke-dasharray:-;stroke-linecap:round;stroke-linejoin:round;" /><path d="M 126.0,-504.0 L 153.0,-504.0 L 156.0,-513.0 L 162.0,-495.0 L 167.99999999999997,-513.0 L 174.0,-495.0 L 180.0,-513.0 L 185.99999999999997,-495.0 L 189.0,-504.0 L 216.0,-504.0" style="stroke:black;fill:none;stroke-width:2.0;stroke-dasharray:-;stroke-linecap:round;stroke-linejoin:round;" /><path d="M 216.0,-504.0 L 221.4,-504.0 L 226.79999999999998,-504.0" style="stroke:black;fill:none;stroke-width:2.0;stroke-dasharray:-;stroke-linecap:round;stroke-linejoin:round;" /><path d="M 226.79999999999998,-504.0 L 226.79999999999998,-465.3 M 235.79999999999998,-452.7 L 217.79999999999998,-452.7 M 226.79999999999998,-452.7 L 226.79999999999995,-414.0" style="stroke:black;fill:none;stroke-width:2.0;stroke-dasharray:-;stroke-linecap:round;stroke-linejoin:round;" /><path d="M 226.79999999999995,-414.0 L 131.39999999999998,-414.0 L 36.0,-414.0" style="stroke:black;fill:none;stroke-width:2.0;stroke-dasharray:-;stroke-linecap:round;stroke-linejoin:round;" /><path d="M 36.0,-414.0 L 18.0,-414.0 L 0.0,-414.0" style="stroke:black;fill:none;stroke-width:2.0;stroke-dasharray:-;stroke-linecap:round;stroke-linejoin:round;" /><path d="M 360.0,-504.0 L 360.0,-477.0 L 369.0,-474.0 L 351.0,-468.0 L 369.0,-462.0 L 351.0,-456.0 L 369.0,-450.0 L 351.0,-444.0 L 360.0,-441.0 L 360.0,-414.0" style="stroke:black;fill:none;stroke-width:2.0;stroke-dasharray:-;stroke-linecap:round;stroke-linejoin:round;" /><path d="M 360.0,-414.0 L 360.0,-399.59999999999997 L 360.0,-385.2" style="stroke:black;fill:none;stroke-width:2.0;stroke-dasharray:-;stroke-linecap:round;stroke-linejoin:round;" /><path d="M 334.91999999999996,-412.26 L 334.91999999999996,-399.05999999999995" style="stroke:black;fill:none;stroke-width:2.0;stroke-dasharray:-;stroke-linecap:round;stroke-linejoin:round;" /><path d="M 348.12,-399.05999999999995 L 321.72,-399.05999999999995" style="stroke:black;fill:none;stroke-width:2.0;stroke-dasharray:-;stroke-linecap:round;stroke-linejoin:round;" /><path d="M 341.52,-399.05999999999995 L 353.4,-385.2 L 360.0,-385.2" style="stroke:black;fill:none;stroke-width:2.0;stroke-dasharray:-;stroke-linecap:round;stroke-linejoin:round;" /><path d="M 328.32000000000005,-399.05999999999995 L 316.43999999999994,-385.2 L 309.84000000000003,-385.2" style="stroke:black;fill:none;stroke-width:2.0;stroke-dasharray:-;stroke-linecap:round;stroke-linejoin:round;" /><path d="M 360.0,-385.2 L 360.0,-370.79999999999995 L 351.0,-370.79999999999995 L 369.0,-370.79999999999995 M 353.7,-366.48 L 366.3,-366.48 M 358.2,-362.15999999999997 L 361.8,-362.15999999999997" style="stroke:black;fill:none;stroke-width:2.0;stroke-dasharray:-;stroke-linecap:round;stroke-linejoin:round;" /><path d="M 0.0,-360.0 L 18.0,-360.0 L 36.0,-360.0" style="stroke:black;fill:none;stroke-width:2.0;stroke-dasharray:-;stroke-linecap:round;stroke-linejoin:round;" /><path d="M 36.0,-360.0 L 63.0,-360.0 L 66.0,-369.0 L 72.0,-351.0 L 78.0,-369.0 L 83.99999999999999,-351.0 L 90.0,-369.0 L 96.0,-351.0 L 99.0,-360.0 L 126.0,-360.0" style="stroke:black;fill:none;stroke-width:2.0;stroke-dasharray:-;stroke-linecap:round;stroke-linejoin:round;" /><path d="M 126.0,-360.0 L 126.0,-354.59999999999997 L 126.0,-349.2" style="stroke:black;fill:none;stroke-width:2.0;stroke-dasharray:-;stroke-linecap:round;stroke-linejoin:round;" /><path d="M 126.0,-349.2 L 126.0,-310.5 M 117.0,-310.5 L 135.0,-310.5 M 125.99999999999999,-297.9 L 125.99999999999999,-259.2" style="stroke:black;fill:none;stroke-width:2.0;stroke-dasharray:-;stroke-linecap:round;stroke-linejoin:round;" /><path d="M 138.6,-314.09999999999997 L 135.0,-310.5" style="stroke:black;fill:none;stroke-width:2.0;stroke-dasharray:-;stroke-linecap:round;stroke-linejoin:round;" /><path d="M 113.39999999999999,-306.9 L 117.0,-310.5" style="stroke:black;fill:none;stroke-width:2.0;stroke-dasharray:-;stroke-linecap:round;stroke-linejoin:round;" /><path d="M 125.99999999999999,-259.2 L 125.99999999999997,-172.79999999999995 L 125.99999999999996,-86.39999999999995" style="stroke:black;fill:none;stroke-width:2.0;stroke-dasharray:-;stroke-linecap:round;stroke-linejoin:round;" /><path d="M 125.99999999999996,-86.39999999999995 L 62.99999999999998,-86.39999999999995 L 0.0,-86.39999999999996" style="stroke:black;fill:none;stroke-width:2.0;stroke-dasharray:-;stroke-linecap:round;stroke-linejoin:round;" /><path d="M 126.0,-360.0 L 126.0,-333.0 L 135.0,-330.0 L 117.0,-324.0 L 135.0,-318.0 L 117.0,-312.0 L 134.99999999999997,-306.0 L 116.99999999999999,-300.0 L 125.99999999999999,-297.0 L 125.99999999999999,-270.0" style="stroke:black;fill:none;stroke-width:2.0;stroke-dasharray:-;stroke-linecap:round;stroke-linejoin:round;" /><path d="M 125.99999999999999,-270.0 L 62.99999999999999,-270.0 L 0.0,-270.0" style="stroke:black;fill:none;stroke-width:2.0;stroke-dasharray:-;stroke-linecap:round;stroke-linejoin:round;" /><path d="M 126.0,-360.0 L 135.0,-360.0 L 144.0,-360.0" style="stroke:black;fill:none;stroke-width:2.0;stroke-dasharray:-;stroke-linecap:round;stroke-linejoin:round;" /><path d="M 144.0,-360.0 L 171.0,-360.0 L 174.0,-369.0 L 180.0,-351.0 L 185.99999999999997,-369.0 L 192.0,-351.0 L 198.0,-369.0 L 203.99999999999997,-351.0 L 207.0,-360.0 L 234.0,-360.0" style="stroke:black;fill:none;stroke-width:2.0;stroke-dasharray:-;stroke-linecap:round;stroke-linejoin:round;" /><path d="M 234.0,-360.0 L 239.4,-360.0 L 244.79999999999998,-360.0" style="stroke:black;fill:none;stroke-width:2.0;stroke-dasharray:-;stroke-linecap:round;stroke-linejoin:round;" /><path d="M 244.79999999999998,-360.0 L 244.79999999999998,-321.3 M 253.79999999999998,-308.7 L 235.79999999999998,-308.7 M 244.79999999999998,-308.7 L 244.79999999999995,-270.0" style="stroke:black;fill:none;stroke-width:2.0;stroke-dasharray:-;stroke-linecap:round;stroke-linejoin:round;" /><path d="M 244.79999999999995,-270.0 L 244.79999999999995,-189.0 L 244.79999999999993,-108.0" style="stroke:black;fill:none;stroke-width:2.0;stroke-dasharray:-;stroke-linecap:round;stroke-linejoin:round;" /><path d="M 244.79999999999993,-108.0 L 122.39999999999996,-108.00000000000001 L 0.0,-108.00000000000003" style="stroke:black;fill:none;stroke-width:2.0;stroke-dasharray:-;stroke-linecap:round;stroke-linejoin:round;" /><path d="M 360.0,-360.0 L 360.0,-333.0 L 369.0,-330.0 L 351.0,-324.0 L 369.0,-318.0 L 351.0,-312.0 L 369.0,-306.0 L 351.0,-300.0 L 360.0,-297.0 L 360.0,-270.0" style="stroke:black;fill:none;stroke-width:2.0;stroke-dasharray:-;stroke-linecap:round;stroke-linejoin:round;" /><path d="M 360.0,-270.0 L 360.0,-255.6 L 360.0,-241.20000000000002" style="stroke:black;fill:none;stroke-width:2.0;stroke-dasharray:-;stroke-linecap:round;stroke-linejoin:round;" /><path d="M 334.91999999999996,-268.26 L 334.91999999999996,-255.06" style="stroke:black;fill:none;stroke-width:2.0;stroke-dasharray:-;stroke-linecap:round;stroke-linejoin:round;" /><path d="M 348.12,-255.06 L 321.72,-255.06" style="stroke:black;fill:none;stroke-width:2.0;stroke-dasharray:-;stroke-linecap:round;stroke-linejoin:round;" /><path d="M 341.52,-255.06 L 353.4,-241.20000000000002 L 360.0,-241.20000000000002" style="stroke:black;fill:none;stroke-width:2.0;stroke-dasharray:-;stroke-linecap:round;stroke-linejoin:round;" /><path d="M 328.32000000000005,-255.06 L 316.43999999999994,-241.20000000000002 L 309.84000000000003,-241.20000000000002" style="stroke:black;fill:none;stroke-width:2.0;stroke-dasharray:-;stroke-linecap:round;stroke-linejoin:round;" /><path d="M 360.0,-241.20000000000002 L 360.0,-226.79999999999998 L 351.0,-226.79999999999998 L 369.0,-226.79999999999998 M 353.7,-222.48 L 366.3,-222.48 M 358.2,-218.16000000000003 L 361.8,-218.16000000000003" style="stroke:black;fill:none;stroke-width:2.0;stroke-dasharray:-;stroke-linecap:round;stroke-linejoin:round;" /><path d="M 432.0,-216.0 L 414.0,-216.0 L 396.0,-216.0" style="stroke:black;fill:none;stroke-width:2.0;stroke-dasharray:-;stroke-linecap:round;stroke-linejoin:round;" /><path d="M 396.0,-216.0 L 369.0,-216.0 L 366.0,-207.0 L 360.0,-225.0 L 354.0,-207.0 L 348.0,-225.0 L 342.0,-207.0 L 336.0,-225.0 L 333.0,-216.0 L 306.0,-216.0" style="stroke:black;fill:none;stroke-width:2.0;stroke-dasharray:-;stroke-linecap:round;stroke-linejoin:round;" /><path d="M 306.0,-216.0 L 300.59999999999997,-216.0 L 295.2,-216.0" style="stroke:black;fill:none;stroke-width:2.0;stroke-dasharray:-;stroke-linecap:round;stroke-linejoin:round;" /><path d="M 295.2,-216.0 L 295.2,-177.29999999999998 M 286.2,-177.29999999999998 L 304.2,-177.29999999999998 M 295.2,-164.70000000000002 L 295.2,-126.0" style="stroke:black;fill:none;stroke-width:2.0;stroke-dasharray:-;stroke-linecap:round;stroke-linejoin:round;" /><path d="M 295.2,-126.0 L 295.2,-111.60000000000001 L 286.2,-111.60000000000001 L 304.2,-111.60000000000001 M 288.9,-107.28 L 301.5,-107.28 M 293.4,-102.96 L 297.0,-102.96" style="stroke:black;fill:none;stroke-width:2.0;stroke-dasharray:-;stroke-linecap:round;stroke-linejoin:round;" /><path d="M 288.0,-216.0 L 288.0,-201.6 L 288.0,-187.20000000000002" style="stroke:black;fill:none;stroke-width:2.0;stroke-dasharray:-;stroke-linecap:round;stroke-linejoin:round;" /><path d="M 262.92,-214.26000000000002 L 262.92,-201.06" style="stroke:black;fill:none;stroke-width:2.0;stroke-dasharray:-;stroke-linecap:round;stroke-linejoin:round;" /><path d="M 276.12,-201.06 L 249.72,-201.06" style="stroke:black;fill:none;stroke-width:2.0;stroke-dasharray:-;stroke-linecap:round;stroke-linejoin:round;" /><path d="M 269.52,-201.06 L 281.4,-187.20000000000002 L 288.0,-187.20000000000002" style="stroke:black;fill:none;stroke-width:2.0;stroke-dasharray:-;stroke-linecap:round;stroke-linejoin:round;" /><path d="M 256.32,-201.06 L 244.44,-187.20000000000002 L 237.84,-187.20000000000002" style="stroke:black;fill:none;stroke-width:2.0;stroke-dasharray:-;stroke-linecap:round;stroke-linejoin:round;" /><path d="M 288.0,-187.20000000000002 L 288.0,-160.20000000000002 L 297.0,-157.20000000000002 L 279.0,-151.20000000000002 L 297.0,-145.2 L 279.0,-139.20000000000002 L 297.0,-133.20000000000002 L 279.0,-127.20000000000002 L 288.0,-124.2 L 287.99999999999994,-97.2" style="stroke:black;fill:none;stroke-width:2.0;stroke-dasharray:-;stroke-linecap:round;stroke-linejoin:round;" /><path d="M 287.99999999999994,-97.2 L 287.99999999999994,-82.80000000000001 L 278.99999999999994,-82.80000000000001 L 297.0,-82.80000000000001 M 281.7,-78.48 L 294.29999999999995,-78.48 M 286.2,-74.16 L 289.79999999999995,-74.16" style="stroke:black;fill:none;stroke-width:2.0;stroke-dasharray:-;stroke-linecap:round;stroke-linejoin:round;" /><path d="M 288.0,-187.20000000000002 L 270.0,-187.20000000000002 L 252.0,-187.20000000000002" style="stroke:black;fill:none;stroke-width:2.0;stroke-dasharray:-;stroke-linecap:round;stroke-linejoin:round;" /><path d="M 301.20000000000005,-160.20000000000002 L 301.20000000000005,-175.2 L 277.2,-175.20000000000002 L 277.2,-199.2 L 301.20000000000005,-199.2 L 301.20000000000005,-214.20000000000002" style="stroke:black;fill:none;stroke-width:2.0;stroke-dasharray:-;stroke-linecap:round;stroke-linejoin:round;" /><path d="M 271.2,-175.20000000000002 L 271.2,-199.2" style="stroke:black;fill:none;stroke-width:2.0;stroke-dasharray:-;stroke-linecap:round;stroke-linejoin:round;" /><path d="M 271.2,-187.20000000000002 L 252.0,-187.20000000000002" style="stroke:black;fill:none;stroke-width:2.0;stroke-dasharray:-;stroke-linecap:round;stroke-linejoin:round;" /><path d="M 301.20000000000005,-214.20000000000002 L 301.20000000000005,-241.20000000000002 L 292.20000000000005,-244.2 L 310.20000000000005,-250.20000000000002 L 292.20000000000005,-256.20000000000005 L 310.20000000000005,-262.2 L 292.20000000000005,-268.2 L 310.20000000000005,-274.20000000000005 L 301.20000000000005,-277.2 L 301.20000000000005,-304.2" style="stroke:black;fill:none;stroke-width:2.0;stroke-dasharray:-;stroke-linecap:round;stroke-linejoin:round;" /><path d="M 301.20000000000005,-304.2 L 301.20000000000005,-332.09999999999997 L 301.20000000000005,-360.0" style="stroke:black;fill:none;stroke-width:2.0;stroke-dasharray:-;stroke-linecap:round;stroke-linejoin:round;" /><path d="M 301.20000000000005,-360.0 L 186.60000000000002,-360.0 L 72.0,-360.0" style="stroke:black;fill:none;stroke-width:2.0;stroke-dasharray:-;stroke-linecap:round;stroke-linejoin:round;" /><path d="M 301.20000000000005,-214.20000000000002 L 301.20000000000005,-175.5 M 310.20000000000005,-162.9 L 292.20000000000005,-162.9 M 301.20000000000005,-162.9 L 301.20000000000005,-124.2" style="stroke:black;fill:none;stroke-width:2.0;stroke-dasharray:-;stroke-linecap:round;stroke-linejoin:round;" /><path d="M 301.20000000000005,-124.2 L 301.20000000000005,29.700000000000006 L 301.19999999999993,183.60000000000002" style="stroke:black;fill:none;stroke-width:2.0;stroke-dasharray:-;stroke-linecap:round;stroke-linejoin:round;" /><path d="M 301.19999999999993,183.60000000000002 L 150.59999999999997,183.6 L 0.0,183.6" style="stroke:black;fill:none;stroke-width:2.0;stroke-dasharray:-;stroke-linecap:round;stroke-linejoin:round;" /><path d="M 360.0,-414.0 L 396.0,-414.0 L 432.0,-414.0" style="stroke:black;fill:none;stroke-width:2.0;stroke-dasharray:-;stroke-linecap:round;stroke-linejoin:round;" /><path d="M 360.0,-270.0 L 396.0,-270.0 L 432.0,-270.0" style="stroke:black;fill:none;stroke-width:2.0;stroke-dasharray:-;stroke-linecap:round;stroke-linejoin:round;" /><path d="M 324.0,-576.0 L 323.99999999999994,-360.0 L 323.99999999999994,-144.0" style="stroke:red;fill:none;stroke-width:2.0;stroke-dasharray:7.4,3.2;stroke-linecap:round;stroke-linejoin:round;" /><text x="3.6" y="-667.6" dominant-baseline="central" fill="black" font-size="16" font-family="sans" text-anchor="start"><tspan x="3.6" dy="16">EnviraCOM Interface - Complete Schematic</tspan></text><text x="3.6" y="-626.6" dominant-baseline="central" fill="black" font-size="11" font-family="sans" text-anchor="start"><tspan x="3.6" dy="11">Galvanic isolation between 24VAC HVAC bus and 3.3V MCU</tspan></text><text x="3.6" y="-555.6" dominant-baseline="central" fill="black" font-size="12" font-family="sans" text-anchor="start"><tspan x="3.6" dy="12">HVAC Bus (J1)</tspan></text><text x="111.60000000000001" y="-554.6" dominant-baseline="central" fill="black" font-size="11" font-family="sans" text-anchor="middle"><tspan x="111.60000000000001" dy="11">Zero-Crossing</tspan></text><text x="81.0" y="-532.6" dominant-baseline="ideographic" fill="black" font-size="8" font-family="sans" text-anchor="middle"><tspan x="81.0" dy="8">R1</tspan><tspan x="81.0" dy="8">100k</tspan></text><text x="171.0" y="-532.6" dominant-baseline="ideographic" fill="black" font-size="8" font-family="sans" text-anchor="middle"><tspan x="171.0" dy="8">R2</tspan><tspan x="171.0" dy="8">100k</tspan></text><text x="226.79999999999998" y="-515.5999999999999" dominant-baseline="ideographic" fill="black" font-size="8" font-family="sans" text-anchor="middle"><tspan x="226.79999999999998" dy="8">U1</tspan></text><text x="360.0" y="-523.5999999999999" dominant-baseline="ideographic" fill="black" font-size="8" font-family="sans" text-anchor="middle"><tspan x="360.0" dy="8">R3</tspan><tspan x="360.0" dy="8">10k</tspan></text><text x="111.60000000000001" y="-403.40000000000003" dominant-baseline="central" fill="black" font-size="11" font-family="sans" text-anchor="middle"><tspan x="111.60000000000001" dy="11">Data Receive</tspan></text><text x="81.0" y="-388.59999999999997" dominant-baseline="ideographic" fill="black" font-size="8" font-family="sans" text-anchor="middle"><tspan x="81.0" dy="8">R4</tspan><tspan x="81.0" dy="8">47k</tspan></text><text x="126.0" y="-360.79999999999995" dominant-baseline="ideographic" fill="black" font-size="8" font-family="sans" text-anchor="middle"><tspan x="126.0" dy="8">D1</tspan></text><text x="126.0" y="-379.59999999999997" dominant-baseline="ideographic" fill="black" font-size="8" font-family="sans" text-anchor="middle"><tspan x="126.0" dy="8">R5</tspan><tspan x="126.0" dy="8">10k</tspan></text><text x="189.0" y="-388.59999999999997" dominant-baseline="ideographic" fill="black" font-size="8" font-family="sans" text-anchor="middle"><tspan x="189.0" dy="8">R6</tspan><tspan x="189.0" dy="8">1k</tspan></text><text x="244.79999999999998" y="-371.59999999999997" dominant-baseline="ideographic" fill="black" font-size="8" font-family="sans" text-anchor="middle"><tspan x="244.79999999999998" dy="8">U2</tspan></text><text x="360.0" y="-379.59999999999997" dominant-baseline="ideographic" fill="black" font-size="8" font-family="sans" text-anchor="middle"><tspan x="360.0" dy="8">R7</tspan><tspan x="360.0" dy="8">10k</tspan></text><text x="111.60000000000001" y="-259.4" dominant-baseline="central" fill="black" font-size="11" font-family="sans" text-anchor="middle"><tspan x="111.60000000000001" dy="11">Data Transmit</tspan></text><text x="351.0" y="-244.60000000000002" dominant-baseline="ideographic" fill="black" font-size="8" font-family="sans" text-anchor="middle"><tspan x="351.0" dy="8">R8</tspan><tspan x="351.0" dy="8">330</tspan></text><text x="295.2" y="-130.4" dominant-baseline="hanging" fill="black" font-size="8" font-family="sans" text-anchor="middle"><tspan x="295.2" dy="8">U3</tspan></text><text x="288.0" y="-206.79999999999998" dominant-baseline="ideographic" fill="black" font-size="8" font-family="sans" text-anchor="middle"><tspan x="288.0" dy="8">R9</tspan><tspan x="288.0" dy="8">10k</tspan></text><text x="304.8" y="-195.20000000000002" dominant-baseline="central" fill="black" font-size="8" font-family="sans" text-anchor="start"><tspan x="304.8" dy="8">Q1</tspan></text><text x="301.20000000000005" y="-323.8" dominant-baseline="ideographic" fill="black" font-size="8" font-family="sans" text-anchor="middle"><tspan x="301.20000000000005" dy="8">R10</tspan><tspan x="301.20000000000005" dy="8">22</tspan></text><text x="301.20000000000005" y="-225.8" dominant-baseline="ideographic" fill="black" font-size="8" font-family="sans" text-anchor="middle"><tspan x="301.20000000000005" dy="8">D2</tspan></text><text x="428.40000000000003" y="-548.4" dominant-baseline="central" fill="black" font-size="12" font-family="sans" text-anchor="start"><tspan x="428.40000000000003" dy="12">MCU (J2)</tspan></text><text x="327.59999999999997" y="-137.39999999999998" dominant-baseline="central" fill="red" font-size="10" font-family="sans" text-anchor="middle"><tspan x="327.59999999999997" dy="10">ISOLATION</tspan><tspan x="327.59999999999997" dy="10">BARRIER</tspan></text><circle cx="0.0" cy="-504.0" r="2.6999999999999997" style="stroke:black;fill:black;stroke-width:2.0;stroke-dasharray:-;" /><text x="-6.3" y="-513.0" dominant-baseline="central" fill="black" font-size="9" font-family="sans" text-anchor="end"><tspan x="-6.3" dy="9">1: R (24VAC Hot)</tspan></text><circle cx="0.0" cy="-432.0" r="2.6999999999999997" style="stroke:black;fill:black;stroke-width:2.0;stroke-dasharray:-;" /><text x="-6.3" y="-441.0" dominant-baseline="central" fill="black" font-size="9" font-family="sans" text-anchor="end"><tspan x="-6.3" dy="9">2: C (Common)</tspan></text><circle cx="0.0" cy="-360.0" r="2.6999999999999997" style="stroke:black;fill:black;stroke-width:2.0;stroke-dasharray:-;" /><text x="-6.3" y="-369.0" dominant-baseline="central" fill="black" font-size="9" font-family="sans" text-anchor="end"><tspan x="-6.3" dy="9">3: D (Data)</tspan></text><circle cx="360.0" cy="-504.0" r="2.6999999999999997" style="stroke:black;fill:black;stroke-width:2.0;stroke-dasharray:-;" /><text x="360.0" y="-519.3" dominant-baseline="ideographic" fill="black" font-size="9" font-family="sans" text-anchor="middle"><tspan x="360.0" dy="9">VCC</tspan></text><circle cx="360.0" cy="-414.0" r="2.6999999999999997" style="stroke:black;fill:black;stroke-width:2.0;stroke-dasharray:-;" /><circle cx="126.0" cy="-360.0" r="2.6999999999999997" style="stroke:black;fill:black;stroke-width:2.0;stroke-dasharray:-;" /><circle cx="360.0" cy="-360.0" r="2.6999999999999997" style="stroke:black;fill:black;stroke-width:2.0;stroke-dasharray:-;" /><text x="360.0" y="-375.3" dominant-baseline="ideographic" fill="black" font-size="9" font-family="sans" text-anchor="middle"><tspan x="360.0" dy="9">VCC</tspan></text><circle cx="360.0" cy="-270.0" r="2.6999999999999997" style="stroke:black;fill:black;stroke-width:2.0;stroke-dasharray:-;" /><circle cx="432.0" cy="-216.0" r="2.6999999999999997" style="stroke:black;fill:black;stroke-width:2.0;stroke-dasharray:-;" /><text x="438.3" y="-225.0" dominant-baseline="central" fill="black" font-size="9" font-family="sans" text-anchor="start"><tspan x="438.3" dy="9">MCU_TX</tspan></text><circle cx="288.0" cy="-216.0" r="2.6999999999999997" style="stroke:black;fill:black;stroke-width:2.0;stroke-dasharray:-;" /><text x="288.0" y="-231.29999999999998" dominant-baseline="ideographic" fill="black" font-size="9" font-family="sans" text-anchor="middle"><tspan x="288.0" dy="9">VCC</tspan></text><circle cx="432.0" cy="-414.0" r="2.6999999999999997" style="stroke:black;fill:black;stroke-width:2.0;stroke-dasharray:-;" /><text x="438.3" y="-423.0" dominant-baseline="central" fill="black" font-size="9" font-family="sans" text-anchor="start"><tspan x="438.3" dy="9">3: ZC</tspan></text><circle cx="432.0" cy="-270.0" r="2.6999999999999997" style="stroke:black;fill:black;stroke-width:2.0;stroke-dasharray:-;" /><text x="438.3" y="-279.0" dominant-baseline="central" fill="black" font-size="9" font-family="sans" text-anchor="start"><tspan x="438.3" dy="9">4: RX</tspan></text><circle cx="432.0" cy="-522.0" r="2.6999999999999997" style="stroke:black;fill:black;stroke-width:2.0;stroke-dasharray:-;" /><text x="438.3" y="-531.0" dominant-baseline="central" fill="black" font-size="9" font-family="sans" text-anchor="start"><tspan x="438.3" dy="9">1: VCC</tspan></text><circle cx="432.0" cy="-288.0" r="2.6999999999999997" style="stroke:black;fill:black;stroke-width:2.0;stroke-dasharray:-;" /><text x="438.3" y="-297.0" dominant-baseline="central" fill="black" font-size="9" font-family="sans" text-anchor="start"><tspan x="438.3" dy="9">2: GND</tspan></text></svg>