<?xml version="1.0" encoding="utf-8" standalone="no"?>
<!DOCTYPE svg PUBLIC "-//W3C//DTD SVG 1.1//EN"
  "http://www.w3.org/Graphics/SVG/1.1/DTD/svg11.dtd">
<svg xmlns:xlink="http://www.w3.org/1999/xlink" width="687.78pt" height="349pt" viewBox="0 0 687.78 349" xmlns="http://www.w3.org/2000/svg" version="1.1">
 <metadata>
  <rdf:RDF xmlns:dc="http://purl.org/dc/elements/1.1/" xmlns:cc="http://creativecommons.org/ns#" xmlns:rdf="http://www.w3.org/1999/02/22-rdf-syntax-ns#">
   <cc:Work>
    <dc:type rdf:resource="http://purl.org/dc/dcmitype/StillImage"/>
    <dc:date>2026-01-27T15:05:44.752423</dc:date>
    <dc:format>image/svg+xml</dc:format>
    <dc:creator>
     <cc:Agent>
      <dc:title>Matplotlib v3.10.8, https://matplotlib.org/</dc:title>
     </cc:Agent>
    </dc:creator>
   </cc:Work>
  </rdf:RDF>
 </metadata>
 <defs>
  <style type="text/css">*{stroke-linejoin: round; stroke-linecap: butt}</style>
 </defs>
 <g id="figure_1">
  <g id="patch_1">
   <path d="M 0 349 
L 687.78 349 
L 687.78 0 
L 0 0 
L 0 349 
z
" style="fill: none"/>
  </g>
  <g id="axes_1">
   <g id="patch_2">
    <path d="M 462.24 188.98 
L 453.24 201.58 
L 444.24 188.98 
L 462.24 188.98 
z
" clip-path="url(#pb3e4fa3732)" style="fill: none; stroke: #000000; stroke-width: 2; stroke-linecap: round"/>
   </g>
   <g id="patch_3">
    <path d="M 536.16 333.82 
C 541.411021 333.82 546.447681 331.733747 550.160714 328.020714 
C 553.873747 324.307681 555.96 319.271021 555.96 314.02 
C 555.96 308.768979 553.873747 303.732319 550.160714 300.019286 
C 546.447681 296.306253 541.411021 294.22 536.16 294.22 
C 530.908979 294.22 525.872319 296.306253 522.159286 300.019286 
C 518.446253 303.732319 516.36 308.768979 516.36 314.02 
C 516.36 319.271021 518.446253 324.307681 522.159286 328.020714 
C 525.872319 331.733747 530.908979 333.82 536.16 333.82 
L 536.16 333.82 
z
" clip-path="url(#pb3e4fa3732)" style="fill: none; stroke: #000000; stroke-width: 2; stroke-linejoin: miter"/>
   </g>
   <g id="line2d_1">
    <path d="M 57.24 123.28 
L 84.24 123.28 
L 111.24 123.28 
" clip-path="url(#pb3e4fa3732)" style="fill: none; stroke: #000000; stroke-width: 2; stroke-linecap: round"/>
   </g>
   <g id="line2d_2">
    <path d="M 111.24 123.28 
L 165.24 123.28 
L 168.24 114.28 
L 174.24 132.28 
L 180.24 114.28 
L 186.24 132.28 
L 192.24 114.28 
L 198.24 132.28 
L 201.24 123.28 
L 255.24 123.28 
" clip-path="url(#pb3e4fa3732)" style="fill: none; stroke: #000000; stroke-width: 2; stroke-linecap: round"/>
   </g>
   <g id="line2d_3">
    <path d="M 255.24 123.28 
L 264.24 123.28 
L 273.24 123.28 
" clip-path="url(#pb3e4fa3732)" style="fill: none; stroke: #000000; stroke-width: 2; stroke-linecap: round"/>
   </g>
   <g id="line2d_4">
    <path d="M 273.24 123.28 
L 327.24 123.28 
L 330.24 114.28 
L 336.24 132.28 
L 342.24 114.28 
L 348.24 132.28 
L 354.24 114.28 
L 360.24 132.28 
L 363.24 123.28 
L 417.24 123.28 
" clip-path="url(#pb3e4fa3732)" style="fill: none; stroke: #000000; stroke-width: 2; stroke-linecap: round"/>
   </g>
   <g id="line2d_5">
    <path d="M 417.24 123.28 
L 435.24 123.28 
L 453.24 123.28 
" clip-path="url(#pb3e4fa3732)" style="fill: none; stroke: #000000; stroke-width: 2; stroke-linecap: round"/>
   </g>
   <g id="line2d_6">
    <path d="M 453.24 123.28 
L 453.24 188.98 
M 462.24 201.58 
L 444.24 201.58 
M 453.24 201.58 
L 453.24 267.28 
" clip-path="url(#pb3e4fa3732)" style="fill: none; stroke: #000000; stroke-width: 2; stroke-linecap: round"/>
   </g>
   <g id="line2d_7">
    <path d="M 453.24 267.28 
L 255.24 267.28 
L 57.24 267.28 
" clip-path="url(#pb3e4fa3732)" style="fill: none; stroke: #000000; stroke-width: 2; stroke-linecap: round"/>
   </g>
   <g id="line2d_8">
    <path d="M 561.24 123.28 
L 561.24 177.28 
L 570.24 180.28 
L 552.24 186.28 
L 570.24 192.28 
L 552.24 198.28 
L 570.24 204.28 
L 552.24 210.28 
L 561.24 213.28 
L 561.24 267.28 
" clip-path="url(#pb3e4fa3732)" style="fill: none; stroke: #000000; stroke-width: 2; stroke-linecap: round"/>
   </g>
   <g id="line2d_9">
    <path d="M 561.24 267.28 
L 597.24 267.28 
L 633.24 267.28 
" clip-path="url(#pb3e4fa3732)" style="fill: none; stroke: #000000; stroke-width: 2; stroke-linecap: round"/>
   </g>
   <g id="line2d_10">
    <path d="M 561.24 267.28 
L 561.24 294.28 
L 561.24 321.28 
" clip-path="url(#pb3e4fa3732)" style="fill: none; stroke: #000000; stroke-width: 2; stroke-linecap: round"/>
   </g>
   <g id="line2d_11">
    <path d="M 536.16 294.22 
L 536.16 307.42 
" clip-path="url(#pb3e4fa3732)" style="fill: none; stroke: #000000; stroke-width: 2; stroke-linecap: round"/>
   </g>
   <g id="line2d_12">
    <path d="M 549.36 307.42 
L 522.96 307.42 
" clip-path="url(#pb3e4fa3732)" style="fill: none; stroke: #000000; stroke-width: 2; stroke-linecap: round"/>
   </g>
   <g id="line2d_13">
    <path d="M 542.76 307.42 
L 554.64 321.28 
L 561.24 321.28 
" clip-path="url(#pb3e4fa3732)" style="fill: none; stroke: #000000; stroke-width: 2; stroke-linecap: round"/>
   </g>
   <g id="line2d_14">
    <path d="M 529.56 307.42 
L 517.68 321.28 
L 511.08 321.28 
" clip-path="url(#pb3e4fa3732)" style="fill: none; stroke: #000000; stroke-width: 2; stroke-linecap: round"/>
   </g>
   <g id="line2d_15">
    <path d="M 529.56 307.42 
L 523.537122 314.446691 
" clip-path="url(#pb3e4fa3732)" style="fill: none; stroke: #000000; stroke-width: 2; stroke-linecap: round"/>
   </g>
   <g id="patch_4">
    <path d="M 526.270446 316.78954 
L 517.68 321.28 
L 520.803799 312.103842 
z
" clip-path="url(#pb3e4fa3732)"/>
   </g>
   <g id="line2d_16">
    <path d="M 561.24 321.28 
L 561.24 335.68 
L 552.24 335.68 
L 570.24 335.68 
M 554.94 340 
L 567.54 340 
M 559.44 344.32 
L 563.04 344.32 
" clip-path="url(#pb3e4fa3732)" style="fill: none; stroke: #000000; stroke-width: 2; stroke-linecap: round"/>
   </g>
   <g id="line2d_17">
    <path d="M 507.24 69.28 
L 507.24 177.28 
L 507.24 285.28 
" clip-path="url(#pb3e4fa3732)" style="fill: none; stroke-dasharray: 7.4,3.2; stroke-dashoffset: 0; stroke: #808080; stroke-width: 2"/>
   </g>
   <g id="text_1">
    <!-- Zero-Crossing Detector -->
    <g transform="translate(60.84 15.543125) scale(0.14 -0.14)">
     <defs>
      <path id="DejaVuSans-5a" d="M 359 4666 
L 4025 4666 
L 4025 4184 
L 1075 531 
L 4097 531 
L 4097 0 
L 288 0 
L 288 481 
L 3238 4134 
L 359 4134 
L 359 4666 
z
" transform="scale(0.015625)"/>
      <path id="DejaVuSans-65" d="M 3597 1894 
L 3597 1613 
L 953 1613 
Q 991 1019 1311 708 
Q 1631 397 2203 397 
Q 2534 397 2845 478 
Q 3156 559 3463 722 
L 3463 178 
Q 3153 47 2828 -22 
Q 2503 -91 2169 -91 
Q 1331 -91 842 396 
Q 353 884 353 1716 
Q 353 2575 817 3079 
Q 1281 3584 2069 3584 
Q 2775 3584 3186 3129 
Q 3597 2675 3597 1894 
z
M 3022 2063 
Q 3016 2534 2758 2815 
Q 2500 3097 2075 3097 
Q 1594 3097 1305 2825 
Q 1016 2553 972 2059 
L 3022 2063 
z
" transform="scale(0.015625)"/>
      <path id="DejaVuSans-72" d="M 2631 2963 
Q 2534 3019 2420 3045 
Q 2306 3072 2169 3072 
Q 1681 3072 1420 2755 
Q 1159 2438 1159 1844 
L 1159 0 
L 581 0 
L 581 3500 
L 1159 3500 
L 1159 2956 
Q 1341 3275 1631 3429 
Q 1922 3584 2338 3584 
Q 2397 3584 2469 3576 
Q 2541 3569 2628 3553 
L 2631 2963 
z
" transform="scale(0.015625)"/>
      <path id="DejaVuSans-6f" d="M 1959 3097 
Q 1497 3097 1228 2736 
Q 959 2375 959 1747 
Q 959 1119 1226 758 
Q 1494 397 1959 397 
Q 2419 397 2687 759 
Q 2956 1122 2956 1747 
Q 2956 2369 2687 2733 
Q 2419 3097 1959 3097 
z
M 1959 3584 
Q 2709 3584 3137 3096 
Q 3566 2609 3566 1747 
Q 3566 888 3137 398 
Q 2709 -91 1959 -91 
Q 1206 -91 779 398 
Q 353 888 353 1747 
Q 353 2609 779 3096 
Q 1206 3584 1959 3584 
z
" transform="scale(0.015625)"/>
      <path id="DejaVuSans-2d" d="M 313 2009 
L 1997 2009 
L 1997 1497 
L 313 1497 
L 313 2009 
z
" transform="scale(0.015625)"/>
      <path id="DejaVuSans-43" d="M 4122 4306 
L 4122 3641 
Q 3803 3938 3442 4084 
Q 3081 4231 2675 4231 
Q 1875 4231 1450 3742 
Q 1025 3253 1025 2328 
Q 1025 1406 1450 917 
Q 1875 428 2675 428 
Q 3081 428 3442 575 
Q 3803 722 4122 1019 
L 4122 359 
Q 3791 134 3420 21 
Q 3050 -91 2638 -91 
Q 1578 -91 968 557 
Q 359 1206 359 2328 
Q 359 3453 968 4101 
Q 1578 4750 2638 4750 
Q 3056 4750 3426 4639 
Q 3797 4528 4122 4306 
z
" transform="scale(0.015625)"/>
      <path id="DejaVuSans-73" d="M 2834 3397 
L 2834 2853 
Q 2591 2978 2328 3040 
Q 2066 3103 1784 3103 
Q 1356 3103 1142 2972 
Q 928 2841 928 2578 
Q 928 2378 1081 2264 
Q 1234 2150 1697 2047 
L 1894 2003 
Q 2506 1872 2764 1633 
Q 3022 1394 3022 966 
Q 3022 478 2636 193 
Q 2250 -91 1575 -91 
Q 1294 -91 989 -36 
Q 684 19 347 128 
L 347 722 
Q 666 556 975 473 
Q 1284 391 1588 391 
Q 1994 391 2212 530 
Q 2431 669 2431 922 
Q 2431 1156 2273 1281 
Q 2116 1406 1581 1522 
L 1381 1569 
Q 847 1681 609 1914 
Q 372 2147 372 2553 
Q 372 3047 722 3315 
Q 1072 3584 1716 3584 
Q 2034 3584 2315 3537 
Q 2597 3491 2834 3397 
z
" transform="scale(0.015625)"/>
      <path id="DejaVuSans-69" d="M 603 3500 
L 1178 3500 
L 1178 0 
L 603 0 
L 603 3500 
z
M 603 4863 
L 1178 4863 
L 1178 4134 
L 603 4134 
L 603 4863 
z
" transform="scale(0.015625)"/>
      <path id="DejaVuSans-6e" d="M 3513 2113 
L 3513 0 
L 2938 0 
L 2938 2094 
Q 2938 2591 2744 2837 
Q 2550 3084 2163 3084 
Q 1697 3084 1428 2787 
Q 1159 2491 1159 1978 
L 1159 0 
L 581 0 
L 581 3500 
L 1159 3500 
L 1159 2956 
Q 1366 3272 1645 3428 
Q 1925 3584 2291 3584 
Q 2894 3584 3203 3211 
Q 3513 2838 3513 2113 
z
" transform="scale(0.015625)"/>
      <path id="DejaVuSans-67" d="M 2906 1791 
Q 2906 2416 2648 2759 
Q 2391 3103 1925 3103 
Q 1463 3103 1205 2759 
Q 947 2416 947 1791 
Q 947 1169 1205 825 
Q 1463 481 1925 481 
Q 2391 481 2648 825 
Q 2906 1169 2906 1791 
z
M 3481 434 
Q 3481 -459 3084 -895 
Q 2688 -1331 1869 -1331 
Q 1566 -1331 1297 -1286 
Q 1028 -1241 775 -1147 
L 775 -588 
Q 1028 -725 1275 -790 
Q 1522 -856 1778 -856 
Q 2344 -856 2625 -561 
Q 2906 -266 2906 331 
L 2906 616 
Q 2728 306 2450 153 
Q 2172 0 1784 0 
Q 1141 0 747 490 
Q 353 981 353 1791 
Q 353 2603 747 3093 
Q 1141 3584 1784 3584 
Q 2172 3584 2450 3431 
Q 2728 3278 2906 2969 
L 2906 3500 
L 3481 3500 
L 3481 434 
z
" transform="scale(0.015625)"/>
      <path id="DejaVuSans-20" transform="scale(0.015625)"/>
      <path id="DejaVuSans-44" d="M 1259 4147 
L 1259 519 
L 2022 519 
Q 2988 519 3436 956 
Q 3884 1394 3884 2338 
Q 3884 3275 3436 3711 
Q 2988 4147 2022 4147 
L 1259 4147 
z
M 628 4666 
L 1925 4666 
Q 3281 4666 3915 4102 
Q 4550 3538 4550 2338 
Q 4550 1131 3912 565 
Q 3275 0 1925 0 
L 628 0 
L 628 4666 
z
" transform="scale(0.015625)"/>
      <path id="DejaVuSans-74" d="M 1172 4494 
L 1172 3500 
L 2356 3500 
L 2356 3053 
L 1172 3053 
L 1172 1153 
Q 1172 725 1289 603 
Q 1406 481 1766 481 
L 2356 481 
L 2356 0 
L 1766 0 
Q 1100 0 847 248 
Q 594 497 594 1153 
L 594 3053 
L 172 3053 
L 172 3500 
L 594 3500 
L 594 4494 
L 1172 4494 
z
" transform="scale(0.015625)"/>
      <path id="DejaVuSans-63" d="M 3122 3366 
L 3122 2828 
Q 2878 2963 2633 3030 
Q 2388 3097 2138 3097 
Q 1578 3097 1268 2742 
Q 959 2388 959 1747 
Q 959 1106 1268 751 
Q 1578 397 2138 397 
Q 2388 397 2633 464 
Q 2878 531 3122 666 
L 3122 134 
Q 2881 22 2623 -34 
Q 2366 -91 2075 -91 
Q 1284 -91 818 406 
Q 353 903 353 1747 
Q 353 2603 823 3093 
Q 1294 3584 2113 3584 
Q 2378 3584 2631 3529 
Q 2884 3475 3122 3366 
z
" transform="scale(0.015625)"/>
     </defs>
     <use xlink:href="#DejaVuSans-5a"/>
     <use xlink:href="#DejaVuSans-65" transform="translate(68.505859 0)"/>
     <use xlink:href="#DejaVuSans-72" transform="translate(130.029297 0)"/>
     <use xlink:href="#DejaVuSans-6f" transform="translate(168.892578 0)"/>
     <use xlink:href="#DejaVuSans-2d" transform="translate(231.949219 0)"/>
     <use xlink:href="#DejaVuSans-43" transform="translate(268.033203 0)"/>
     <use xlink:href="#DejaVuSans-72" transform="translate(337.857422 0)"/>
     <use xlink:href="#DejaVuSans-6f" transform="translate(376.720703 0)"/>
     <use xlink:href="#DejaVuSans-73" transform="translate(437.902344 0)"/>
     <use xlink:href="#DejaVuSans-73" transform="translate(490.001953 0)"/>
     <use xlink:href="#DejaVuSans-69" transform="translate(542.101562 0)"/>
     <use xlink:href="#DejaVuSans-6e" transform="translate(569.884766 0)"/>
     <use xlink:href="#DejaVuSans-67" transform="translate(633.263672 0)"/>
     <use xlink:href="#DejaVuSans-20" transform="translate(696.740234 0)"/>
     <use xlink:href="#DejaVuSans-44" transform="translate(728.527344 0)"/>
     <use xlink:href="#DejaVuSans-65" transform="translate(805.529297 0)"/>
     <use xlink:href="#DejaVuSans-74" transform="translate(867.052734 0)"/>
     <use xlink:href="#DejaVuSans-65" transform="translate(906.261719 0)"/>
     <use xlink:href="#DejaVuSans-63" transform="translate(967.785156 0)"/>
     <use xlink:href="#DejaVuSans-74" transform="translate(1022.765625 0)"/>
     <use xlink:href="#DejaVuSans-6f" transform="translate(1061.974609 0)"/>
     <use xlink:href="#DejaVuSans-72" transform="translate(1123.15625 0)"/>
    </g>
   </g>
   <g id="text_2">
    <!-- R1 -->
    <g transform="translate(175.918984 108.392344) scale(0.11 -0.11)">
     <defs>
      <path id="DejaVuSans-52" d="M 2841 2188 
Q 3044 2119 3236 1894 
Q 3428 1669 3622 1275 
L 4263 0 
L 3584 0 
L 2988 1197 
Q 2756 1666 2539 1819 
Q 2322 1972 1947 1972 
L 1259 1972 
L 1259 0 
L 628 0 
L 628 4666 
L 2053 4666 
Q 2853 4666 3247 4331 
Q 3641 3997 3641 3322 
Q 3641 2881 3436 2590 
Q 3231 2300 2841 2188 
z
M 1259 4147 
L 1259 2491 
L 2053 2491 
Q 2509 2491 2742 2702 
Q 2975 2913 2975 3322 
Q 2975 3731 2742 3939 
Q 2509 4147 2053 4147 
L 1259 4147 
z
" transform="scale(0.015625)"/>
      <path id="DejaVuSans-31" d="M 794 531 
L 1825 531 
L 1825 4091 
L 703 3866 
L 703 4441 
L 1819 4666 
L 2450 4666 
L 2450 531 
L 3481 531 
L 3481 0 
L 794 0 
L 794 531 
z
" transform="scale(0.015625)"/>
     </defs>
     <use xlink:href="#DejaVuSans-52"/>
     <use xlink:href="#DejaVuSans-31" transform="translate(69.482422 0)"/>
    </g>
   </g>
   <g id="text_3">
    <!-- 100kΩ -->
    <g transform="translate(165.353828 144.238281) scale(0.11 -0.11)">
     <defs>
      <path id="DejaVuSans-30" d="M 2034 4250 
Q 1547 4250 1301 3770 
Q 1056 3291 1056 2328 
Q 1056 1369 1301 889 
Q 1547 409 2034 409 
Q 2525 409 2770 889 
Q 3016 1369 3016 2328 
Q 3016 3291 2770 3770 
Q 2525 4250 2034 4250 
z
M 2034 4750 
Q 2819 4750 3233 4129 
Q 3647 3509 3647 2328 
Q 3647 1150 3233 529 
Q 2819 -91 2034 -91 
Q 1250 -91 836 529 
Q 422 1150 422 2328 
Q 422 3509 836 4129 
Q 1250 4750 2034 4750 
z
" transform="scale(0.015625)"/>
      <path id="DejaVuSans-6b" d="M 581 4863 
L 1159 4863 
L 1159 1991 
L 2875 3500 
L 3609 3500 
L 1753 1863 
L 3688 0 
L 2938 0 
L 1159 1709 
L 1159 0 
L 581 0 
L 581 4863 
z
" transform="scale(0.015625)"/>
      <path id="DejaVuSans-3a9" d="M 4647 556 
L 4647 0 
L 2772 0 
L 2772 556 
Q 3325 859 3634 1378 
Q 3944 1897 3944 2528 
Q 3944 3278 3531 3731 
Q 3119 4184 2444 4184 
Q 1769 4184 1355 3729 
Q 941 3275 941 2528 
Q 941 1897 1250 1378 
Q 1563 859 2119 556 
L 2119 0 
L 244 0 
L 244 556 
L 1241 556 
Q 747 991 519 1456 
Q 294 1922 294 2497 
Q 294 3491 894 4106 
Q 1491 4722 2444 4722 
Q 3391 4722 3994 4106 
Q 4594 3494 4594 2528 
Q 4594 1922 4372 1459 
Q 4150 997 3647 556 
L 4647 556 
z
" transform="scale(0.015625)"/>
     </defs>
     <use xlink:href="#DejaVuSans-31"/>
     <use xlink:href="#DejaVuSans-30" transform="translate(63.623047 0)"/>
     <use xlink:href="#DejaVuSans-30" transform="translate(127.246094 0)"/>
     <use xlink:href="#DejaVuSans-6b" transform="translate(190.869141 0)"/>
     <use xlink:href="#DejaVuSans-3a9" transform="translate(248.779297 0)"/>
    </g>
   </g>
   <g id="text_4">
    <!-- R2 -->
    <g transform="translate(337.918984 108.392344) scale(0.11 -0.11)">
     <defs>
      <path id="DejaVuSans-32" d="M 1228 531 
L 3431 531 
L 3431 0 
L 469 0 
L 469 531 
Q 828 903 1448 1529 
Q 2069 2156 2228 2338 
Q 2531 2678 2651 2914 
Q 2772 3150 2772 3378 
Q 2772 3750 2511 3984 
Q 2250 4219 1831 4219 
Q 1534 4219 1204 4116 
Q 875 4013 500 3803 
L 500 4441 
Q 881 4594 1212 4672 
Q 1544 4750 1819 4750 
Q 2544 4750 2975 4387 
Q 3406 4025 3406 3419 
Q 3406 3131 3298 2873 
Q 3191 2616 2906 2266 
Q 2828 2175 2409 1742 
Q 1991 1309 1228 531 
z
" transform="scale(0.015625)"/>
     </defs>
     <use xlink:href="#DejaVuSans-52"/>
     <use xlink:href="#DejaVuSans-32" transform="translate(69.482422 0)"/>
    </g>
   </g>
   <g id="text_5">
    <!-- 100kΩ -->
    <g transform="translate(327.353828 144.238281) scale(0.11 -0.11)">
     <use xlink:href="#DejaVuSans-31"/>
     <use xlink:href="#DejaVuSans-30" transform="translate(63.623047 0)"/>
     <use xlink:href="#DejaVuSans-30" transform="translate(127.246094 0)"/>
     <use xlink:href="#DejaVuSans-6b" transform="translate(190.869141 0)"/>
     <use xlink:href="#DejaVuSans-3a9" transform="translate(248.779297 0)"/>
    </g>
   </g>
   <g id="text_6">
    <!-- U1: H11AA1 -->
    <g transform="translate(419.804297 110.192344) scale(0.11 -0.11)">
     <defs>
      <path id="DejaVuSans-55" d="M 556 4666 
L 1191 4666 
L 1191 1831 
Q 1191 1081 1462 751 
Q 1734 422 2344 422 
Q 2950 422 3222 751 
Q 3494 1081 3494 1831 
L 3494 4666 
L 4128 4666 
L 4128 1753 
Q 4128 841 3676 375 
Q 3225 -91 2344 -91 
Q 1459 -91 1007 375 
Q 556 841 556 1753 
L 556 4666 
z
" transform="scale(0.015625)"/>
      <path id="DejaVuSans-3a" d="M 750 794 
L 1409 794 
L 1409 0 
L 750 0 
L 750 794 
z
M 750 3309 
L 1409 3309 
L 1409 2516 
L 750 2516 
L 750 3309 
z
" transform="scale(0.015625)"/>
      <path id="DejaVuSans-48" d="M 628 4666 
L 1259 4666 
L 1259 2753 
L 3553 2753 
L 3553 4666 
L 4184 4666 
L 4184 0 
L 3553 0 
L 3553 2222 
L 1259 2222 
L 1259 0 
L 628 0 
L 628 4666 
z
" transform="scale(0.015625)"/>
      <path id="DejaVuSans-41" d="M 2188 4044 
L 1331 1722 
L 3047 1722 
L 2188 4044 
z
M 1831 4666 
L 2547 4666 
L 4325 0 
L 3669 0 
L 3244 1197 
L 1141 1197 
L 716 0 
L 50 0 
L 1831 4666 
z
" transform="scale(0.015625)"/>
     </defs>
     <use xlink:href="#DejaVuSans-55"/>
     <use xlink:href="#DejaVuSans-31" transform="translate(73.193359 0)"/>
     <use xlink:href="#DejaVuSans-3a" transform="translate(136.816406 0)"/>
     <use xlink:href="#DejaVuSans-20" transform="translate(170.507812 0)"/>
     <use xlink:href="#DejaVuSans-48" transform="translate(202.294922 0)"/>
     <use xlink:href="#DejaVuSans-31" transform="translate(277.490234 0)"/>
     <use xlink:href="#DejaVuSans-31" transform="translate(341.113281 0)"/>
     <use xlink:href="#DejaVuSans-41" transform="translate(404.736328 0)"/>
     <use xlink:href="#DejaVuSans-41" transform="translate(475.894531 0)"/>
     <use xlink:href="#DejaVuSans-31" transform="translate(544.302734 0)"/>
    </g>
   </g>
   <g id="text_7">
    <!-- R3 -->
    <g transform="translate(553.918984 282.838281) scale(0.11 -0.11)">
     <defs>
      <path id="DejaVuSans-33" d="M 2597 2516 
Q 3050 2419 3304 2112 
Q 3559 1806 3559 1356 
Q 3559 666 3084 287 
Q 2609 -91 1734 -91 
Q 1441 -91 1130 -33 
Q 819 25 488 141 
L 488 750 
Q 750 597 1062 519 
Q 1375 441 1716 441 
Q 2309 441 2620 675 
Q 2931 909 2931 1356 
Q 2931 1769 2642 2001 
Q 2353 2234 1838 2234 
L 1294 2234 
L 1294 2753 
L 1863 2753 
Q 2328 2753 2575 2939 
Q 2822 3125 2822 3475 
Q 2822 3834 2567 4026 
Q 2313 4219 1838 4219 
Q 1578 4219 1281 4162 
Q 984 4106 628 3988 
L 628 4550 
Q 988 4650 1302 4700 
Q 1616 4750 1894 4750 
Q 2613 4750 3031 4423 
Q 3450 4097 3450 3541 
Q 3450 3153 3228 2886 
Q 3006 2619 2597 2516 
z
" transform="scale(0.015625)"/>
     </defs>
     <use xlink:href="#DejaVuSans-52"/>
     <use xlink:href="#DejaVuSans-33" transform="translate(69.482422 0)"/>
    </g>
   </g>
   <g id="text_8">
    <!-- 10kΩ -->
    <g transform="translate(546.853203 113.792344) scale(0.11 -0.11)">
     <use xlink:href="#DejaVuSans-31"/>
     <use xlink:href="#DejaVuSans-30" transform="translate(63.623047 0)"/>
     <use xlink:href="#DejaVuSans-6b" transform="translate(127.246094 0)"/>
     <use xlink:href="#DejaVuSans-3a9" transform="translate(185.15625 0)"/>
    </g>
   </g>
   <g id="text_9">
    <!-- Q (photo) -->
    <g transform="translate(514.396406 281.548281) scale(0.09 -0.09)">
     <defs>
      <path id="DejaVuSans-51" d="M 2522 4238 
Q 1834 4238 1429 3725 
Q 1025 3213 1025 2328 
Q 1025 1447 1429 934 
Q 1834 422 2522 422 
Q 3209 422 3611 934 
Q 4013 1447 4013 2328 
Q 4013 3213 3611 3725 
Q 3209 4238 2522 4238 
z
M 3406 84 
L 4238 -825 
L 3475 -825 
L 2784 -78 
Q 2681 -84 2626 -87 
Q 2572 -91 2522 -91 
Q 1538 -91 948 567 
Q 359 1225 359 2328 
Q 359 3434 948 4092 
Q 1538 4750 2522 4750 
Q 3503 4750 4090 4092 
Q 4678 3434 4678 2328 
Q 4678 1516 4351 937 
Q 4025 359 3406 84 
z
" transform="scale(0.015625)"/>
      <path id="DejaVuSans-28" d="M 1984 4856 
Q 1566 4138 1362 3434 
Q 1159 2731 1159 2009 
Q 1159 1288 1364 580 
Q 1569 -128 1984 -844 
L 1484 -844 
Q 1016 -109 783 600 
Q 550 1309 550 2009 
Q 550 2706 781 3412 
Q 1013 4119 1484 4856 
L 1984 4856 
z
" transform="scale(0.015625)"/>
      <path id="DejaVuSans-70" d="M 1159 525 
L 1159 -1331 
L 581 -1331 
L 581 3500 
L 1159 3500 
L 1159 2969 
Q 1341 3281 1617 3432 
Q 1894 3584 2278 3584 
Q 2916 3584 3314 3078 
Q 3713 2572 3713 1747 
Q 3713 922 3314 415 
Q 2916 -91 2278 -91 
Q 1894 -91 1617 61 
Q 1341 213 1159 525 
z
M 3116 1747 
Q 3116 2381 2855 2742 
Q 2594 3103 2138 3103 
Q 1681 3103 1420 2742 
Q 1159 2381 1159 1747 
Q 1159 1113 1420 752 
Q 1681 391 2138 391 
Q 2594 391 2855 752 
Q 3116 1113 3116 1747 
z
" transform="scale(0.015625)"/>
      <path id="DejaVuSans-68" d="M 3513 2113 
L 3513 0 
L 2938 0 
L 2938 2094 
Q 2938 2591 2744 2837 
Q 2550 3084 2163 3084 
Q 1697 3084 1428 2787 
Q 1159 2491 1159 1978 
L 1159 0 
L 581 0 
L 581 4863 
L 1159 4863 
L 1159 2956 
Q 1366 3272 1645 3428 
Q 1925 3584 2291 3584 
Q 2894 3584 3203 3211 
Q 3513 2838 3513 2113 
z
" transform="scale(0.015625)"/>
      <path id="DejaVuSans-29" d="M 513 4856 
L 1013 4856 
Q 1481 4119 1714 3412 
Q 1947 2706 1947 2009 
Q 1947 1309 1714 600 
Q 1481 -109 1013 -844 
L 513 -844 
Q 928 -128 1133 580 
Q 1338 1288 1338 2009 
Q 1338 2731 1133 3434 
Q 928 4138 513 4856 
z
" transform="scale(0.015625)"/>
     </defs>
     <use xlink:href="#DejaVuSans-51"/>
     <use xlink:href="#DejaVuSans-20" transform="translate(78.710938 0)"/>
     <use xlink:href="#DejaVuSans-28" transform="translate(110.498047 0)"/>
     <use xlink:href="#DejaVuSans-70" transform="translate(149.511719 0)"/>
     <use xlink:href="#DejaVuSans-68" transform="translate(212.988281 0)"/>
     <use xlink:href="#DejaVuSans-6f" transform="translate(276.367188 0)"/>
     <use xlink:href="#DejaVuSans-74" transform="translate(337.548828 0)"/>
     <use xlink:href="#DejaVuSans-6f" transform="translate(376.757812 0)"/>
     <use xlink:href="#DejaVuSans-29" transform="translate(437.939453 0)"/>
    </g>
   </g>
   <g id="text_10">
    <!-- ISOLATION -->
    <g style="fill: #808080" transform="translate(486.790312 309.363438) scale(0.09 -0.09)">
     <defs>
      <path id="DejaVuSans-49" d="M 628 4666 
L 1259 4666 
L 1259 0 
L 628 0 
L 628 4666 
z
" transform="scale(0.015625)"/>
      <path id="DejaVuSans-53" d="M 3425 4513 
L 3425 3897 
Q 3066 4069 2747 4153 
Q 2428 4238 2131 4238 
Q 1616 4238 1336 4038 
Q 1056 3838 1056 3469 
Q 1056 3159 1242 3001 
Q 1428 2844 1947 2747 
L 2328 2669 
Q 3034 2534 3370 2195 
Q 3706 1856 3706 1288 
Q 3706 609 3251 259 
Q 2797 -91 1919 -91 
Q 1588 -91 1214 -16 
Q 841 59 441 206 
L 441 856 
Q 825 641 1194 531 
Q 1563 422 1919 422 
Q 2459 422 2753 634 
Q 3047 847 3047 1241 
Q 3047 1584 2836 1778 
Q 2625 1972 2144 2069 
L 1759 2144 
Q 1053 2284 737 2584 
Q 422 2884 422 3419 
Q 422 4038 858 4394 
Q 1294 4750 2059 4750 
Q 2388 4750 2728 4690 
Q 3069 4631 3425 4513 
z
" transform="scale(0.015625)"/>
      <path id="DejaVuSans-4f" d="M 2522 4238 
Q 1834 4238 1429 3725 
Q 1025 3213 1025 2328 
Q 1025 1447 1429 934 
Q 1834 422 2522 422 
Q 3209 422 3611 934 
Q 4013 1447 4013 2328 
Q 4013 3213 3611 3725 
Q 3209 4238 2522 4238 
z
M 2522 4750 
Q 3503 4750 4090 4092 
Q 4678 3434 4678 2328 
Q 4678 1225 4090 567 
Q 3503 -91 2522 -91 
Q 1538 -91 948 565 
Q 359 1222 359 2328 
Q 359 3434 948 4092 
Q 1538 4750 2522 4750 
z
" transform="scale(0.015625)"/>
      <path id="DejaVuSans-4c" d="M 628 4666 
L 1259 4666 
L 1259 531 
L 3531 531 
L 3531 0 
L 628 0 
L 628 4666 
z
" transform="scale(0.015625)"/>
      <path id="DejaVuSans-54" d="M -19 4666 
L 3928 4666 
L 3928 4134 
L 2272 4134 
L 2272 0 
L 1638 0 
L 1638 4134 
L -19 4134 
L -19 4666 
z
" transform="scale(0.015625)"/>
      <path id="DejaVuSans-4e" d="M 628 4666 
L 1478 4666 
L 3547 763 
L 3547 4666 
L 4159 4666 
L 4159 0 
L 3309 0 
L 1241 3903 
L 1241 0 
L 628 0 
L 628 4666 
z
" transform="scale(0.015625)"/>
     </defs>
     <use xlink:href="#DejaVuSans-49"/>
     <use xlink:href="#DejaVuSans-53" transform="translate(29.492188 0)"/>
     <use xlink:href="#DejaVuSans-4f" transform="translate(92.96875 0)"/>
     <use xlink:href="#DejaVuSans-4c" transform="translate(171.679688 0)"/>
     <use xlink:href="#DejaVuSans-41" transform="translate(229.642578 0)"/>
     <use xlink:href="#DejaVuSans-54" transform="translate(290.300781 0)"/>
     <use xlink:href="#DejaVuSans-49" transform="translate(351.384766 0)"/>
     <use xlink:href="#DejaVuSans-4f" transform="translate(380.876953 0)"/>
     <use xlink:href="#DejaVuSans-4e" transform="translate(459.587891 0)"/>
    </g>
   </g>
   <g id="patch_5">
    <path d="M 57.24 125.98 
C 57.956048 125.98 58.642866 125.695511 59.149188 125.189188 
C 59.655511 124.682866 59.94 123.996048 59.94 123.28 
C 59.94 122.563952 59.655511 121.877134 59.149188 121.370812 
C 58.642866 120.864489 57.956048 120.58 57.24 120.58 
C 56.523952 120.58 55.837134 120.864489 55.330812 121.370812 
C 54.824489 121.877134 54.54 122.563952 54.54 123.28 
C 54.54 123.996048 54.824489 124.682866 55.330812 125.189188 
C 55.837134 125.695511 56.523952 125.98 57.24 125.98 
z
" clip-path="url(#pb3e4fa3732)" style="stroke: #000000; stroke-width: 2; stroke-linejoin: miter"/>
   </g>
   <g id="text_11">
    <!-- AC_HOT -->
    <g transform="translate(7.191562 125.812031) scale(0.1 -0.1)">
     <defs>
      <path id="DejaVuSans-5f" d="M 3263 -1063 
L 3263 -1509 
L -63 -1509 
L -63 -1063 
L 3263 -1063 
z
" transform="scale(0.015625)"/>
     </defs>
     <use xlink:href="#DejaVuSans-41"/>
     <use xlink:href="#DejaVuSans-43" transform="translate(66.658203 0)"/>
     <use xlink:href="#DejaVuSans-5f" transform="translate(136.482422 0)"/>
     <use xlink:href="#DejaVuSans-48" transform="translate(186.482422 0)"/>
     <use xlink:href="#DejaVuSans-4f" transform="translate(261.677734 0)"/>
     <use xlink:href="#DejaVuSans-54" transform="translate(340.388672 0)"/>
    </g>
   </g>
   <g id="patch_6">
    <path d="M 57.24 269.98 
C 57.956048 269.98 58.642866 269.695511 59.149188 269.189188 
C 59.655511 268.682866 59.94 267.996048 59.94 267.28 
C 59.94 266.563952 59.655511 265.877134 59.149188 265.370812 
C 58.642866 264.864489 57.956048 264.58 57.24 264.58 
C 56.523952 264.58 55.837134 264.864489 55.330812 265.370812 
C 54.824489 265.877134 54.54 266.563952 54.54 267.28 
C 54.54 267.996048 54.824489 268.682866 55.330812 269.189188 
C 55.837134 269.695511 56.523952 269.98 57.24 269.98 
z
" clip-path="url(#pb3e4fa3732)" style="stroke: #000000; stroke-width: 2; stroke-linejoin: miter"/>
   </g>
   <g id="text_12">
    <!-- AC_COM -->
    <g transform="translate(5.20875 269.812031) scale(0.1 -0.1)">
     <defs>
      <path id="DejaVuSans-4d" d="M 628 4666 
L 1569 4666 
L 2759 1491 
L 3956 4666 
L 4897 4666 
L 4897 0 
L 4281 0 
L 4281 4097 
L 3078 897 
L 2444 897 
L 1241 4097 
L 1241 0 
L 628 0 
L 628 4666 
z
" transform="scale(0.015625)"/>
     </defs>
     <use xlink:href="#DejaVuSans-41"/>
     <use xlink:href="#DejaVuSans-43" transform="translate(66.658203 0)"/>
     <use xlink:href="#DejaVuSans-5f" transform="translate(136.482422 0)"/>
     <use xlink:href="#DejaVuSans-43" transform="translate(186.482422 0)"/>
     <use xlink:href="#DejaVuSans-4f" transform="translate(256.306641 0)"/>
     <use xlink:href="#DejaVuSans-4d" transform="translate(335.017578 0)"/>
    </g>
   </g>
   <g id="patch_7">
    <path d="M 561.24 125.98 
C 561.956048 125.98 562.642866 125.695511 563.149188 125.189188 
C 563.655511 124.682866 563.94 123.996048 563.94 123.28 
C 563.94 122.563952 563.655511 121.877134 563.149188 121.370812 
C 562.642866 120.864489 561.956048 120.58 561.24 120.58 
C 560.523952 120.58 559.837134 120.864489 559.330812 121.370812 
C 558.824489 121.877134 558.54 122.563952 558.54 123.28 
C 558.54 123.996048 558.824489 124.682866 559.330812 125.189188 
C 559.837134 125.695511 560.523952 125.98 561.24 125.98 
z
" clip-path="url(#pb3e4fa3732)" style="stroke: #000000; stroke-width: 2; stroke-linejoin: miter"/>
   </g>
   <g id="text_13">
    <!-- VCC -->
    <g transform="translate(550.836875 113.100313) scale(0.1 -0.1)">
     <defs>
      <path id="DejaVuSans-56" d="M 1831 0 
L 50 4666 
L 709 4666 
L 2188 738 
L 3669 4666 
L 4325 4666 
L 2547 0 
L 1831 0 
z
" transform="scale(0.015625)"/>
     </defs>
     <use xlink:href="#DejaVuSans-56"/>
     <use xlink:href="#DejaVuSans-43" transform="translate(68.408203 0)"/>
     <use xlink:href="#DejaVuSans-43" transform="translate(138.232422 0)"/>
    </g>
   </g>
   <g id="patch_8">
    <path d="M 561.24 269.98 
C 561.956048 269.98 562.642866 269.695511 563.149188 269.189188 
C 563.655511 268.682866 563.94 267.996048 563.94 267.28 
C 563.94 266.563952 563.655511 265.877134 563.149188 265.370812 
C 562.642866 264.864489 561.956048 264.58 561.24 264.58 
C 560.523952 264.58 559.837134 264.864489 559.330812 265.370812 
C 558.824489 265.877134 558.54 266.563952 558.54 267.28 
C 558.54 267.996048 558.824489 268.682866 559.330812 269.189188 
C 559.837134 269.695511 560.523952 269.98 561.24 269.98 
z
" clip-path="url(#pb3e4fa3732)" style="stroke: #000000; stroke-width: 2; stroke-linejoin: miter"/>
   </g>
   <g id="patch_9">
    <path d="M 633.24 269.98 
C 633.956048 269.98 634.642866 269.695511 635.149188 269.189188 
C 635.655511 268.682866 635.94 267.996048 635.94 267.28 
C 635.94 266.563952 635.655511 265.877134 635.149188 265.370812 
C 634.642866 264.864489 633.956048 264.58 633.24 264.58 
C 632.523952 264.58 631.837134 264.864489 631.330812 265.370812 
C 630.824489 265.877134 630.54 266.563952 630.54 267.28 
C 630.54 267.996048 630.824489 268.682866 631.330812 269.189188 
C 631.837134 269.695511 632.523952 269.98 633.24 269.98 
z
" clip-path="url(#pb3e4fa3732)" style="stroke: #000000; stroke-width: 2; stroke-linejoin: miter"/>
   </g>
   <g id="text_14">
    <!-- MCU_ZC -->
    <g transform="translate(643.14 269.812031) scale(0.1 -0.1)">
     <use xlink:href="#DejaVuSans-4d"/>
     <use xlink:href="#DejaVuSans-43" transform="translate(86.279297 0)"/>
     <use xlink:href="#DejaVuSans-55" transform="translate(156.103516 0)"/>
     <use xlink:href="#DejaVuSans-5f" transform="translate(229.296875 0)"/>
     <use xlink:href="#DejaVuSans-5a" transform="translate(279.296875 0)"/>
     <use xlink:href="#DejaVuSans-43" transform="translate(347.802734 0)"/>
    </g>
   </g>
  </g>
 </g>
 <defs>
  <clipPath id="pb3e4fa3732">
   <rect x="0" y="0" width="687.78" height="349"/>
  </clipPath>
 </defs>
</svg>
