<svg xmlns="http://www.w3.org/2000/svg" xmlns:xlink="http://www.w3.org/1999/xlink" xml:lang="en" height="430.4pt" width="525.62pt" viewBox="-57.16 -303.2 525.62 430.4"><polygon points="243.0,-114.3 234.0,-101.7 225.0,-114.3 " style="stroke:black;fill:none;stroke-width:2.0;stroke-dasharray:-;stroke-linecap:round;stroke-linejoin:round;" /><circle cx="316.91999999999996" cy="10.74" r="19.8" style="stroke:black;fill:none;stroke-width:2.0;stroke-dasharray:-;" /><path d="M 0.0,-180.0 L 27.0,-180.0 L 54.0,-180.0" style="stroke:black;fill:none;stroke-width:2.0;stroke-dasharray:-;stroke-linecap:round;stroke-linejoin:round;" /><path d="M 54.0,-180.0 L 108.0,-180.0 L 110.99999999999999,-189.0 L 117.0,-171.0 L 123.0,-189.0 L 129.0,-171.0 L 135.0,-189.0 L 141.0,-171.0 L 144.0,-180.0 L 198.0,-180.0" style="stroke:black;fill:none;stroke-width:2.0;stroke-dasharray:-;stroke-linecap:round;stroke-linejoin:round;" /><path d="M 198.0,-180.0 L 216.0,-180.0 L 234.0,-180.0" style="stroke:black;fill:none;stroke-width:2.0;stroke-dasharray:-;stroke-linecap:round;stroke-linejoin:round;" /><path d="M 234.0,-180.0 L 234.0,-114.3 M 243.0,-101.7 L 225.0,-101.7 M 234.0,-101.7 L 233.99999999999997,-36.0" style="stroke:black;fill:none;stroke-width:2.0;stroke-dasharray:-;stroke-linecap:round;stroke-linejoin:round;" /><path d="M 233.99999999999997,-36.0 L 233.99999999999997,18.0 L 242.99999999999997,20.999999999999996 L 224.99999999999997,27.0 L 242.99999999999997,32.99999999999999 L 224.99999999999997,38.999999999999986 L 242.99999999999997,45.0 L 224.99999999999994,50.99999999999999 L 233.99999999999994,54.0 L 233.99999999999994,108.0" style="stroke:black;fill:none;stroke-width:2.0;stroke-dasharray:-;stroke-linecap:round;stroke-linejoin:round;" /><path d="M 233.99999999999994,108.0 L 116.99999999999997,107.99999999999999 L 0.0,107.99999999999997" style="stroke:black;fill:none;stroke-width:2.0;stroke-dasharray:-;stroke-linecap:round;stroke-linejoin:round;" /><path d="M 342.0,-180.0 L 342.0,-126.0 L 351.0,-123.00000000000001 L 333.0,-117.0 L 351.0,-111.0 L 333.0,-105.00000000000001 L 351.0,-99.0 L 333.0,-93.0 L 342.0,-90.0 L 342.0,-36.0" style="stroke:black;fill:none;stroke-width:2.0;stroke-dasharray:-;stroke-linecap:round;stroke-linejoin:round;" /><path d="M 342.0,-36.0 L 378.0,-36.0 L 414.0,-36.0" style="stroke:black;fill:none;stroke-width:2.0;stroke-dasharray:-;stroke-linecap:round;stroke-linejoin:round;" /><path d="M 342.0,-36.0 L 342.0,-9.0 L 342.0,18.0" style="stroke:black;fill:none;stroke-width:2.0;stroke-dasharray:-;stroke-linecap:round;stroke-linejoin:round;" /><path d="M 316.91999999999996,-9.060000000000002 L 316.91999999999996,4.139999999999998" style="stroke:black;fill:none;stroke-width:2.0;stroke-dasharray:-;stroke-linecap:round;stroke-linejoin:round;" /><path d="M 330.12,4.14 L 303.72,4.1399999999999935" style="stroke:black;fill:none;stroke-width:2.0;stroke-dasharray:-;stroke-linecap:round;stroke-linejoin:round;" /><path d="M 323.52,4.139999999999998 L 335.4,17.999999999999996 L 342.0,18.0" style="stroke:black;fill:none;stroke-width:2.0;stroke-dasharray:-;stroke-linecap:round;stroke-linejoin:round;" /><path d="M 310.32000000000005,4.139999999999995 L 298.43999999999994,17.999999999999993 L 291.84000000000003,17.99999999999999" style="stroke:black;fill:none;stroke-width:2.0;stroke-dasharray:-;stroke-linecap:round;stroke-linejoin:round;" /><path d="M 310.32000000000005,4.139999999999995 L 304.29712236110373,11.16669057871234" style="stroke:black;fill:none;stroke-width:2.0;stroke-dasharray:-;stroke-linecap:round;stroke-linejoin:round;" /><path d="M 299.7415827469119 16.481486795269404 L 301.5637985925886 8.823841634270845 L 307.0304461296187 13.509539523153835 Z" style="stroke:black;fill:black;stroke-linecap:butt;stroke-linejoin:miter;" /><path d="M 342.0,18.0 L 342.0,32.4 L 333.0,32.4 L 351.0,32.4 M 335.7,36.72 L 348.3,36.72 M 340.2,41.040000000000006 L 343.8,41.040000000000006" style="stroke:black;fill:none;stroke-width:2.0;stroke-dasharray:-;stroke-linecap:round;stroke-linejoin:round;" /><path d="M 288.0,-234.0 L 287.99999999999994,-126.0 L 287.99999999999994,-18.0" style="stroke:gray;fill:none;stroke-width:2.0;stroke-dasharray:7.4,3.2;stroke-linecap:round;stroke-linejoin:round;" /><text x="3.6" y="-305.59999999999997" dominant-baseline="central" fill="black" font-size="14" font-family="sans" text-anchor="start"><tspan x="3.6" dy="14">Zero-Crossing Detector</tspan></text><text x="126.0" y="-203.6" dominant-baseline="ideographic" fill="black" font-size="11" font-family="sans" text-anchor="middle"><tspan x="126.0" dy="11">R1</tspan></text><text x="126.0" y="-178.4" dominant-baseline="hanging" fill="black" font-size="11" font-family="sans" text-anchor="middle"><tspan x="126.0" dy="11">4.7kΩ</tspan></text><text x="234.0" y="-201.79999999999998" dominant-baseline="ideographic" fill="black" font-size="11" font-family="sans" text-anchor="middle"><tspan x="234.0" dy="11">U1: H11AA1</tspan></text><text x="233.99999999999997" y="-50.6" dominant-baseline="ideographic" fill="black" font-size="11" font-family="sans" text-anchor="middle"><tspan x="233.99999999999997" dy="11">R2</tspan></text><text x="233.99999999999994" y="100.6" dominant-baseline="hanging" fill="black" font-size="11" font-family="sans" text-anchor="middle"><tspan x="233.99999999999994" dy="11">4.7kΩ</tspan></text><text x="342.0" y="-39.8" dominant-baseline="hanging" fill="black" font-size="11" font-family="sans" text-anchor="middle"><tspan x="342.0" dy="11">R3</tspan></text><text x="342.0" y="-198.20000000000002" dominant-baseline="ideographic" fill="black" font-size="11" font-family="sans" text-anchor="middle"><tspan x="342.0" dy="11">10kΩ</tspan></text><text x="316.62" y="-28.860000000000003" dominant-baseline="ideographic" fill="black" font-size="9" font-family="sans" text-anchor="middle"><tspan x="316.62" dy="9">Q (photo)</tspan></text><text x="291.59999999999997" y="-5.3999999999999995" dominant-baseline="central" fill="gray" font-size="9" font-family="sans" text-anchor="middle"><tspan x="291.59999999999997" dy="9">ISOLATION</tspan></text><circle cx="0.0" cy="-180.0" r="2.6999999999999997" style="stroke:black;fill:black;stroke-width:2.0;stroke-dasharray:-;" /><text x="-9.9" y="-190.0" dominant-baseline="central" fill="black" font-size="10" font-family="sans" text-anchor="end"><tspan x="-9.9" dy="10">AC_HOT</tspan></text><circle cx="0.0" cy="107.99999999999997" r="2.6999999999999997" style="stroke:black;fill:black;stroke-width:2.0;stroke-dasharray:-;" /><text x="-9.9" y="97.99999999999997" dominant-baseline="central" fill="black" font-size="10" font-family="sans" text-anchor="end"><tspan x="-9.9" dy="10">AC_COM</tspan></text><circle cx="342.0" cy="-180.0" r="2.6999999999999997" style="stroke:black;fill:black;stroke-width:2.0;stroke-dasharray:-;" /><text x="342.0" y="-198.1" dominant-baseline="ideographic" fill="black" font-size="10" font-family="sans" text-anchor="middle"><tspan x="342.0" dy="10">VCC</tspan></text><circle cx="342.0" cy="-36.0" r="2.6999999999999997" style="stroke:black;fill:black;stroke-width:2.0;stroke-dasharray:-;" /><circle cx="414.0" cy="-36.0" r="2.6999999999999997" style="stroke:black;fill:black;stroke-width:2.0;stroke-dasharray:-;" /><text x="423.90000000000003" y="-46.0" dominant-baseline="central" fill="black" font-size="10" font-family="sans" text-anchor="start"><tspan x="423.90000000000003" dy="10">MCU_ZC</tspan></text></svg>